<?xml version="1.0" standalone="no"?>
<!DOCTYPE svg PUBLIC "-//W3C//DTD SVG 20010904//EN"
 "http://www.w3.org/TR/2001/REC-SVG-20010904/DTD/svg10.dtd">
<svg version="1.0" xmlns="http://www.w3.org/2000/svg"
 width="626.000000pt" height="351.000000pt" viewBox="0 0 626.000000 351.000000"
 preserveAspectRatio="xMidYMid meet">

<g transform="translate(0.000000,351.000000) scale(0.100000,-0.100000)"
fill="#000000" stroke="none">
<path d="M0 1755 l0 -1755 3130 0 3130 0 0 376 0 376 -36 -7 c-28 -5 -35 -3
-32 7 5 13 9 14 48 17 19 1 20 8 20 124 0 122 0 124 -22 123 -14 -1 -23 5 -23
14 0 9 9 15 23 14 l22 -1 0 182 0 181 -35 17 c-19 9 -35 21 -35 26 0 11 25 21
51 21 19 0 19 21 19 1020 l0 1020 -3130 0 -3130 0 0 -1755z m2680 1585 c36
-36 18 -75 -41 -85 -30 -6 -40 -3 -58 16 -26 29 -26 37 1 66 27 29 71 30 98 3z
m1644 -106 c11 -11 16 -35 16 -79 0 -61 -2 -65 -29 -79 -35 -19 -93 -11 -117
15 -21 23 -13 112 12 140 22 24 96 26 118 3z m-148 -212 c17 -10 0 -48 -30
-67 -47 -31 -64 8 -21 50 26 27 33 29 51 17z m-3266 -118 c11 -27 -2 -64 -22
-64 -17 0 -48 31 -48 48 0 17 28 41 48 42 7 0 17 -12 22 -26z m1067 -46 c-3
-8 -6 -5 -6 6 -1 11 2 17 5 13 3 -3 4 -12 1 -19z m2253 -48 c0 -11 -4 -20 -9
-20 -14 0 -23 18 -16 30 10 17 25 11 25 -10z m-32 -22 c4 -19 -35 -35 -50 -20
-6 6 -8 18 -4 27 8 21 50 16 54 -7z m47 -49 c-8 -24 -4 -24 25 1 25 21 45 26
54 11 8 -12 -3 -41 -15 -41 -20 0 -59 -49 -59 -75 0 -23 3 -26 22 -22 33 9 49
-9 36 -39 -11 -24 -3 -48 10 -27 8 12 90 12 110 -1 7 -4 11 -15 8 -23 -4 -8 4
-23 16 -34 30 -24 41 -24 33 1 -4 14 -1 22 11 27 10 4 19 2 22 -5 2 -7 13 -12
24 -12 11 0 22 -8 25 -20 3 -11 14 -20 24 -20 28 0 34 -21 12 -40 -15 -12 -19
-24 -16 -42 4 -20 0 -29 -16 -37 -12 -7 -21 -16 -21 -22 0 -5 -12 -27 -26 -49
-14 -21 -24 -42 -21 -47 3 -4 -9 -9 -27 -10 -25 -2 -45 7 -92 45 -72 57 -186
118 -250 132 -44 10 -83 41 -84 67 0 6 -6 13 -12 16 -10 3 -10 9 0 27 21 36 5
37 -61 3 -34 -17 -87 -43 -117 -58 -30 -15 -63 -35 -73 -46 -21 -23 -31 -24
-47 -4 -11 13 -8 15 18 15 21 0 30 4 27 13 -10 27 57 76 140 101 33 10 68 27
78 37 10 11 30 19 44 19 21 0 24 3 15 12 -9 9 -8 16 4 30 16 16 15 18 -10 28
-22 8 -27 15 -24 37 4 34 38 46 38 14 0 -17 4 -20 30 -14 25 4 30 2 31 -13 2
-27 2 -27 -5 -51 -6 -20 -4 -19 25 7 17 17 35 28 40 25 12 -8 -23 -92 -67
-160 -23 -38 -31 -56 -21 -52 10 4 20 -1 26 -11 6 -10 11 -12 11 -4 0 20 38
14 50 -8 6 -11 17 -20 25 -20 8 0 21 -12 28 -26 11 -20 16 -24 22 -14 5 9 4
15 -3 18 -7 2 -12 10 -12 18 0 8 -6 14 -14 14 -22 0 -26 24 -26 161 0 79 -4
129 -10 129 -16 0 -12 17 12 43 25 28 42 26 33 -4z m-91 13 c9 -16 -10 -31
-32 -25 -30 7 -28 33 2 33 14 0 27 -4 30 -8z m296 -7 c7 -8 10 -22 6 -30 -5
-15 8 -19 47 -15 22 2 57 -27 57 -46 0 -8 -9 -19 -20 -26 -25 -16 -27 -51 -2
-46 9 2 16 10 14 18 -7 30 6 40 40 29 18 -6 38 -12 45 -14 9 -3 9 -11 -2 -32
-8 -15 -15 -38 -15 -50 0 -20 -4 -22 -32 -16 -38 7 -58 20 -58 37 0 20 -74 62
-121 70 -24 4 -52 15 -62 24 -11 9 -22 15 -25 12 -4 -3 -8 3 -10 13 -4 22 33
24 42 2 7 -18 29 -19 57 -2 17 10 23 9 39 -10 17 -21 40 -31 40 -17 0 9 -61
64 -70 64 -14 0 -19 27 -7 39 15 15 22 14 37 -4z m-535 -23 c6 -14 22 -24 45
-28 50 -8 60 -12 60 -24 0 -13 -70 -11 -139 3 -66 14 -81 37 -24 37 32 1 35 2
19 11 -15 9 -16 13 -5 20 19 12 32 6 44 -19z m75 18 c0 -5 -7 -10 -16 -10 -8
0 -12 5 -9 10 3 6 10 10 16 10 5 0 9 -4 9 -10z m-583 -106 c8 -21 -13 -42 -28
-27 -13 13 -5 43 11 43 6 0 13 -7 17 -16z m633 -9 c0 -8 -6 -15 -14 -15 -17 0
-28 14 -19 24 12 12 33 6 33 -9z m1114 -11 c89 -38 97 -42 140 -59 21 -8 46
-15 55 -15 9 0 38 -14 64 -31 l49 -30 -26 -26 c-20 -20 -29 -23 -39 -14 -8 6
-34 13 -58 15 -26 3 -86 26 -144 55 -55 28 -112 55 -127 60 -34 13 -36 34 -6
55 28 20 19 21 92 -10z m-2774 -24 c0 -5 -4 -10 -9 -10 -6 0 -13 5 -16 10 -3
6 1 10 9 10 9 0 16 -4 16 -10z m824 -7 c8 -19 -8 -38 -23 -29 -16 10 -13 46 3
46 8 0 17 -8 20 -17z m558 -29 c4 -15 14 -32 23 -36 19 -11 20 -28 0 -28 -8 0
-15 5 -15 10 0 6 -8 10 -17 10 -18 0 -93 60 -93 74 0 3 21 5 47 3 42 -4 48 -8
55 -33z m-692 -9 c0 -8 -4 -15 -10 -15 -5 0 -10 7 -10 15 0 8 5 15 10 15 6 0
10 -7 10 -15z m1722 -14 c7 -10 22 -20 33 -22 11 -3 26 -17 33 -32 11 -23 11
-31 -5 -57 -9 -17 -21 -30 -26 -30 -20 0 5 -18 33 -23 39 -8 62 1 56 22 -6 19
24 62 31 44 2 -7 20 -17 39 -23 19 -6 34 -18 34 -26 0 -9 4 -12 10 -9 6 3 7
-1 4 -10 -9 -22 28 -131 49 -144 11 -7 17 -8 17 -1 0 16 26 11 51 -10 20 -16
22 -21 9 -29 -8 -5 -18 -7 -22 -5 -4 3 -8 1 -8 -5 0 -17 -62 13 -72 35 -11 23
-48 50 -48 34 0 -5 -13 -10 -30 -10 -20 0 -30 5 -30 15 0 18 12 19 28 3 9 -9
12 -9 12 0 0 7 7 12 16 12 9 0 14 6 11 13 -5 15 -53 10 -81 -9 -21 -13 -68
-16 -60 -3 6 11 -27 70 -43 76 -8 3 -19 1 -26 -6 -14 -14 -48 14 -41 34 3 7 1
16 -5 20 -6 3 -15 -5 -21 -19 -13 -36 -46 -34 -70 6 -10 17 -16 36 -13 41 3 5
34 7 69 4 35 -3 64 -2 64 1 -1 21 -29 41 -48 35 -30 -7 -39 22 -19 57 9 15 15
29 12 31 -2 3 7 6 20 7 14 1 30 -6 37 -17z m-1894 -28 c-3 -30 -25 -42 -34
-19 -6 17 11 46 28 46 5 0 8 -12 6 -27z m1292 2 c0 -8 -7 -15 -15 -15 -9 0
-12 6 -9 15 4 8 10 15 15 15 5 0 9 -7 9 -15z m-1479 -5 c10 -6 19 -15 19 -21
0 -22 -41 -67 -66 -73 -34 -9 -52 7 -34 29 28 34 -76 15 -201 -38 -60 -25 -79
-37 -87 -59 -11 -30 -32 -38 -32 -12 0 8 -4 12 -10 9 -5 -3 -10 1 -10 9 0 11
-9 16 -29 16 -17 0 -32 4 -36 9 -5 9 12 14 95 24 19 3 51 12 70 21 l35 16 -40
-5 c-62 -7 -203 -14 -172 -9 15 3 31 13 37 23 7 15 23 18 82 19 107 2 197 12
248 27 25 8 56 16 70 18 14 2 29 5 33 6 5 0 17 -4 28 -9z m849 0 c0 -5 -4 -10
-10 -10 -5 0 -10 5 -10 10 0 6 5 10 10 10 6 0 10 -4 10 -10z m-108 -37 c21
-19 24 -43 6 -43 -20 1 -60 38 -53 50 9 15 26 12 47 -7z m-237 -4 c6 -9 -35
-29 -60 -29 -8 0 -19 8 -24 18 -8 15 -4 17 35 19 24 1 46 -3 49 -8z m1865 -3
c0 -34 -42 -41 -77 -13 -21 15 -4 27 38 27 26 0 39 -4 39 -14z m445 -7 c4 -6
13 -8 21 -5 9 3 14 -2 14 -14 0 -11 -5 -20 -10 -20 -18 0 -60 32 -54 41 7 12
21 11 29 -2z m-2247 -21 c-3 -7 -11 -13 -18 -13 -7 0 -15 6 -17 13 -3 7 4 12
17 12 13 0 20 -5 18 -12z m-316 -17 c75 -32 112 -44 148 -46 23 -1 36 -8 38
-19 4 -19 -4 -20 -47 -5 -24 8 -35 8 -46 -1 -9 -7 -16 -11 -18 -9 -1 2 -7 13
-13 23 -14 26 -41 29 -47 5 -3 -10 -1 -19 4 -19 5 0 9 -4 9 -10 0 -16 -27 -12
-34 5 -4 12 -12 9 -36 -15 l-31 -30 -35 32 c-19 18 -34 34 -34 36 0 2 12 2 28
0 21 -2 26 1 24 15 -2 10 7 27 20 37 28 24 20 23 70 1z m479 -7 c17 -20 2 -31
-21 -16 -11 7 -27 12 -35 12 -18 0 -20 17 -2 23 18 6 45 -3 58 -19z m519 7 c0
-10 -65 -51 -81 -51 -18 0 -8 15 24 37 34 23 57 29 57 14z m1707 -13 c18 -7
33 -15 33 -19 0 -17 96 -63 126 -60 22 2 36 -4 45 -17 8 -10 24 -22 37 -26 14
-5 22 -15 22 -31 0 -23 -23 -55 -40 -55 -24 0 -150 61 -150 72 0 5 -16 8 -35
8 -19 0 -37 6 -42 15 -5 8 -30 30 -58 49 -42 31 -46 36 -29 42 10 4 23 13 27
21 10 16 21 16 64 1z m-1677 -22 c-20 -21 -36 -17 -27 6 2 8 14 14 26 14 21 0
21 0 1 -20z m1540 14 c0 -5 -7 -10 -16 -10 -8 0 -12 5 -9 10 3 6 10 10 16 10
5 0 9 -4 9 -10z m-2730 -19 c14 -27 13 -29 -14 -24 -17 4 -22 10 -19 24 7 24
19 24 33 0z m-120 -26 c0 -17 -27 -38 -40 -30 -14 9 -13 42 3 48 18 6 37 -3
37 -18z m1160 15 c0 -5 -4 -10 -10 -10 -5 0 -10 5 -10 10 0 6 5 10 10 10 6 0
10 -4 10 -10z m-1630 -30 c0 -16 -42 -49 -72 -55 -33 -8 -50 1 -28 15 12 8 11
10 -4 10 -32 0 -3 22 41 30 55 11 63 11 63 0z m2420 -17 c4 -17 9 -20 20 -13
13 8 13 10 1 10 -11 0 -12 3 -4 11 7 7 21 5 46 -8 39 -19 45 -31 25 -51 -6 -6
-8 -15 -4 -19 4 -5 14 1 22 12 8 11 21 19 28 17 8 -1 16 8 20 20 4 14 9 19 13
12 5 -6 16 -13 26 -17 9 -4 21 -17 26 -30 5 -13 21 -31 36 -41 18 -12 25 -24
23 -39 -2 -18 -9 -22 -38 -20 -19 1 -36 6 -38 12 -2 6 -15 11 -28 11 -14 0
-39 8 -57 17 -18 9 -39 17 -47 17 -10 1 -14 9 -12 26 1 14 -1 20 -5 14 -5 -6
-23 -18 -42 -27 -30 -15 -37 -15 -49 -3 -19 18 -8 36 18 29 15 -4 19 -1 15 9
-3 8 -16 14 -28 14 -25 -1 -35 28 -16 50 17 20 42 14 49 -13z m-2550 -3 c0 -5
-9 -10 -21 -10 -11 0 -17 5 -14 10 3 6 13 10 21 10 8 0 14 -4 14 -10z m430 6
c0 -2 -7 -6 -15 -10 -8 -3 -15 -1 -15 4 0 6 7 10 15 10 8 0 15 -2 15 -4z m272
-23 c38 -17 49 -32 26 -34 -7 -1 5 -5 27 -8 45 -7 59 -38 15 -33 -98 9 -122 8
-134 -10 -10 -17 -46 -26 -46 -10 0 4 9 21 20 39 13 22 16 34 8 39 -7 5 -5 12
7 21 24 17 30 17 77 -4z m442 -2 c3 -5 15 -7 26 -4 25 7 27 -14 1 -22 -23 -7
-74 12 -66 25 8 12 32 13 39 1z m-974 -21 c0 -5 -2 -10 -4 -10 -3 0 -8 5 -11
10 -3 6 -1 10 4 10 6 0 11 -4 11 -10z m834 0 c-14 -14 -144 -23 -144 -10 0 5
6 7 14 4 8 -3 17 -1 20 4 3 6 31 10 63 11 36 0 53 -3 47 -9z m70 4 c19 -7 21
-30 3 -37 -15 -5 -59 27 -50 37 8 8 27 8 47 0z m168 -6 c-9 -9 -15 -9 -24 0
-9 9 -7 12 12 12 19 0 21 -3 12 -12z m968 -3 c13 -16 6 -35 -15 -35 -20 0 -29
-19 -16 -34 9 -10 8 -15 -4 -19 -17 -7 -9 -37 10 -37 8 0 15 12 17 28 2 19 9
28 26 30 16 3 22 -1 20 -12 -2 -8 0 -15 5 -15 24 -2 29 1 23 14 -3 8 -1 15 4
15 5 0 10 10 12 22 l3 23 20 -22 c11 -11 29 -23 40 -25 27 -5 25 -31 -3 -43
-12 -5 -20 -16 -17 -23 6 -16 -15 -63 -35 -79 -11 -9 -12 -14 -3 -24 6 -6 9
-19 6 -28 -4 -11 -1 -10 10 4 19 25 33 14 18 -14 -20 -36 -50 -4 -56 59 -4 30
-5 32 -19 21 -11 -9 -16 -6 -24 19 -8 22 -15 28 -28 23 -10 -4 -20 0 -26 10
-11 21 -28 22 -28 2 0 -27 -28 -16 -39 16 -17 48 -14 56 31 99 48 45 51 46 68
25z m-2190 -25 c0 -5 -4 -10 -10 -10 -5 0 -10 5 -10 10 0 6 5 10 10 10 6 0 10
-4 10 -10z m1670 -7 c68 -6 93 -25 79 -60 -10 -28 -5 -43 17 -43 18 0 17 -10
-1 -34 -16 -21 -19 -106 -6 -141 6 -14 10 -1 13 43 7 72 29 112 61 112 12 0
17 -4 12 -8 -25 -18 -46 -66 -52 -122 -4 -40 -10 -60 -19 -60 -22 0 -46 60
-48 116 l-1 52 -26 -19 c-14 -10 -48 -43 -76 -73 -28 -31 -58 -56 -67 -56 -22
0 -20 -9 6 -37 16 -18 18 -22 6 -18 -20 8 -53 55 -38 55 6 0 14 8 17 18 4 9
18 34 32 56 30 46 38 81 16 73 -8 -4 -17 -2 -20 2 -2 5 5 11 18 15 12 3 24 1
25 -4 6 -17 31 -11 72 16 39 26 51 44 29 44 -6 0 -28 13 -48 29 -36 29 -90 47
-125 42 -12 -2 -16 1 -11 9 5 8 20 10 44 5 20 -3 61 -9 91 -12z m-1960 -3 c25
-4 71 -13 104 -19 32 -6 61 -13 64 -16 12 -12 -46 -56 -92 -70 -68 -20 -91
-19 -113 8 -12 15 -27 21 -45 19 -31 -4 -71 15 -63 29 4 5 25 9 48 10 l42 1
-38 17 c-20 10 -34 21 -30 24 9 9 67 8 123 -3z m1117 -23 c5 -7 31 -12 71 -12
82 0 85 -15 3 -21 -45 -3 -68 -10 -77 -22 -9 -11 -13 -12 -14 -4 0 7 -10 17
-22 22 -18 7 -19 9 -5 9 10 1 17 9 17 21 0 22 15 27 27 7z m253 -2 c0 -9 -6
-12 -15 -9 -8 4 -12 10 -9 15 8 14 24 10 24 -6z m315 5 c-8 -13 88 -9 98 4 5
8 10 6 16 -3 5 -7 13 -11 19 -7 6 3 34 -2 61 -13 35 -13 51 -15 52 -8 0 7 4 2
9 -10 5 -13 16 -23 25 -23 19 0 19 -14 1 -29 -10 -9 -20 -9 -40 0 -14 7 -23
16 -20 20 6 10 -36 34 -54 31 -23 -5 -50 -34 -45 -48 3 -8 1 -14 -4 -14 -17 0
-23 13 -12 26 9 11 7 15 -7 20 -11 3 -30 11 -44 19 -14 7 -40 16 -57 20 -36 7
-45 25 -12 25 11 0 17 -4 14 -10z m1081 -1 c10 -17 -23 -46 -38 -31 -8 8 -8
15 2 27 15 18 26 19 36 4z m119 -9 c3 -5 2 -10 -4 -10 -5 0 -13 5 -16 10 -3 6
-2 10 4 10 5 0 13 -4 16 -10z m43 -19 c3 -8 -1 -12 -9 -9 -7 2 -15 10 -17 17
-3 8 1 12 9 9 7 -2 15 -10 17 -17z m-1593 -1 c3 -5 -1 -10 -10 -10 -9 0 -13 5
-10 10 3 6 8 10 10 10 2 0 7 -4 10 -10z m-1065 -10 c0 -5 -4 -10 -10 -10 -5 0
-10 5 -10 10 0 6 5 10 10 10 6 0 10 -4 10 -10z m48 -2 c-6 -18 -25 -20 -31 -3
-5 10 0 15 14 15 12 0 19 -5 17 -12z m1082 -9 c0 -5 -7 -9 -15 -9 -15 0 -20
12 -9 23 8 8 24 -1 24 -14z m2876 7 c22 -23 17 -36 -14 -36 -36 0 -44 8 -31
31 12 23 25 24 45 5z m-1556 -11 c0 -9 -6 -18 -14 -21 -11 -4 -8 -11 10 -31
13 -14 28 -42 34 -62 9 -32 8 -38 -11 -53 -12 -10 -27 -18 -35 -18 -8 0 -23 8
-33 18 -11 9 -27 23 -36 30 -15 13 -15 16 -1 38 14 20 14 23 1 18 -8 -4 -15
-1 -15 5 0 6 5 11 11 11 18 0 44 31 31 39 -19 12 10 38 46 40 6 1 12 -6 12
-14z m104 -10 c20 -8 39 -14 42 -13 4 2 12 -5 18 -16 8 -14 8 -20 -1 -23 -7
-3 -13 -11 -13 -18 0 -8 -8 -18 -17 -24 -27 -15 -9 -23 32 -15 23 4 32 9 25
14 -22 14 -3 43 24 38 22 -5 24 -3 15 20 -6 16 -6 29 0 35 14 14 105 -15 109
-35 5 -25 -27 -68 -52 -68 -19 -1 -19 -2 -3 -11 16 -10 16 -11 0 -34 -10 -14
-22 -25 -27 -25 -5 0 -3 7 4 15 19 23 3 31 -20 10 -19 -18 -20 -17 -20 2 0 19
-7 21 -54 14 -4 0 3 -16 16 -33 l25 -33 -22 -44 c-12 -24 -28 -47 -34 -51 -13
-7 -48 8 -118 53 -24 15 -47 27 -53 27 -5 0 -10 7 -10 15 0 8 6 15 13 15 19 0
77 -38 83 -55 4 -8 10 -12 15 -9 5 3 2 16 -7 29 -18 28 -11 66 8 47 21 -21 33
-13 33 21 0 27 -4 33 -25 35 -40 6 -44 19 -8 26 36 8 35 9 -26 49 -17 11 -17
15 -5 35 8 12 14 22 15 22 1 0 18 -7 38 -15z m578 -25 c21 -17 26 -48 6 -33
-20 15 -50 24 -43 13 3 -6 -1 -10 -10 -10 -11 0 -15 -6 -10 -19 4 -13 0 -20
-14 -24 -27 -7 -38 23 -14 41 17 12 16 13 -5 18 -12 4 -22 10 -22 15 0 12 14
11 26 -1 18 -18 46 0 38 24 -7 22 -8 23 48 -24z m971 34 c11 -11 -3 -24 -18
-18 -8 4 -12 10 -9 15 6 11 18 12 27 3z m-4113 -14 c11 -7 7 -10 -18 -10 -20
0 -31 4 -27 10 8 13 26 13 45 0z m600 -10 c0 -5 -2 -10 -4 -10 -3 0 -8 5 -11
10 -3 6 -1 10 4 10 6 0 11 -4 11 -10z m2336 -11 c10 -17 -13 -36 -27 -22 -12
12 -4 33 11 33 5 0 12 -5 16 -11z m-2146 -9 c8 -5 11 -10 7 -10 -4 0 -3 -9 3
-19 5 -11 19 -19 31 -18 18 1 19 3 4 13 -21 16 -2 28 22 15 10 -5 29 -21 42
-35 23 -25 79 -43 111 -37 8 2 12 0 8 -4 -9 -9 23 -45 41 -45 11 0 12 -3 4
-11 -8 -8 -22 -5 -52 10 -32 17 -39 18 -35 6 4 -8 2 -15 -2 -15 -5 0 -20 -3
-34 -6 -17 -4 -21 -3 -12 4 8 5 11 18 7 33 -5 19 -13 24 -40 25 -21 0 -35 -4
-35 -11 0 -7 -10 -17 -23 -22 -19 -9 -26 -8 -34 6 -5 9 -7 25 -3 36 5 14 1 23
-13 30 -11 6 -21 22 -23 38 -3 29 2 32 26 17z m100 0 c0 -5 -7 -10 -15 -10 -8
0 -15 5 -15 10 0 6 7 10 15 10 8 0 15 -4 15 -10z m134 -17 c16 -17 22 -31 16
-37 -10 -10 -61 44 -53 56 7 12 10 10 37 -19z m171 10 c14 -18 9 -43 -7 -43
-6 0 -8 7 -5 15 4 8 2 17 -3 20 -11 7 -13 25 -4 25 4 0 12 -8 19 -17z m-449
-2 c6 -1 10 -11 9 -23 -2 -28 -35 -38 -35 -11 0 13 -8 18 -32 20 -66 3 -96 8
-91 16 2 4 35 6 71 3 37 -3 72 -5 78 -5z m428 -11 c9 -9 -7 -19 -39 -24 -9 -1
-21 -9 -25 -17 -7 -11 -12 -11 -22 -1 -9 9 -9 12 5 12 25 0 21 18 -5 22 -12 2
-24 9 -26 17 -4 11 5 13 49 7 30 -4 58 -11 63 -16z m-1474 -10 c0 -5 -5 -10
-11 -10 -5 0 -7 5 -4 10 3 6 8 10 11 10 2 0 4 -4 4 -10z m70 6 c0 -2 -7 -6
-15 -10 -8 -3 -15 -1 -15 4 0 6 7 10 15 10 8 0 15 -2 15 -4z m690 -6 c0 -5 -2
-10 -4 -10 -3 0 -8 5 -11 10 -3 6 -1 10 4 10 6 0 11 -4 11 -10z m-800 -10 c0
-5 -10 -10 -22 -10 -19 0 -20 2 -8 10 19 13 30 13 30 0z m2350 0 c0 -5 -7 -10
-16 -10 -8 0 -12 5 -9 10 3 6 10 10 16 10 5 0 9 -4 9 -10z m-1566 -15 c22 -9
36 -22 36 -33 0 -9 3 -13 8 -7 9 13 42 16 42 3 0 -5 3 -7 8 -4 4 2 16 -2 27
-10 18 -13 18 -14 -7 -14 -15 0 -29 4 -32 9 -7 10 -56 2 -56 -10 0 -5 -5 -9
-11 -9 -6 0 -9 9 -6 19 3 12 -1 22 -9 25 -8 3 -14 1 -14 -5 0 -6 -5 -7 -10 -4
-6 4 -8 10 -5 14 2 5 -7 6 -20 3 -20 -3 -24 -1 -19 12 5 12 2 15 -12 10 -16
-5 -16 -4 -4 5 21 15 41 14 84 -4z m1111 5 c3 -5 2 -10 -4 -10 -5 0 -13 5 -16
10 -3 6 -2 10 4 10 5 0 13 -4 16 -10z m545 0 c0 -5 -4 -10 -9 -10 -6 0 -13 5
-16 10 -3 6 1 10 9 10 9 0 16 -4 16 -10z m90 0 c0 -5 -12 -10 -26 -10 -14 0
-23 4 -19 10 3 6 15 10 26 10 10 0 19 -4 19 -10z m705 1 c3 -6 -3 -15 -14 -21
-21 -11 -37 2 -26 20 8 13 32 13 40 1z m49 -16 c4 -14 11 -25 16 -25 5 0 7 -7
4 -15 -4 -8 -15 -15 -25 -15 -25 0 -44 46 -28 66 17 20 26 17 33 -11z m254 -3
c2 -7 -1 -12 -7 -12 -21 0 -11 -20 14 -26 28 -7 33 -29 9 -38 -27 -10 -44 -7
-44 9 0 8 -4 15 -10 15 -5 0 -10 -7 -10 -15 0 -8 -5 -15 -11 -15 -6 0 -9 8 -7
18 3 12 -2 24 -15 31 -19 13 -19 13 4 35 25 24 68 23 77 -2z m-2868 9 c0 -6
-4 -13 -10 -16 -5 -3 -10 1 -10 9 0 9 5 16 10 16 6 0 10 -4 10 -9z m835 -1 c3
-5 -1 -10 -9 -10 -9 0 -16 5 -16 10 0 6 4 10 9 10 6 0 13 -4 16 -10z m755 -2
c0 14 113 8 144 -8 33 -17 49 -44 19 -33 -10 3 -15 2 -11 -2 5 -5 -2 -15 -13
-23 -18 -12 -23 -12 -29 -1 -5 7 -6 17 -4 21 3 4 1 8 -5 8 -13 0 -18 -48 -9
-85 5 -17 4 -33 -2 -39 -7 -7 -10 -6 -10 2 0 7 -16 12 -40 12 -29 0 -40 -4
-40 -15 0 -9 9 -15 25 -15 14 0 25 -4 25 -10 0 -5 -9 -10 -19 -10 -11 0 -27
-3 -36 -6 -14 -6 -15 0 -11 34 3 23 1 44 -5 47 -5 4 -9 10 -9 16 0 13 34 11
49 -3 11 -11 13 -10 7 5 -3 10 -6 27 -6 38 0 10 -4 19 -9 19 -5 0 -7 -9 -4
-20 4 -14 0 -20 -11 -20 -15 0 -20 12 -29 72 -4 24 -2 26 14 17 11 -5 19 -6
19 -1z m305 2 c-3 -5 -10 -10 -16 -10 -5 0 -9 5 -9 10 0 6 7 10 16 10 8 0 12
-4 9 -10z m-1465 -25 c0 -8 -4 -15 -10 -15 -5 0 -10 7 -10 15 0 8 5 15 10 15
6 0 10 -7 10 -15z m-1345 -5 c3 -5 1 -10 -4 -10 -6 0 -11 5 -11 10 0 6 2 10 4
10 3 0 8 -4 11 -10z m1861 -17 c-10 -10 -19 5 -10 18 6 11 8 11 12 0 2 -7 1
-15 -2 -18z m148 12 c4 -10 -1 -15 -15 -15 -17 0 -18 2 -7 15 16 18 15 18 22
0z m96 -7 c0 -5 4 -7 9 -4 11 7 22 -31 14 -50 -13 -36 -41 -8 -49 48 -3 21 0
26 11 22 8 -4 15 -10 15 -16z m345 -5 c-9 -8 -18 -13 -21 -10 -8 8 19 36 29
30 4 -2 0 -11 -8 -20z m335 12 c0 -17 -2 -18 -24 -9 -23 9 -20 24 4 24 11 0
20 -7 20 -15z m-1810 -13 c0 -9 -7 -11 -19 -7 -11 3 -26 -1 -35 -10 -10 -11
-16 -12 -16 -4 0 6 -7 17 -15 23 -12 9 -4 11 35 11 35 0 50 -4 50 -13z m263 6
c-4 -7 -8 -16 -8 -20 0 -15 -13 -17 -25 -3 -10 12 -10 15 4 15 9 0 16 5 16 10
0 6 5 10 11 10 6 0 7 -5 2 -12z m682 2 c-27 -12 -35 -12 -35 0 0 6 12 10 28 9
24 0 25 -1 7 -9z m149 1 c3 -5 0 -11 -8 -14 -15 -6 -26 1 -26 15 0 11 27 10
34 -1z m216 -1 c0 -5 -4 -10 -10 -10 -5 0 -10 5 -10 10 0 6 5 10 10 10 6 0 10
-4 10 -10z m-1430 -9 c23 -7 22 -8 -12 -12 -27 -4 -38 -1 -38 8 0 14 11 15 50
4z m1858 -13 c9 -9 12 -9 12 0 0 21 25 2 39 -31 17 -39 31 -49 48 -35 20 16
45 2 38 -22 -4 -14 -2 -20 8 -20 22 0 27 22 9 43 -14 15 -13 17 1 17 10 0 17
-6 17 -13 0 -8 20 -22 44 -32 52 -22 76 -56 56 -80 -11 -13 -8 -15 18 -15 41
0 45 -11 14 -34 -14 -11 -22 -15 -19 -9 8 12 -31 22 -74 19 -17 -1 -29 3 -29
10 0 7 8 10 20 7 22 -6 26 7 8 25 -9 9 -7 13 6 18 23 9 2 34 -29 34 -19 0 -22
-5 -22 -41 0 -22 -6 -44 -13 -49 -7 -4 -9 -13 -5 -19 11 -20 -4 -61 -23 -61
-15 -1 -15 -2 3 -12 19 -11 19 -11 0 -18 -26 -10 -44 6 -38 30 4 16 -4 24 -41
41 -50 22 -60 33 -22 23 18 -4 25 -1 29 17 3 12 11 20 19 17 20 -8 49 25 37
42 -6 10 -11 12 -16 4 -10 -14 -73 -35 -73 -25 0 5 7 15 16 22 15 12 15 14 -6
19 -13 3 -28 14 -34 25 -6 11 -15 23 -21 28 -6 4 -3 11 8 18 18 10 18 11 0 24
-13 10 -22 10 -31 3 -7 -6 -16 -8 -20 -4 -7 7 33 46 47 46 4 0 12 -5 19 -12z
m690 -15 c2 -14 12 -23 25 -25 14 -2 22 -10 22 -23 1 -12 11 -35 23 -52 28
-39 13 -53 -25 -23 -16 13 -29 17 -31 11 -5 -14 -32 -14 -32 -1 0 6 5 10 10
10 6 0 10 5 10 11 0 5 -4 8 -9 4 -5 -3 -12 -1 -15 4 -8 12 20 22 39 15 21 -9
19 23 -2 34 -10 5 -27 8 -38 6 -32 -5 -47 14 -27 37 21 25 46 21 50 -8z
m-3158 -13 c0 -6 -18 -10 -40 -10 -22 0 -40 5 -40 10 0 9 14 14 33 11 4 0 7 4
7 9 0 7 6 7 20 0 11 -6 20 -15 20 -20z m1060 20 c0 -5 -4 -10 -10 -10 -5 0
-10 5 -10 10 0 6 5 10 10 10 6 0 10 -4 10 -10z m2391 1 c-8 -5 -20 -7 -28 -4
-21 8 -15 13 15 13 20 0 23 -3 13 -9z m-2711 -11 c0 -5 -5 -10 -11 -10 -5 0
-7 5 -4 10 3 6 8 10 11 10 2 0 4 -4 4 -10z m150 0 c0 -5 -4 -10 -10 -10 -5 0
-10 5 -10 10 0 6 5 10 10 10 6 0 10 -4 10 -10z m720 -5 c11 -13 8 -15 -14 -15
-25 0 -33 10 -19 23 10 11 19 8 33 -8z m1710 -11 c0 -8 -4 -14 -9 -14 -12 0
-32 26 -25 33 10 9 34 -4 34 -19z m-1260 6 c0 -5 -4 -10 -10 -10 -5 0 -10 5
-10 10 0 6 5 10 10 10 6 0 10 -4 10 -10z m-220 -10 c0 -5 -5 -10 -11 -10 -5 0
-7 5 -4 10 3 6 8 10 11 10 2 0 4 -4 4 -10z m1637 -15 c3 -9 3 -19 -1 -22 -7
-7 -36 16 -36 28 0 15 30 10 37 -6z m-757 -16 c0 -18 -2 -19 -15 -9 -15 12
-12 30 6 30 5 0 9 -10 9 -21z m390 11 c0 -5 -9 -10 -21 -10 -11 0 -17 5 -14
10 3 6 13 10 21 10 8 0 14 -4 14 -10z m304 4 c17 -7 22 -34 6 -34 -5 0 -10 -4
-10 -9 0 -5 9 -7 20 -4 11 3 20 1 20 -5 0 -13 -62 -24 -73 -13 -11 11 1 34 14
25 6 -3 8 5 5 20 -5 28 -5 29 18 20z m-3367 -55 c-11 -29 -47 -47 -47 -24 0 7
-9 15 -20 18 -32 8 -24 35 13 45 46 12 67 -3 54 -39z m1528 42 c3 -5 1 -12 -5
-16 -5 -3 -10 1 -10 9 0 18 6 21 15 7z m-165 -21 c21 -18 22 -20 4 -21 -10 0
-14 -3 -7 -6 10 -3 10 -9 0 -24 -17 -27 -25 -24 -35 14 -7 25 -14 31 -30 30
-12 -2 -22 1 -22 6 0 6 15 12 33 14 17 2 32 5 33 5 1 1 11 -7 24 -18z m655 7
c13 -10 15 -16 6 -21 -18 -12 -61 2 -61 19 0 19 30 19 55 2z m1220 -5 c0 -18
-20 -15 -23 4 -3 10 1 15 10 12 7 -3 13 -10 13 -16z m56 5 c-1 -12 -15 -9 -19
4 -3 6 1 10 8 8 6 -3 11 -8 11 -12z m-3245 -13 c-5 -12 -1 -14 15 -9 14 5 19
3 15 -3 -3 -6 0 -12 6 -14 7 -3 -4 -4 -24 -4 -39 1 -47 13 -26 34 16 16 21 15
14 -4z m1124 6 c0 -5 -4 -10 -10 -10 -5 0 -10 5 -10 10 0 6 5 10 10 10 6 0 10
-4 10 -10z m-1953 -12 c14 -18 13 -88 0 -88 -25 1 -47 28 -47 57 0 43 25 59
47 31z m178 2 c3 -6 -1 -13 -10 -16 -19 -8 -30 0 -20 15 8 14 22 14 30 1z
m1489 -12 c-5 -7 -9 -16 -10 -20 -1 -5 -2 -11 -3 -14 0 -3 -8 2 -17 11 -18 17
-18 17 11 33 23 12 30 9 19 -10z m1198 -20 c-8 -18 -11 -19 -11 -5 -1 9 -6 17
-12 17 -8 0 -7 5 1 15 19 23 36 2 22 -27z m-101 9 c20 -9 42 -23 48 -31 9 -10
23 -13 41 -9 25 5 28 3 23 -16 -4 -14 -1 -21 10 -21 8 0 18 -7 21 -16 3 -8 11
-12 17 -8 8 5 9 3 4 -6 -6 -10 -4 -12 7 -7 15 5 42 -29 37 -49 -5 -21 15 -44
40 -45 l26 -1 -29 -8 c-31 -10 -50 -5 -41 10 9 14 -35 24 -108 25 -68 1 -68 0
-47 -17 l22 -18 -24 0 c-28 0 -52 17 -61 42 -5 15 4 17 93 15 54 -1 96 1 93 6
-2 4 -13 7 -23 7 -25 0 -35 17 -13 23 14 4 13 5 -4 6 -12 0 -35 14 -51 31 -16
16 -33 26 -37 22 -5 -4 -5 -1 -1 6 6 10 1 11 -17 7 -14 -4 -28 -2 -31 4 -4 6
-12 11 -17 11 -5 0 7 -15 28 -32 21 -18 41 -37 44 -41 3 -5 9 -8 13 -8 19 3
26 0 26 -10 0 -7 -7 -8 -17 -4 -37 15 -60 16 -74 3 -17 -17 -52 -32 -44 -19 3
5 -4 12 -15 16 -28 9 -26 37 3 33 12 -2 25 -7 28 -12 4 -5 13 -6 20 -4 9 4 3
12 -18 24 -31 18 -53 51 -53 79 0 19 15 19 34 0 23 -24 30 -17 11 11 -9 15
-13 24 -9 22 5 -3 25 -12 45 -21z m409 2 c0 -6 -4 -7 -10 -4 -5 3 -10 11 -10
16 0 6 5 7 10 4 6 -3 10 -11 10 -16z m870 11 c0 -5 -5 -10 -12 -10 -9 0 -9 -3
0 -12 23 -23 12 -29 -18 -11 -29 17 -39 33 -21 33 5 0 11 -6 14 -12 3 -9 7 -7
12 5 8 18 25 23 25 7z m-3350 -8 c0 -13 -12 -22 -22 -16 -10 6 -1 24 13 24 5
0 9 -4 9 -8z m1258 -8 c-2 -9 -11 -22 -21 -28 -15 -9 -21 -7 -32 8 -19 25 -11
36 26 36 23 0 30 -4 27 -16z m316 10 c9 -3 13 -10 10 -15 -8 -14 -31 -11 -38
6 -6 16 3 19 28 9z m-494 -8 c0 -9 -30 -14 -35 -6 -4 6 3 10 14 10 12 0 21 -2
21 -4z m600 -6 c0 -12 -28 -25 -36 -17 -9 9 6 27 22 27 8 0 14 -5 14 -10z
m1220 0 c0 -5 -4 -10 -10 -10 -5 0 -10 5 -10 10 0 6 5 10 10 10 6 0 10 -4 10
-10z m-3210 -4 c0 -3 -4 -8 -10 -11 -5 -3 -10 -1 -10 4 0 6 5 11 10 11 6 0 10
-2 10 -4z m340 -6 c0 -5 -4 -10 -10 -10 -5 0 -10 5 -10 10 0 6 5 10 10 10 6 0
10 -4 10 -10z m513 -57 c-9 -7 -22 -13 -27 -12 -6 0 -5 3 2 6 22 9 12 31 -20
43 l-33 12 25 8 c20 6 30 2 47 -19 21 -24 22 -27 6 -38z m235 51 c12 -8 20
-20 16 -25 -3 -6 6 -8 22 -5 40 8 79 -3 64 -18 -8 -8 -13 -7 -19 2 -5 8 -11
13 -14 12 -4 -1 -20 -5 -36 -10 -24 -7 -30 -5 -34 11 -3 11 -9 19 -14 18 -22
-4 -32 2 -27 16 8 19 14 19 42 -1z m968 -21 c-11 -11 -19 6 -11 24 8 17 8 17
12 0 3 -10 2 -21 -1 -24z m1334 26 c0 -7 11 -9 26 -6 29 5 20 -7 -11 -17 -14
-4 -24 0 -33 14 -10 17 -10 20 3 20 8 0 15 -5 15 -11z m-3420 -5 c0 -7 -27
-34 -34 -34 -4 0 -1 9 6 20 12 19 28 27 28 14z m164 -26 c-3 -4 -11 -5 -18 -2
-7 3 -16 -2 -19 -10 -4 -9 -2 -16 3 -16 6 0 10 -4 10 -10 0 -6 -9 -5 -24 1
-21 10 -23 14 -13 33 7 11 16 24 21 28 11 8 47 -13 40 -24z m3651 22 c3 -5 1
-10 -4 -10 -6 0 -11 5 -11 10 0 6 2 10 4 10 3 0 8 -4 11 -10z m-3745 -10 c0
-5 -4 -10 -10 -10 -5 0 -10 5 -10 10 0 6 5 10 10 10 6 0 10 -4 10 -10z m706
-17 c-7 -7 -26 7 -26 19 0 6 6 6 15 -2 9 -7 13 -15 11 -17z m1879 12 c22 -8
41 -19 43 -24 2 -5 9 -9 15 -7 7 1 9 1 4 -1 -4 -3 -5 -9 -2 -13 3 -5 0 -12 -6
-16 -8 -4 -9 -3 -5 4 10 17 -26 15 -50 -3 -25 -19 -29 -19 -31 4 -1 14 4 19
17 16 13 -3 16 1 13 16 -3 11 -14 19 -27 20 -11 0 -30 4 -41 9 -36 15 25 11
70 -5z m182 3 c-2 -7 2 -21 11 -30 14 -17 13 -18 -10 -18 -25 0 -31 20 -14 48
9 16 19 16 13 0z m-1889 -5 c-10 -2 -26 -2 -35 0 -10 3 -2 5 17 5 19 0 27 -2
18 -5z m816 1 c24 -9 19 -24 -8 -24 -28 0 -43 16 -24 23 7 3 14 6 15 6 1 1 8
-2 17 -5z m221 -4 c-3 -5 -10 -10 -16 -10 -5 0 -9 5 -9 10 0 6 7 10 16 10 8 0
12 -4 9 -10z m1660 -10 c3 -6 -4 -10 -17 -11 -13 0 -31 -2 -42 -4 -21 -4 -46
4 -46 14 0 12 98 13 105 1z m-4208 -11 c7 -7 17 -8 25 -3 7 5 25 9 40 10 25 1
27 -2 24 -29 -2 -17 -9 -33 -16 -35 -7 -3 -10 0 -6 6 7 11 -21 25 -35 17 -12
-8 -71 24 -64 35 8 13 18 13 32 -1z m753 1 c0 -5 -4 -10 -10 -10 -5 0 -10 5
-10 10 0 6 5 10 10 10 6 0 10 -4 10 -10z m3520 0 c0 -5 -2 -10 -4 -10 -3 0 -8
5 -11 10 -3 6 -1 10 4 10 6 0 11 -4 11 -10z m-4140 -40 c14 -20 19 -37 15 -51
-4 -11 -9 -18 -12 -15 -3 3 -11 -1 -19 -8 -7 -8 -30 -17 -50 -21 -32 -5 -41
-3 -63 19 -13 14 -22 28 -18 32 3 4 29 7 56 7 28 0 48 4 45 8 -3 5 5 9 17 9
18 0 20 3 11 12 -11 11 -17 38 -8 38 3 0 14 -13 26 -30z m1160 11 c0 -11 -4
-22 -9 -25 -5 -3 -7 -23 -4 -44 4 -28 1 -42 -12 -52 -16 -14 -17 -13 -10 9 5
16 4 21 -4 17 -6 -4 -12 0 -13 11 -5 62 -2 76 16 89 27 19 36 18 36 -5z m60
15 c0 -3 -4 -8 -10 -11 -5 -3 -10 -1 -10 4 0 6 5 11 10 11 6 0 10 -2 10 -4z
m163 -7 c36 -19 55 -65 22 -52 -9 3 -14 8 -11 10 9 9 -23 34 -44 36 -11 1 -20
5 -20 9 0 12 28 10 53 -3z m822 1 c3 -5 2 -10 -4 -10 -5 0 -13 5 -16 10 -3 6
-2 10 4 10 5 0 13 -4 16 -10z m1466 -13 c-10 -9 -11 -8 -5 6 3 10 9 15 12 12
3 -3 0 -11 -7 -18z m447 4 c26 -22 27 -28 7 -28 -8 0 -12 4 -9 9 3 4 -1 8 -9
8 -8 0 -20 7 -27 15 -19 23 11 20 38 -4z m596 -7 c4 -10 2 -13 -7 -9 -6 4 -4
0 6 -8 17 -14 17 -16 -12 -33 -17 -10 -31 -22 -31 -26 0 -4 -7 -8 -16 -8 -14
0 -15 -2 -3 -17 12 -15 12 -16 -7 -11 -16 4 -24 -2 -34 -26 -8 -17 -13 -35
-12 -40 2 -4 -3 -14 -9 -22 -9 -11 -8 -14 5 -14 10 0 14 -5 11 -10 -3 -6 -17
-7 -29 -4 -14 3 -29 -1 -39 -10 -12 -12 -17 -13 -25 -3 -7 9 -3 24 16 52 15
22 36 57 46 77 11 20 30 42 43 49 13 7 23 18 23 25 0 6 9 14 20 17 11 3 20 12
20 21 0 21 26 21 34 0z m-3179 -4 c-3 -5 -10 -10 -16 -10 -5 0 -9 5 -9 10 0 6
7 10 16 10 8 0 12 -4 9 -10z m-481 -16 c27 -27 20 -44 -18 -41 -25 1 -32 5
-24 14 7 9 1 11 -26 6 -24 -4 -36 -2 -36 6 0 6 12 11 28 11 15 0 34 5 42 10
19 12 16 13 34 -6z m1696 0 c0 -8 -5 -12 -10 -9 -6 4 -8 11 -5 16 9 14 15 11
15 -7z m-1464 -10 c-3 -8 -1 -25 6 -37 10 -19 9 -20 -4 -10 -8 7 -17 11 -20 8
-7 -8 -3 29 6 43 10 17 19 15 12 -4z m1064 -3 c0 -8 -6 -11 -15 -7 -10 4 -15
-1 -15 -15 0 -17 -3 -18 -20 -9 -22 12 -27 36 -7 43 24 8 57 2 57 -12z m760
15 c0 -3 -4 -8 -10 -11 -5 -3 -10 -1 -10 4 0 6 5 11 10 11 6 0 10 -2 10 -4z
m-1910 -14 c0 -5 -7 -9 -15 -9 -8 0 -12 4 -9 9 3 4 9 8 15 8 5 0 9 -4 9 -8z
m40 -1 c0 -5 -7 -11 -15 -15 -15 -5 -20 5 -8 17 9 10 23 9 23 -2z m965 -11
l30 -20 -27 0 c-35 0 -44 3 -40 14 1 4 -9 5 -23 2 -15 -4 -25 -2 -25 4 0 6 5
8 10 5 6 -3 10 -1 10 4 0 17 32 13 65 -9z m-681 -29 c11 -12 14 -21 9 -21 -6
0 -16 7 -23 15 -9 11 -17 12 -32 4 -26 -14 -33 -6 -17 19 14 23 31 18 63 -17z
m-1238 10 c-3 -5 -15 -7 -26 -4 -28 7 -25 13 6 13 14 0 23 -4 20 -9z m3577
-10 c9 -10 4 -11 -25 -6 -29 6 -38 4 -38 -6 0 -11 -2 -11 -10 1 -5 8 -10 11
-10 7 0 -5 -5 -5 -11 -1 -19 11 12 24 49 20 18 -2 39 -9 45 -15z m-1789 -6
c-4 -8 -1 -15 5 -15 6 0 11 -5 11 -12 0 -6 -8 -3 -20 7 -19 17 -19 35 0 35 5
0 7 -7 4 -15z m-1456 -12 c-10 -2 -18 -12 -18 -20 0 -9 -3 -14 -6 -10 -12 11
5 37 23 36 17 -1 17 -2 1 -6z m982 -3 c0 -5 -5 -10 -11 -10 -5 0 -7 5 -4 10 3
6 8 10 11 10 2 0 4 -4 4 -10z m30 6 c0 -3 -4 -8 -10 -11 -5 -3 -10 -1 -10 4 0
6 5 11 10 11 6 0 10 -2 10 -4z m3551 -17 c40 -28 36 -39 -8 -26 -45 13 -65 26
-57 38 9 15 34 10 65 -12z m-3201 -10 c0 -5 -4 -9 -10 -9 -5 0 -10 7 -10 16 0
8 5 12 10 9 6 -3 10 -10 10 -16z m-1307 -2 c7 -6 19 -21 27 -32 11 -16 11 -17
0 -7 -21 18 -32 15 -25 -9 5 -16 3 -20 -6 -17 -8 3 -14 13 -14 24 0 10 -3 24
-7 30 -4 6 -5 14 -1 18 9 9 13 8 26 -7z m2292 4 c12 -5 25 -4 33 2 9 7 16 7
24 -1 19 -19 -34 -34 -66 -19 -42 19 -34 35 9 18z m-2700 -11 c-3 -5 -18 -10
-33 -9 -24 0 -25 1 -7 9 28 12 47 12 40 0z m912 4 c-3 -3 -12 -4 -19 -1 -8 3
-5 6 6 6 11 1 17 -2 13 -5z m343 0 c0 -3 -5 -14 -10 -25 -16 -28 -30 -23 -17
6 11 22 27 34 27 19z m-644 -26 c4 -7 3 -8 -4 -4 -7 4 -12 2 -12 -4 0 -6 -4
-8 -10 -5 -5 3 -10 10 -10 16 0 13 27 11 36 -3z m74 8 c0 -2 -8 -10 -17 -17
-16 -13 -17 -12 -4 4 13 16 21 21 21 13z m687 -22 c-9 -9 -28 6 -21 18 4 6 10
6 17 -1 6 -6 8 -13 4 -17z m63 -38 c0 -3 -7 -3 -15 0 -8 4 -13 10 -10 14 3 5
1 11 -5 15 -5 3 -10 11 -10 17 0 6 9 -1 20 -15 11 -14 20 -28 20 -31z m2760
50 c0 -11 -19 -15 -25 -6 -3 5 1 10 9 10 9 0 16 -2 16 -4z m-2990 -21 c11 -13
10 -14 -4 -9 -9 3 -16 10 -16 15 0 13 6 11 20 -6z m1223 0 c-3 -9 -8 -14 -10
-11 -3 3 -2 9 2 15 9 16 15 13 8 -4z m1833 0 c-22 -17 -36 -19 -36 -7 0 14 12
22 34 22 21 -1 21 -1 2 -15z m-2216 -15 c0 -5 -4 -10 -10 -10 -5 0 -10 5 -10
10 0 6 5 10 10 10 6 0 10 -4 10 -10z m2104 -5 c-4 -8 -1 -15 6 -15 10 0 10 -3
0 -15 -17 -21 -27 -19 -35 6 -5 14 -2 25 6 30 21 13 29 11 23 -6z m-3834 -9
c0 -2 -7 -9 -15 -16 -13 -11 -14 -10 -9 4 5 14 24 23 24 12z m200 -57 c0 -22
-4 -39 -10 -39 -5 0 -10 13 -10 28 0 15 -5 33 -11 39 -6 6 -8 16 -4 23 13 21
35 -11 35 -51z m610 53 c0 -5 -7 -9 -15 -9 -8 0 -12 4 -9 9 3 4 9 8 15 8 5 0
9 -4 9 -8z m1030 -6 c0 -8 3 -23 6 -33 4 -12 3 -14 -3 -6 -5 7 -18 14 -28 16
-11 1 -29 9 -40 16 -19 12 -19 12 2 8 13 -3 26 -1 29 4 8 14 34 10 34 -5z
m-1715 -6 c4 -6 1 -17 -5 -26 -14 -16 -40 -2 -40 22 0 16 36 19 45 4z m730 1
c3 -5 1 -12 -5 -16 -5 -3 -10 1 -10 9 0 18 6 21 15 7z m175 -7 c0 -8 -4 -12
-10 -9 -5 3 -10 10 -10 16 0 5 5 9 10 9 6 0 10 -7 10 -16z m391 -7 c-10 -9
-11 -8 -5 6 3 10 9 15 12 12 3 -3 0 -11 -7 -18z m-691 -25 c0 -15 -2 -15 -10
-2 -13 20 -13 33 0 25 6 -3 10 -14 10 -23z m3190 -8 c0 -14 -21 -19 -33 -7 -9
9 13 34 24 27 5 -3 9 -12 9 -20z m-3830 8 c0 -10 -50 -35 -57 -29 -2 3 3 12
12 21 17 17 45 22 45 8z m60 -1 c0 -5 -5 -11 -11 -13 -6 -2 -8 -14 -4 -30 5
-18 12 -25 21 -21 8 3 14 2 13 -3 -1 -5 -1 -20 0 -34 1 -18 4 -21 10 -11 15
23 19 -2 7 -38 -6 -19 -18 -36 -26 -39 -13 -3 -13 -2 0 7 8 5 11 13 7 17 -4 4
-2 13 4 20 9 10 7 15 -5 20 -9 3 -14 10 -11 14 3 5 -1 15 -9 23 -18 18 -30 62
-22 82 6 16 26 21 26 6z m504 -19 c2 -4 -6 -9 -20 -10 -13 -1 -24 3 -24 8 0
12 37 14 44 2z m3170 -17 c-4 -8 -10 -12 -15 -9 -14 8 -10 24 6 24 9 0 12 -6
9 -15z m153 -12 c2 -5 -9 -8 -27 -5 -29 4 -37 12 -24 25 8 8 47 -7 51 -20z
m-4802 7 c-3 -5 -20 -10 -36 -10 -18 0 -28 4 -24 10 3 6 20 10 36 10 18 0 28
-4 24 -10z m1515 -12 c0 -12 -3 -18 -7 -15 -3 4 -12 2 -20 -4 -19 -16 -16 1 4
23 21 23 23 23 23 -4z m3220 -9 c12 -16 20 -33 17 -36 -9 -8 -67 37 -67 53 0
24 28 15 50 -17z m-3285 11 c-3 -5 -16 -10 -28 -10 -18 0 -19 2 -7 10 20 13
43 13 35 0z m3244 -21 c25 -32 22 -51 -4 -29 -21 17 -30 6 -10 -13 20 -20 19
-27 -3 -27 -10 0 -27 -7 -38 -16 -10 -8 -13 -13 -6 -9 6 3 12 1 12 -4 0 -6 -6
-11 -13 -11 -18 0 -99 -81 -87 -87 3 -2 -3 -14 -14 -28 -10 -13 -22 -22 -26
-20 -5 3 -6 -5 -2 -17 4 -17 2 -20 -11 -15 -10 4 -17 2 -17 -3 0 -6 6 -10 13
-11 8 0 8 -2 -2 -6 -11 -5 -11 -7 0 -14 11 -7 11 -9 -2 -9 -8 0 -31 -14 -50
-30 -18 -17 -35 -27 -37 -22 -3 9 41 80 56 92 22 16 29 46 16 66 -12 18 -12
21 0 21 9 0 12 -7 8 -16 -8 -23 2 -13 43 47 20 29 54 69 75 88 22 20 45 51 52
70 6 19 14 34 18 33 3 0 16 -14 29 -30z m-3810 -6 c12 10 14 9 8 -6 -4 -10 -7
-24 -7 -30 0 -8 -4 -7 -12 1 -15 15 -32 16 -23 2 3 -5 1 -10 -5 -10 -7 0 -9 7
-6 16 3 9 6 21 6 27 0 8 3 8 12 -1 9 -9 15 -9 27 1z m535 -24 c-8 -14 -21 -11
-21 5 0 8 6 12 14 9 7 -3 10 -9 7 -14z m116 11 c0 -5 -2 -10 -4 -10 -3 0 -8 5
-11 10 -3 6 -1 10 4 10 6 0 11 -4 11 -10z m-50 -10 c0 -5 -2 -10 -4 -10 -3 0
-8 5 -11 10 -3 6 -1 10 4 10 6 0 11 -4 11 -10z m3430 0 c13 -9 12 -12 -4 -25
-23 -17 -36 -19 -36 -5 0 6 5 10 11 10 6 0 9 7 5 15 -6 17 3 19 24 5z m-340
-25 c0 -7 -7 -18 -15 -25 -8 -7 -15 -9 -15 -6 0 4 -13 -2 -29 -13 -37 -27 -39
-26 -33 4 2 15 0 25 -7 25 -7 0 -9 5 -6 10 4 6 15 8 26 5 11 -4 25 0 34 9 17
17 45 11 45 -9z m-178 -42 c-6 -18 -15 -16 -30 7 -10 16 -10 23 0 34 10 11 14
10 24 -8 6 -12 9 -27 6 -33z m-3541 10 c-8 -15 -10 -15 -11 -2 0 17 10 32 18
25 2 -3 -1 -13 -7 -23z m317 8 c10 -6 7 -10 -12 -13 -15 -3 -29 -1 -32 4 -3 4
-9 6 -14 3 -5 -3 -11 -1 -15 5 -8 12 54 13 73 1z m66 -22 c25 -12 41 -45 25
-55 -5 -3 -9 4 -9 15 0 12 -7 21 -15 21 -8 0 -15 5 -15 11 0 5 -4 7 -10 4 -5
-3 -10 -1 -10 4 0 14 3 14 34 0z m3116 5 c0 -4 -8 -13 -17 -19 -19 -14 -58 -1
-48 16 7 10 65 13 65 3z m-3020 -26 c0 -5 -9 -4 -20 2 -11 6 -20 12 -20 14 0
2 9 2 20 -1 11 -3 20 -9 20 -15z m3 -22 c26 -10 47 -23 47 -27 0 -14 -18 -11
-23 4 -2 6 -7 9 -11 6 -4 -3 -2 -18 3 -33 12 -31 -3 -36 -19 -6 -6 11 -14 19
-18 19 -31 -5 -41 3 -40 31 1 17 4 29 7 28 3 -2 27 -11 54 -22z m3043 -3 c-10
-10 -19 5 -10 18 6 11 8 11 12 0 2 -7 1 -15 -2 -18z m-3491 7 c3 -6 -1 -7 -9
-4 -18 7 -21 14 -7 14 6 0 13 -4 16 -10z m3410 0 c3 -5 1 -10 -4 -10 -6 0 -11
5 -11 10 0 6 2 10 4 10 3 0 8 -4 11 -10z m-2094 -14 c0 13 2 15 6 5 3 -8 -1
-19 -9 -25 -8 -6 -16 -14 -16 -18 -3 -13 -17 -4 -16 10 1 6 -3 12 -8 12 -6 0
-5 7 3 16 12 14 14 14 26 -2 12 -17 13 -17 14 2z m2254 4 c-3 -5 -10 -10 -16
-10 -5 0 -9 5 -9 10 0 6 7 10 16 10 8 0 12 -4 9 -10z m-115 -10 c0 -5 -4 -10
-10 -10 -5 0 -10 5 -10 10 0 6 5 10 10 10 6 0 10 -4 10 -10z m-60 -30 c-8 -5
-17 -7 -19 -4 -3 3 1 9 9 14 8 5 17 7 19 4 3 -3 -1 -9 -9 -14z m120 4 c0 -8
-32 -33 -42 -34 -5 0 -8 5 -8 10 0 6 7 10 15 10 8 0 15 5 15 10 0 6 5 10 10
10 6 0 10 -3 10 -6z m1008 -47 c4 -20 -57 -51 -83 -41 -24 10 -15 49 12 49 12
0 25 4 29 8 13 13 39 3 42 -16z m-3038 -7 c0 -5 -5 -10 -11 -10 -5 0 -7 5 -4
10 3 6 8 10 11 10 2 0 4 -4 4 -10z m-40 -60 c-16 -31 -23 -18 -8 15 7 15 14
23 16 17 2 -6 -2 -21 -8 -32z m1990 30 c0 -5 -7 -10 -15 -10 -8 0 -15 5 -15
10 0 6 7 10 15 10 8 0 15 -4 15 -10z m-1935 -10 c3 -5 1 -10 -4 -10 -6 0 -11
5 -11 10 0 6 2 10 4 10 3 0 8 -4 11 -10z m2285 -12 c0 -8 -16 -14 -40 -16 -51
-3 -53 15 -2 21 20 2 38 4 40 5 1 1 2 -4 2 -10z m60 2 c0 -5 -12 -10 -26 -10
-14 0 -23 4 -19 10 3 6 15 10 26 10 10 0 19 -4 19 -10z m-2376 -25 c-4 -8 -8
-15 -10 -15 -2 0 -4 7 -4 15 0 8 4 15 10 15 5 0 7 -7 4 -15z m2016 4 c0 -10
-27 -19 -34 -12 -11 12 -6 19 14 19 11 0 20 -3 20 -7z m788 -41 c-6 -18 -28
-21 -28 -4 0 9 7 16 16 16 9 0 14 -5 12 -12z m-451 -21 c3 -4 -14 -7 -38 -7
-24 0 -39 4 -32 8 14 9 60 8 70 -1z m787 -42 c6 -17 -29 -39 -50 -31 -12 4
-12 10 -4 26 13 23 45 27 54 5z m-2691 -23 c-10 -10 -20 -17 -22 -16 -6 5 20
34 30 34 5 0 1 -8 -8 -18z m1492 -21 c-16 -16 -31 -27 -33 -26 -8 7 20 45 29
40 5 -4 9 -1 9 4 0 6 6 11 13 11 6 0 -1 -13 -18 -29z m1043 12 c2 -8 -5 -13
-17 -13 -12 0 -21 6 -21 16 0 18 31 15 38 -3z m-5098 -23 c0 -5 -2 -10 -4 -10
-3 0 -8 5 -11 10 -3 6 -1 10 4 10 6 0 11 -4 11 -10z m4710 -50 c8 -5 11 -10 5
-10 -5 0 -2 -7 8 -14 17 -13 15 -15 -20 -19 -52 -8 -67 -6 -82 10 -10 11 -6
16 21 28 39 17 48 18 68 5z m340 -5 c0 -8 -9 -15 -20 -15 -20 0 -26 11 -13 23
12 13 33 7 33 -8z m-644 -14 c-8 -12 -46 -21 -46 -11 0 9 18 18 38 19 7 1 11
-3 8 -8z m-4571 -39 c-3 -3 -11 0 -18 7 -9 10 -8 11 6 5 10 -3 15 -9 12 -12z
m4749 -12 c22 -10 43 -17 48 -14 4 3 3 -6 -4 -21 -9 -19 -16 -24 -32 -19 -37
12 -116 56 -116 65 0 16 65 9 104 -11z m336 0 c0 -5 -7 -10 -15 -10 -8 0 -15
5 -15 10 0 6 7 10 15 10 8 0 15 -4 15 -10z m-5020 -14 c0 -11 -19 -15 -25 -6
-3 5 1 10 9 10 9 0 16 -2 16 -4z m4984 -12 c3 -8 2 -12 -4 -9 -6 3 -10 10 -10
16 0 14 7 11 14 -7z m-4927 -30 c-7 -7 -37 7 -37 17 0 6 9 5 21 -1 11 -7 19
-14 16 -16z m4988 16 c3 -5 -1 -10 -9 -10 -8 0 -18 5 -21 10 -3 6 1 10 9 10 8
0 18 -4 21 -10z m125 -30 c0 -5 -23 -10 -50 -10 -36 0 -52 -4 -56 -15 -4 -8
-10 -13 -15 -10 -17 11 4 34 34 38 63 8 87 7 87 -3z m-5026 -21 c-4 -7 -44 0
-44 7 0 2 11 3 24 2 14 -1 23 -5 20 -9z m5203 -7 c17 -11 -73 -29 -207 -42
-58 -6 -138 -18 -178 -26 -41 -9 -76 -13 -79 -11 -2 3 4 14 15 25 16 16 40 21
136 27 90 5 253 24 296 34 3 0 11 -3 17 -7z m-3577 -23 c0 -11 -4 -17 -10 -14
-5 3 -10 13 -10 21 0 8 5 14 10 14 6 0 10 -9 10 -21z m85 -19 c3 -5 -1 -10 -9
-10 -8 0 -18 5 -21 10 -3 6 1 10 9 10 8 0 18 -4 21 -10z m1290 -6 c28 -18 33
-34 11 -34 -7 0 -21 11 -30 25 -19 29 -15 31 19 9z m-2860 -33 c-3 -12 -11
-21 -16 -21 -6 0 -8 3 -6 8 2 4 7 16 11 26 9 25 20 13 11 -13z m1615 -17 c0
-6 6 -16 13 -22 17 -14 20 -57 4 -70 -16 -14 -78 23 -71 42 8 20 -26 29 -40
11 -7 -9 -16 -11 -24 -6 -21 13 3 64 26 57 10 -4 27 0 37 8 15 10 23 11 37 2
10 -6 18 -16 18 -22z m-165 15 c10 -15 -1 -23 -20 -15 -9 3 -13 10 -10 16 8
13 22 13 30 -1z m1261 -20 c-14 -11 -24 -25 -21 -30 4 -5 1 -9 -5 -9 -6 0 -9
-4 -6 -8 3 -5 -1 -9 -8 -9 -23 0 -10 38 20 58 39 25 54 24 20 -2z m-2754 -21
c-6 -6 -16 -8 -22 -6 -9 3 -7 9 6 22 13 13 19 15 22 6 2 -6 0 -16 -6 -22z
m1518 12 c0 -5 -5 -10 -11 -10 -5 0 -7 5 -4 10 3 6 8 10 11 10 2 0 4 -4 4 -10z
m-236 -15 c3 -8 12 -15 21 -15 19 0 19 -17 0 -36 -8 -9 -15 -28 -15 -44 0 -29
-19 -44 -46 -33 -11 4 -13 13 -8 37 4 17 7 42 7 56 -2 40 29 66 41 35z m1711
-4 c3 -5 1 -12 -5 -16 -5 -3 -10 1 -10 9 0 18 6 21 15 7z m1575 -5 c0 -2 -7
-9 -15 -16 -12 -10 -15 -10 -15 4 0 9 7 16 15 16 8 0 15 -2 15 -4z m-3125 -16
c3 -5 1 -10 -4 -10 -6 0 -11 5 -11 10 0 6 2 10 4 10 3 0 8 -4 11 -10z m1041
-47 c-8 -8 -56 25 -56 38 0 6 14 1 31 -11 16 -12 28 -25 25 -27z m2101 -9 c-3
-3 -12 -4 -19 -1 -8 3 -5 6 6 6 11 1 17 -2 13 -5z m-2887 -34 c0 -5 -4 -10
-10 -10 -5 0 -10 5 -10 10 0 6 5 10 10 10 6 0 10 -4 10 -10z m1555 -61 c12
-19 -5 -23 -22 -6 -16 16 -16 17 -1 17 9 0 20 -5 23 -11z m-281 -48 c-2 -3
-12 3 -22 13 -16 17 -16 18 5 5 12 -7 20 -15 17 -18z m-1298 -16 c-26 -20 -41
-7 -20 16 13 14 21 16 28 9 8 -8 6 -15 -8 -25z m282 3 c19 -19 14 -30 -10 -26
-13 2 -24 11 -26 21 -4 20 18 23 36 5z m2026 -9 c-10 -4 -32 -7 -49 -7 -28 0
-28 1 10 13 41 13 74 8 39 -6z m-739 -37 c-3 -3 -11 0 -18 7 -9 10 -8 11 6 5
10 -3 15 -9 12 -12z m-730 -52 c-3 -5 -13 -10 -21 -10 -8 0 -14 5 -14 10 0 6
9 10 21 10 11 0 17 -4 14 -10z m-185 -30 c0 -5 -7 -10 -15 -10 -8 0 -15 5 -15
10 0 6 7 10 15 10 8 0 15 -4 15 -10z m-40 -40 c0 -5 -7 -10 -15 -10 -8 0 -15
5 -15 10 0 6 7 10 15 10 8 0 15 -4 15 -10z m-60 -15 c0 -9 -7 -18 -15 -21 -8
-4 -15 -15 -15 -25 0 -11 -7 -19 -17 -19 -13 0 -14 3 -5 12 16 16 15 28 -3 28
-20 0 -19 17 3 29 26 15 52 13 52 -4z m-100 -79 c0 -16 -18 -31 -27 -22 -8 8
5 36 17 36 5 0 10 -6 10 -14z"/>
<path d="M4310 2482 c-14 -24 -14 -30 -1 -54 12 -21 82 -68 102 -68 2 0 4 14
3 30 -1 40 -20 60 -29 31 -3 -12 -11 -21 -16 -21 -13 0 -11 24 3 38 9 9 5 13
-19 18 -29 6 -31 9 -23 30 13 33 -1 30 -20 -4z"/>
<path d="M4525 2432 c-11 -2 -24 -10 -28 -18 -4 -8 -15 -14 -22 -14 -18 0 -20
-17 -4 -22 9 -3 9 -10 0 -26 -10 -18 -9 -22 3 -22 9 0 13 6 10 14 -6 15 37 47
67 49 19 1 28 17 10 17 -5 0 -11 6 -13 13 -2 7 -12 11 -23 9z"/>
<path d="M4956 2336 c3 -8 13 -17 21 -20 25 -10 23 -3 -3 17 -18 13 -22 14
-18 3z"/>
<path d="M2945 2390 c3 -5 8 -10 11 -10 2 0 4 5 4 10 0 6 -5 10 -11 10 -5 0
-7 -4 -4 -10z"/>
<path d="M2726 2282 c-8 -8 26 -31 47 -32 10 0 17 5 15 12 -5 13 -53 29 -62
20z"/>
<path d="M3780 2204 c14 -10 29 -23 33 -28 4 -6 7 0 5 13 -2 19 -10 25 -33 28
l-30 4 25 -17z"/>
<path d="M1768 2193 c6 -2 18 -2 25 0 6 3 1 5 -13 5 -14 0 -19 -2 -12 -5z"/>
<path d="M4792 2081 c-11 -7 -11 -9 2 -14 10 -4 16 -1 16 8 0 17 -1 17 -18 6z"/>
<path d="M2895 2040 c-3 -5 1 -10 10 -10 9 0 13 5 10 10 -3 6 -8 10 -10 10 -2
0 -7 -4 -10 -10z"/>
<path d="M2970 2030 c0 -5 5 -10 11 -10 5 0 7 5 4 10 -3 6 -8 10 -11 10 -2 0
-4 -4 -4 -10z"/>
<path d="M5210 2018 c0 -4 4 -8 9 -8 6 0 12 4 15 8 3 5 -1 9 -9 9 -8 0 -15 -4
-15 -9z"/>
<path d="M1740 1880 c0 -5 5 -10 11 -10 5 0 7 5 4 10 -3 6 -8 10 -11 10 -2 0
-4 -4 -4 -10z"/>
<path d="M1965 1280 c-3 -5 1 -10 10 -10 9 0 13 5 10 10 -3 6 -8 10 -10 10 -2
0 -7 -4 -10 -10z"/>
</g>
</svg>
