<?xml version="1.0" standalone="no"?>
<!DOCTYPE svg PUBLIC "-//W3C//DTD SVG 20010904//EN"
 "http://www.w3.org/TR/2001/REC-SVG-20010904/DTD/svg10.dtd">
<svg version="1.0" xmlns="http://www.w3.org/2000/svg"
 width="626.000000pt" height="626.000000pt" viewBox="0 0 626.000000 626.000000"
 preserveAspectRatio="xMidYMid meet">

<g transform="translate(0.000000,626.000000) scale(0.100000,-0.100000)"
fill="#000000" stroke="none">
<path d="M2955 5203 c-16 -3 -35 -9 -42 -15 -17 -14 -124 -27 -116 -15 4 6 -1
8 -11 4 -10 -4 -20 -7 -22 -7 -2 0 -4 -4 -4 -9 0 -14 58 -31 106 -31 24 0 46
-5 50 -11 3 -6 15 -9 25 -6 10 3 22 1 25 -4 3 -5 19 -9 36 -9 25 0 29 -3 25
-19 -7 -29 25 -32 58 -5 29 23 29 24 10 38 -19 14 -19 15 15 29 l35 15 -47 7
c-28 4 -54 3 -66 -4 -25 -14 -122 -15 -122 -1 0 13 34 30 59 30 11 0 23 5 26
10 3 6 3 9 -2 9 -4 -1 -21 -4 -38 -6z"/>
<path d="M2492 5192 c-13 -4 -23 -11 -22 -17 1 -5 -16 -15 -37 -22 l-38 -11
50 -1 c28 -1 56 -5 64 -10 14 -9 116 10 129 24 4 4 -23 5 -60 2 -69 -5 -84 3
-56 31 13 13 6 14 -30 4z"/>
<path d="M3560 5167 c0 -9 -6 -17 -12 -20 -7 -2 8 -4 33 -4 25 0 51 -3 57 -7
26 -16 9 -26 -43 -26 -30 0 -55 -4 -55 -8 0 -5 14 -7 30 -4 45 6 88 -14 88
-43 0 -19 -9 -27 -46 -39 -25 -9 -53 -16 -63 -16 -9 0 -30 -7 -45 -15 -27 -14
-28 -15 -6 -15 13 0 32 5 43 11 15 8 33 6 72 -7 36 -12 52 -14 55 -5 2 6 12
11 23 11 10 0 19 5 19 10 0 6 7 10 15 10 18 0 19 12 4 27 -8 8 -5 14 11 23 22
12 21 13 -21 33 -43 20 -43 21 -16 25 16 2 42 -1 59 -7 44 -16 53 -14 35 7
-12 13 -26 17 -46 14 -16 -2 -37 1 -48 6 -17 10 -16 11 7 21 27 11 22 12 -55
16 -27 1 -60 5 -72 9 -17 5 -23 3 -23 -7z"/>
<path d="M3259 5141 c-20 -11 -54 -23 -75 -27 -56 -10 -64 -18 -24 -24 23 -4
34 -10 32 -19 -2 -8 1 -17 6 -20 5 -3 14 -15 21 -26 9 -15 11 -16 7 -2 -4 14
1 17 27 18 l32 1 -27 9 c-29 11 -29 26 1 64 12 14 26 19 51 17 33 -2 34 -1 16
13 -25 19 -24 19 -67 -4z"/>
<path d="M3475 5140 l-20 -9 20 0 c11 0 29 4 40 9 l20 9 -20 0 c-11 0 -29 -4
-40 -9z"/>
<path d="M2210 5130 c-8 -5 -11 -12 -7 -16 4 -4 15 0 24 9 18 18 8 23 -17 7z"/>
<path d="M2748 5108 c-36 -13 -35 -25 2 -30 23 -3 27 -2 19 8 -7 9 -5 15 8 23
22 13 7 13 -29 -1z"/>
<path d="M2015 5055 c-49 -24 -84 -44 -77 -44 20 -1 151 57 168 74 24 23 6 18
-91 -30z"/>
<path d="M2328 5088 c-44 -9 -67 -28 -34 -28 17 0 86 28 86 35 0 3 -1 4 -2 4
-2 -1 -24 -6 -50 -11z"/>
<path d="M3358 5093 c-24 -3 -38 -9 -38 -18 0 -20 19 -29 34 -16 10 8 22 8 40
1 36 -13 154 -14 140 0 -5 5 -32 14 -59 19 -28 5 -57 11 -65 14 -8 2 -32 2
-52 0z"/>
<path d="M3855 5090 c3 -5 8 -10 11 -10 2 0 4 5 4 10 0 6 -5 10 -11 10 -5 0
-7 -4 -4 -10z"/>
<path d="M3940 5086 c0 -2 7 -7 16 -10 8 -3 12 -2 9 4 -6 10 -25 14 -25 6z"/>
<path d="M3995 5050 c13 -12 17 -12 31 1 14 15 13 16 -15 15 -26 -1 -28 -3
-16 -16z"/>
<path d="M2615 5051 c-6 -11 9 -23 19 -14 9 9 7 23 -3 23 -6 0 -12 -4 -16 -9z"/>
<path d="M2723 5013 c-12 -13 -18 -25 -14 -27 13 -8 44 19 40 35 -3 11 -9 9
-26 -8z"/>
<path d="M2818 5014 c-18 -10 -19 -12 -3 -17 9 -4 26 -2 37 4 11 6 33 9 49 7
17 -3 29 0 29 6 0 14 -85 14 -112 0z"/>
<path d="M2661 5003 c-1 -17 -39 -36 -54 -26 -16 10 -50 12 -40 2 29 -29 113
-10 100 23 -4 9 -6 9 -6 1z"/>
<path d="M3970 4999 c0 -8 -29 -9 -97 -4 -90 7 -97 6 -84 -9 7 -9 28 -16 45
-16 37 0 106 -18 123 -32 21 -17 3 -38 -32 -38 l-33 0 29 -30 c17 -16 28 -34
25 -38 -3 -5 13 -16 34 -26 72 -31 88 -66 32 -66 -37 0 -95 37 -88 55 3 9 -1
15 -9 15 -8 0 -17 0 -20 0 -2 1 -18 14 -35 31 -16 17 -34 28 -40 24 -5 -3 -11
-1 -11 4 -1 6 -2 17 -3 24 -1 6 2 17 6 24 12 15 -1 20 -37 14 -24 -5 -30 -11
-30 -31 0 -18 -6 -26 -21 -28 -25 -4 -55 23 -48 41 3 9 -13 12 -55 12 -54 0
-58 -2 -45 -16 25 -28 17 -42 -23 -37 -26 3 -42 -1 -55 -14 -10 -10 -32 -18
-53 -18 -43 0 -43 -20 0 -37 41 -16 68 -16 60 0 -4 6 0 3 9 -8 8 -11 20 -25
25 -31 5 -7 7 -15 4 -18 -4 -3 -1 -6 4 -6 6 0 14 6 17 13 5 10 7 10 12 0 3 -7
10 -13 15 -13 6 0 8 4 5 9 -3 5 2 15 11 22 15 12 16 12 11 -3 -5 -11 0 -18 12
-21 11 -3 29 -25 41 -48 11 -24 35 -53 53 -65 17 -11 30 -28 30 -37 -1 -9 2
-14 7 -11 5 3 9 1 9 -5 0 -5 -4 -13 -10 -16 -5 -3 -10 -18 -10 -33 -1 -15 -7
-38 -15 -52 -12 -22 -11 -27 5 -45 22 -25 34 -61 21 -69 -5 -3 -21 7 -34 24
-30 35 -37 37 -37 9 0 -13 -5 -19 -12 -15 -7 3 -20 9 -29 12 -10 3 -19 22 -23
43 -6 39 2 111 13 111 16 0 8 79 -9 95 -15 14 -20 14 -46 0 -16 -8 -36 -15
-44 -15 -10 -1 -7 -8 11 -24 29 -25 42 -61 44 -124 2 -42 1 -43 -24 -37 -20 4
-22 3 -11 -5 11 -7 11 -10 2 -10 -10 0 -10 -5 -2 -20 7 -12 7 -20 1 -20 -12 0
-21 13 -26 37 -8 43 -11 48 -29 56 -25 10 -33 1 -19 -22 9 -15 7 -22 -10 -40
-21 -22 -21 -22 -2 -19 12 2 19 -2 17 -9 -1 -7 5 -13 13 -13 8 0 15 -5 15 -11
0 -5 4 -8 9 -5 4 3 6 -6 3 -20 -4 -22 -8 -24 -38 -18 -22 4 -34 2 -34 -5 0
-18 -45 8 -55 32 -7 15 -21 23 -42 25 -24 2 -34 10 -42 30 -6 17 -10 21 -10
10 -1 -10 -5 -18 -9 -18 -4 0 -16 -14 -27 -32 -16 -28 -19 -30 -25 -13 -7 19
-7 19 -18 0 -6 -11 -14 -20 -19 -19 -24 3 -43 -11 -52 -37 -5 -16 -16 -29 -23
-29 -10 0 -10 -2 1 -9 9 -6 12 -19 8 -40 -4 -17 -3 -31 2 -31 12 0 20 -50 14
-83 -3 -15 -18 -41 -33 -57 -22 -23 -29 -43 -35 -95 -3 -36 -11 -65 -15 -65
-5 0 -11 26 -13 58 l-3 57 -2 -63 c-2 -62 -2 -63 -38 -78 -34 -14 -94 -27 -94
-20 0 14 54 95 65 100 17 6 21 66 5 66 -6 0 -20 -20 -32 -45 -17 -35 -24 -42
-31 -30 -11 20 18 108 40 127 10 8 14 8 10 1 -14 -24 11 -22 27 2 19 29 20 81
2 114 l-13 24 -6 -25 c-4 -14 -23 -49 -42 -78 -19 -29 -35 -58 -34 -64 5 -45
-2 -66 -23 -66 -19 0 -20 -2 -8 -11 11 -8 12 -12 2 -16 -6 -2 -9 -10 -5 -16 4
-7 0 -6 -10 1 -14 12 -21 11 -49 -2 -18 -9 -64 -21 -102 -27 -79 -11 -73 -8
-78 -33 -2 -14 4 -22 22 -26 23 -7 23 -7 -10 -13 -19 -3 -120 -9 -225 -12
-159 -5 -192 -8 -202 -22 -7 -9 -10 -19 -8 -24 3 -4 1 -10 -5 -14 -5 -3 -10
-2 -10 3 0 5 -11 10 -25 10 -14 0 -25 -4 -25 -9 0 -5 -6 -9 -14 -9 -8 0 -17
-6 -19 -12 -3 -7 -6 -4 -6 6 -1 18 -4 17 -29 -7 l-29 -28 -11 23 -11 23 0 -26
c-1 -27 -32 -64 -44 -52 -4 3 -7 -4 -7 -16 0 -12 -4 -19 -10 -16 -6 4 -7 11
-4 17 4 7 2 8 -4 4 -7 -4 -12 -19 -12 -34 0 -21 -2 -24 -10 -12 -5 8 -7 24 -4
36 3 13 1 21 -8 21 -10 0 -13 -11 -11 -35 2 -26 -3 -39 -17 -49 -11 -8 -20
-19 -20 -25 0 -6 8 -3 19 6 16 15 19 15 24 1 4 -10 20 -15 49 -16 39 -1 37 -2
-27 -15 -38 -8 -117 -21 -175 -29 -107 -15 -324 -64 -317 -71 2 -3 53 3 113
12 98 15 227 14 242 -1 3 -2 -1 -11 -7 -19 -10 -12 -1 -28 51 -87 35 -39 73
-78 84 -86 20 -13 24 -12 44 17 12 17 19 34 16 38 -4 3 -11 0 -16 -8 -8 -12
-10 -11 -10 5 0 14 18 33 54 57 44 30 67 38 124 43 59 6 71 5 79 -9 5 -9 22
-20 38 -24 16 -5 32 -18 37 -31 8 -23 7 -23 -29 -18 -40 7 -77 41 -69 64 12
31 -53 7 -91 -34 -28 -30 -44 -107 -20 -98 8 4 18 2 21 -3 3 -5 -1 -9 -10 -8
-9 0 -20 -10 -25 -22 -7 -20 -5 -25 11 -29 11 -3 20 -10 20 -15 0 -5 5 -6 11
-2 8 4 8 0 0 -15 -14 -25 -46 -28 -55 -5 -3 9 -6 38 -6 65 0 29 -4 48 -9 44
-5 -3 -13 -1 -16 5 -20 33 -53 -63 -47 -136 3 -29 1 -30 -25 -27 -20 3 -34 -1
-44 -13 -8 -11 -9 -15 -2 -10 9 5 12 0 11 -18 -3 -30 -1 -29 -51 -15 -40 11
-42 29 -2 29 21 0 23 3 18 43 -3 23 -7 44 -9 46 -2 2 11 15 27 28 16 14 29 28
27 32 -5 12 -137 131 -145 131 -5 0 -8 -30 -8 -67 0 -67 0 -68 -35 -85 -19 -9
-45 -17 -57 -18 -12 0 -34 -11 -49 -24 l-28 -23 23 -12 c12 -7 29 -10 37 -7 8
3 14 0 14 -6 0 -7 6 -3 14 7 14 19 15 19 35 1 21 -19 26 -41 15 -69 -4 -12
-10 -10 -28 8 -13 13 -42 33 -66 45 -38 20 -46 20 -92 9 -50 -13 -63 -25 -132
-114 -31 -40 -94 -74 -140 -75 -21 0 -27 4 -22 15 12 31 -4 46 -42 39 -23 -5
-33 -3 -29 4 4 5 0 13 -9 16 -9 3 -12 11 -8 18 5 7 -9 0 -29 -15 -20 -15 -37
-23 -37 -18 0 6 9 15 20 21 11 6 20 14 20 19 0 13 -57 6 -76 -9 -14 -12 -18
-12 -30 5 -11 15 -29 19 -83 21 -69 3 -69 3 -80 -28 -6 -17 -11 -39 -11 -49 0
-11 -7 -19 -15 -19 -8 0 -15 -9 -15 -20 0 -10 -8 -24 -17 -29 -10 -6 -13 -11
-7 -11 5 0 19 7 30 15 24 18 34 19 34 1 0 -15 88 -106 102 -106 5 0 25 7 46
16 24 10 33 11 25 3 -7 -7 -13 -19 -13 -26 0 -17 63 -8 135 18 28 10 91 28
140 40 50 11 128 32 173 45 127 36 286 50 427 36 84 -8 123 -8 137 -1 14 8 18
8 14 0 -8 -12 24 -30 42 -24 6 3 10 9 6 14 -3 5 0 9 7 9 19 0 182 51 195 62 6
4 48 14 93 20 64 10 84 10 90 0 9 -14 163 -32 288 -32 79 0 92 -2 95 -17 3
-15 17 -17 105 -18 142 0 147 -10 40 -79 -103 -66 -297 -213 -315 -238 -7 -10
-19 -18 -26 -18 -7 0 -21 -9 -31 -20 -10 -11 -24 -20 -30 -20 -25 0 -65 -43
-90 -93 -13 -29 -20 -53 -15 -55 5 -2 12 -19 16 -38 3 -19 14 -40 24 -47 11
-7 21 -32 25 -60 7 -46 7 -47 -19 -47 -17 0 -42 15 -70 40 -24 23 -46 37 -48
33 -3 -4 -3 -2 -1 6 3 13 -248 280 -274 291 -6 3 -21 17 -33 33 l-22 27 -25
-20 c-14 -11 -31 -20 -38 -20 -6 0 -17 -11 -23 -25 -6 -14 -16 -25 -22 -25 -5
0 -10 -7 -10 -15 0 -18 17 -20 22 -3 3 8 9 8 24 -1 10 -7 12 -11 4 -8 -8 2
-24 -5 -34 -16 -16 -17 -17 -19 -3 -14 18 7 23 -16 11 -47 -5 -14 -8 -14 -30
1 -13 8 -24 12 -24 7 0 -4 -5 -3 -11 3 -6 6 -18 9 -25 6 -8 -3 -14 0 -14 7 0
6 -5 8 -10 5 -5 -3 -10 -2 -10 3 0 6 -15 19 -32 30 -30 19 -34 20 -50 5 -10
-9 -17 -21 -16 -27 1 -6 -1 -28 -6 -49 -7 -38 -8 -38 -31 -23 -30 20 -41 21
-26 2 9 -11 8 -15 -5 -20 -8 -3 -14 -12 -12 -18 5 -14 -15 -38 -31 -38 -6 0
-11 5 -11 11 0 5 6 7 13 4 6 -4 3 1 -7 9 -12 9 -14 16 -7 16 16 0 10 42 -8 48
-9 3 -11 -2 -7 -19 3 -13 3 -18 0 -11 -7 16 -44 16 -44 0 0 -7 16 -26 36 -44
30 -25 35 -34 27 -49 -10 -17 -11 -17 -17 3 -4 12 -16 22 -26 22 -10 0 -22 9
-25 20 -7 23 -16 25 -34 8 -8 -7 -11 -8 -8 -2 7 12 -19 54 -33 54 -5 0 -6 -8
-3 -17 5 -12 2 -15 -10 -10 -22 8 -29 -5 -29 -60 l0 -46 -37 43 c-32 37 -38
41 -44 26 -6 -15 -10 -16 -22 -6 -12 10 -18 10 -31 -1 -13 -10 -17 -10 -24 0
-13 22 -30 2 -30 -37 0 -29 -3 -34 -11 -22 -8 12 -9 9 -5 -12 3 -14 8 -34 12
-45 3 -10 -7 2 -21 27 -14 25 -23 36 -19 25 12 -37 14 -106 3 -99 -14 8 -29
-14 -29 -43 0 -27 -16 -29 -42 -6 -17 15 -19 15 -36 -3 -10 -10 -21 -27 -25
-37 -6 -16 -9 -17 -22 -4 -8 8 -16 27 -19 43 -3 15 -10 32 -16 38 -13 13 -13
26 0 26 6 0 10 -7 10 -16 0 -8 4 -13 9 -10 4 3 13 -6 20 -20 12 -27 24 -25 41
7 8 14 8 19 -1 17 -14 -4 -21 24 -19 77 1 22 2 46 3 53 1 20 44 15 44 -6 -1
-49 4 -73 13 -67 6 3 10 0 11 -7 0 -10 29 41 34 62 17 68 17 72 -4 94 -12 12
-18 26 -14 30 4 4 -3 9 -15 13 -16 4 -21 11 -17 24 3 10 0 27 -6 38 -10 16
-10 23 2 38 13 17 13 17 -6 3 -11 -8 -30 -25 -43 -38 -21 -22 -21 -23 -2 -17
16 5 20 2 20 -15 0 -27 -17 -60 -31 -60 -6 0 -9 6 -6 13 2 6 1 20 -2 31 -6 14
-15 2 -39 -53 -43 -95 -54 -153 -50 -251 2 -44 1 -80 -3 -80 -12 0 -27 23 -23
35 3 7 -8 26 -23 43 -44 47 -52 59 -45 67 4 4 2 5 -4 3 -13 -3 -74 68 -74 86
0 6 5 3 11 -7 13 -22 33 -22 24 1 -4 9 -8 22 -8 29 0 8 -5 8 -17 0 -13 -8 -18
-26 -19 -71 -1 -45 -6 -65 -21 -81 -11 -12 -20 -29 -20 -39 0 -14 -5 -17 -21
-13 -28 7 -33 -12 -16 -61 14 -40 14 -41 -4 -31 -21 11 -43 3 -34 -12 4 -5 0
-9 -7 -9 -10 0 -9 -3 1 -9 12 -8 10 -11 -10 -16 -14 -3 -37 -4 -51 -1 -23 4
-28 -1 -42 -38 -29 -76 -21 -97 42 -119 l42 -15 7 27 c3 14 20 43 37 63 26 31
37 38 69 38 20 0 37 -4 37 -8 0 -5 9 -8 21 -7 13 1 29 16 43 41 25 44 63 63
98 47 22 -9 21 -11 -17 -23 -52 -16 -56 -21 -65 -68 l-7 -40 36 -5 c33 -4 41
1 97 59 42 44 69 64 85 64 21 -1 20 -2 -9 -15 -20 -9 -44 -33 -64 -65 -31 -50
-42 -63 -32 -35 11 27 -6 16 -26 -17 -31 -50 -27 -84 11 -97 59 -20 89 -14
123 25 17 20 50 56 74 80 34 35 43 50 40 73 -3 28 16 61 34 61 6 0 23 -9 38
-20 l29 -20 3 22 c4 22 5 21 12 -5 11 -38 2 -43 -39 -22 -41 23 -51 16 -37
-24 9 -25 7 -38 -12 -73 -26 -49 -20 -88 13 -88 37 0 48 10 43 40 -3 20 5 42
28 75 18 26 34 64 37 85 3 22 8 38 12 37 3 -1 21 4 38 12 29 12 37 11 69 -4
54 -25 126 -16 188 23 28 18 58 32 68 32 10 0 18 5 18 12 0 7 6 6 18 -4 9 -8
42 -22 74 -31 44 -14 61 -15 81 -6 20 9 33 6 76 -16 29 -14 81 -29 115 -34 79
-9 116 -31 116 -70 0 -15 9 -36 20 -46 24 -21 26 -41 5 -49 -8 -3 -15 -12 -15
-21 0 -9 -10 -19 -22 -24 -15 -5 0 -8 45 -7 37 1 67 4 67 9 0 4 11 7 24 7 13
0 26 5 28 11 2 5 11 7 21 4 9 -4 15 -11 12 -15 -7 -11 32 -23 46 -14 15 9 235
16 484 17 l199 0 11 -54 c9 -46 8 -58 -8 -86 -10 -17 -20 -44 -23 -59 -8 -46
-14 -41 -15 12 -1 27 -3 41 -6 32 -2 -10 -8 -18 -11 -18 -4 0 -13 -14 -20 -30
-16 -36 -32 -30 -32 11 0 37 -14 37 -30 -1 -15 -36 -27 -38 -42 -5 -15 33 -28
22 -29 -23 0 -20 -4 -46 -9 -57 -6 -15 -9 -8 -9 28 -1 26 -5 47 -11 47 -5 0
-10 -6 -10 -12 0 -10 -3 -9 -9 1 -7 11 -10 9 -16 -9 -6 -18 -9 -20 -16 -9 -7
11 -9 11 -9 1 0 -7 -4 -11 -9 -8 -5 4 -12 0 -15 -6 -3 -7 -3 3 0 22 5 33 4 34
-11 16 -11 -15 -15 -16 -17 -5 -1 8 -4 -11 -7 -41 l-6 -55 -14 40 c-14 41 -35
74 -29 45 2 -10 -3 -14 -14 -12 -13 2 -18 -4 -18 -22 0 -40 -17 -39 -25 2 l-8
37 -10 -35 -9 -35 -11 25 -10 25 -4 -23 c-3 -12 -9 -20 -14 -17 -5 4 -9 -1 -9
-10 0 -9 -4 -13 -10 -10 -6 4 -10 -7 -10 -24 0 -17 -4 -31 -9 -31 -5 0 -12
-10 -14 -22 -2 -13 -5 -3 -6 22 -1 25 -4 56 -8 69 -5 20 -10 13 -29 -45 -13
-38 -20 -77 -17 -88 3 -11 1 -16 -5 -12 -6 4 -14 28 -18 54 l-8 47 -9 -38 c-5
-20 -13 -37 -17 -37 -4 0 -6 8 -3 18 3 12 -1 19 -11 19 -9 0 -16 -7 -16 -16 0
-9 -9 -43 -19 -76 l-18 -60 -11 40 c-6 22 -12 49 -15 60 -3 18 -5 17 -15 -8
-9 -20 -9 -34 -2 -48 7 -13 7 -19 1 -19 -6 0 -13 -11 -17 -25 -3 -13 -12 -29
-19 -35 -16 -13 -26 -1 -37 50 -5 25 -6 20 -2 -20 3 -30 6 -71 8 -90 2 -19 1
-27 -1 -17 -2 9 -8 17 -13 17 -5 0 -12 15 -16 32 -6 29 -8 30 -14 13 -7 -18
-8 -18 -15 7 -4 15 -14 33 -22 39 -12 11 -13 9 -4 -12 5 -13 12 -37 16 -52 5
-23 9 -26 20 -17 10 9 15 7 20 -9 7 -24 -2 -61 -16 -61 -5 0 -9 -8 -9 -17 -1
-17 -1 -17 -14 -1 -7 10 -15 15 -19 12 -3 -3 -4 10 -3 28 3 36 -17 77 -29 59
-3 -6 -1 -11 4 -11 6 0 11 -7 11 -15 0 -8 -5 -15 -11 -15 -6 0 -8 -7 -5 -15 3
-9 -1 -18 -9 -21 -8 -4 -15 -14 -15 -24 0 -11 -4 -22 -10 -25 -6 -3 -7 1 -4 9
3 9 3 24 -2 34 -4 9 -8 24 -9 33 -1 9 -5 28 -9 43 -4 18 -3 25 4 21 5 -3 10
-13 10 -21 0 -8 5 -14 10 -14 13 0 12 11 -4 33 -18 24 -36 21 -36 -5 -1 -22
-1 -23 -15 -4 -22 28 -18 3 4 -38 17 -30 18 -36 5 -46 -8 -7 -14 -9 -14 -5 0
4 -11 0 -25 -9 -17 -11 -25 -13 -25 -4 0 6 -7 3 -15 -8 -9 -12 -14 -14 -15 -6
0 7 -5 10 -10 7 -8 -5 -7 -11 1 -21 6 -8 7 -14 2 -14 -5 0 -16 11 -23 25 -14
27 -36 35 -26 10 15 -38 16 -47 1 -22 -9 16 -14 35 -11 43 3 7 0 16 -6 20 -6
4 -8 3 -5 -3 4 -6 0 -14 -9 -17 -9 -4 -14 -13 -10 -22 3 -8 2 -12 -4 -9 -6 3
-10 -2 -10 -12 -1 -17 -1 -17 -15 1 -16 22 -35 13 -35 -17 -1 -20 -2 -19 -16
6 -12 23 -18 26 -30 16 -8 -6 -14 -23 -15 -38 0 -22 -2 -20 -15 14 -8 22 -17
47 -20 55 -4 9 -12 -4 -21 -35 l-15 -50 -20 25 -21 25 6 -43 c3 -24 3 -41 -1
-37 -3 3 -9 27 -12 52 -3 27 -11 48 -19 51 -10 3 -12 -1 -9 -14 12 -45 -63
-58 -77 -13 -5 15 -10 17 -19 10 -7 -6 -17 -7 -21 -3 -5 4 -5 1 -1 -6 4 -7 11
-10 16 -7 4 3 11 -7 14 -23 4 -15 9 -36 12 -47 3 -11 -6 -3 -20 18 -15 20 -31
37 -37 37 -6 0 -8 4 -5 9 3 5 -1 11 -9 15 -8 3 -15 0 -15 -7 1 -14 25 -48 31
-43 2 2 5 -11 6 -30 4 -51 -21 -44 -61 18 -20 31 -33 36 -33 12 0 -8 14 -26
30 -40 37 -31 30 -42 -8 -12 -28 21 -65 32 -65 18 0 -10 32 -36 36 -30 1 3 6
2 10 -3 4 -4 -2 -7 -14 -7 -25 0 -64 29 -56 42 3 4 0 8 -5 8 -6 0 -11 -5 -11
-11 0 -5 -6 -7 -12 -3 -7 4 -4 -3 7 -16 l20 -23 -20 6 c-11 4 -33 8 -50 11
-16 3 -61 10 -98 17 -37 6 -70 9 -73 6 -12 -12 93 -50 199 -72 351 -74 824
-98 2327 -114 948 -11 1311 -2 1495 35 85 18 115 36 108 64 -10 38 -110 71
-260 85 -40 4 -73 11 -73 15 0 5 16 14 35 20 19 6 40 20 45 31 6 10 16 19 24
19 21 0 109 107 100 122 -3 4 -10 6 -15 2 -5 -3 -6 -11 -2 -17 4 -7 0 -6 -10
2 -9 7 -17 10 -18 5 0 -5 -4 0 -8 11 -7 18 -9 17 -25 -10 -10 -17 -15 -22 -12
-12 3 9 1 17 -4 17 -6 0 -10 -4 -10 -10 0 -19 -18 -10 -24 12 -5 22 -6 22 -20
3 -15 -19 -15 -19 -17 10 -1 24 -3 25 -6 8 -5 -25 -47 -33 -56 -10 -3 7 -6 5
-6 -5 -1 -14 -5 -13 -26 8 -14 14 -25 33 -25 42 0 15 -2 15 -10 2 -11 -17 -30
-20 -47 -7 -9 7 -13 4 -14 -9 0 -11 -6 -5 -13 16 -7 19 -11 41 -8 48 2 6 -1
12 -7 12 -6 0 -11 -5 -11 -12 0 -6 -3 -8 -7 -5 -3 4 -1 17 6 30 7 13 11 39 9
58 -3 31 -5 28 -21 -31 -20 -75 -20 -77 -35 -110 -6 -14 -11 -19 -11 -12 -1 6
0 13 1 15 1 1 -4 12 -10 24 -9 16 -9 22 0 25 6 2 9 10 6 18 -2 8 -12 1 -25
-20 l-22 -34 -11 26 c-10 21 -9 34 4 70 10 27 14 32 10 13 -7 -36 -7 -35 -5
-59 1 -17 3 -16 20 6 11 13 29 51 40 83 24 69 24 68 11 60 -5 -3 -11 -16 -11
-28 -1 -17 -2 -18 -6 -4 -2 9 5 32 16 51 12 19 18 41 15 50 -4 10 0 18 10 22
16 6 24 66 9 62 -13 -4 -53 26 -53 38 0 21 -34 54 -60 57 -14 2 -27 12 -28 21
-4 18 5 17 54 -1 7 -2 15 0 18 6 5 7 15 7 33 0 15 -6 39 -7 53 -3 14 4 31 8
38 10 20 4 90 54 95 67 2 7 4 28 3 47 -1 27 -5 35 -18 34 -10 -1 -18 2 -18 8
0 5 -4 6 -10 3 -5 -3 -10 1 -10 9 0 16 16 22 22 9 2 -5 17 -15 34 -24 26 -14
32 -14 30 -3 -4 24 -45 73 -76 89 -38 19 -149 55 -173 55 -11 0 -15 5 -11 11
4 8 26 10 65 5 32 -3 60 -2 63 3 3 5 36 8 73 8 50 0 73 -4 88 -17 23 -21 72
-23 98 -5 14 10 26 11 49 3 24 -9 36 -7 58 6 16 9 37 16 48 16 12 0 24 4 27
10 3 6 1 10 -4 10 -6 0 -11 5 -11 10 0 6 12 10 28 10 17 1 43 15 74 43 58 53
86 105 80 149 l-5 33 -18 -40 c-9 -22 -25 -59 -35 -82 -21 -53 -35 -56 -23 -5
5 20 14 59 19 86 10 48 20 72 20 48 0 -18 18 -14 29 6 17 32 20 70 9 108 -13
48 -31 67 -47 51 -10 -9 -11 -2 -7 32 8 70 -29 182 -55 166 -11 -7 8 -78 24
-90 10 -7 15 -33 16 -80 1 -39 6 -85 12 -103 6 -18 8 -36 5 -39 -3 -4 -6 -1
-6 5 0 7 -5 12 -11 12 -7 0 -8 -24 -4 -76 6 -58 5 -75 -4 -70 -7 4 -11 15 -10
24 1 10 -1 29 -6 45 -6 22 -10 25 -21 16 -18 -14 -17 -1 0 31 12 21 12 29 -1
54 -13 26 -13 30 2 45 15 15 16 15 9 -1 -3 -10 -1 -18 4 -18 6 0 14 16 18 36
5 30 2 40 -19 62 -15 15 -28 36 -30 47 -3 21 -24 57 -67 114 l-25 34 -6 -29
c-11 -50 -10 -132 2 -140 8 -5 7 -9 -4 -15 -8 -5 -18 -26 -22 -47 -10 -62 -39
-102 -75 -102 l-30 0 20 37 c26 48 25 54 -5 89 -14 16 -42 49 -62 74 -20 26
-80 80 -132 120 -52 41 -106 87 -120 101 -14 14 -43 38 -63 54 -21 15 -38 31
-38 35 0 18 63 34 149 35 79 2 103 -1 152 -21 32 -13 78 -24 101 -24 l43 1
-32 29 c-46 42 -44 73 8 107 51 33 159 47 159 19 0 -9 8 -16 20 -16 11 0 20
-4 20 -10 0 -5 7 -10 16 -10 9 0 14 -6 11 -14 -3 -7 3 -21 14 -30 17 -14 20
-14 25 -1 10 26 -4 60 -43 99 -41 41 -178 126 -203 126 -9 0 -21 5 -27 11 -6
6 -75 33 -154 60 -79 27 -132 48 -118 46 27 -4 27 -4 14 32 -12 36 -45 56 -45
27 0 -8 -7 -22 -16 -30 -14 -15 -14 -16 2 -16 10 0 15 -3 12 -6 -8 -7 -128 18
-123 26 2 4 -8 5 -23 2 -18 -2 -36 4 -51 17 -14 12 -18 21 -11 21 7 0 11 3 8
6 -4 3 -15 1 -25 -4 -11 -6 -25 -7 -35 -1 -9 5 -27 5 -45 -2 -20 -6 -50 -7
-94 0 l-64 10 63 -4 c53 -3 61 -1 51 11 -6 8 -18 14 -25 14 -8 0 -14 5 -14 10
0 6 -10 8 -23 5 -23 -6 -57 19 -44 32 4 3 2 12 -4 20 -6 7 -8 13 -3 13 5 0 10
22 12 49 3 57 5 56 -108 66 -53 4 -71 3 -60 -4 10 -7 11 -11 3 -11 -7 0 -13
-5 -13 -11 0 -6 7 -8 16 -5 10 4 25 -3 41 -20 18 -20 30 -25 51 -20 15 3 21 3
15 0 -7 -3 -13 -14 -13 -24 0 -25 -17 -35 -35 -20 -8 7 -24 10 -35 7 -11 -3
-18 -1 -14 4 3 5 2 9 -3 9 -4 0 -18 -20 -30 -45 -16 -31 -19 -45 -10 -48 7 -3
-6 -6 -28 -6 -26 0 -35 2 -26 8 11 7 11 9 0 14 -10 4 -10 6 -1 6 19 1 14 39
-5 44 -10 2 -25 -3 -34 -10 -15 -12 -20 -10 -39 16 -12 17 -28 31 -36 31 -24
0 -13 53 13 65 12 5 24 17 26 27 5 19 7 18 -168 37 l-90 10 115 -5 c262 -11
755 -84 944 -140 27 -7 51 -14 53 -14 2 0 -5 10 -17 22 -32 34 -13 35 23 0 33
-32 115 -72 148 -72 10 0 19 -3 19 -7 0 -5 12 -14 27 -20 21 -10 28 -10 35 0
5 8 8 8 8 0 0 -11 81 -62 154 -95 56 -26 153 -50 190 -46 28 3 22 8 -64 49
-52 25 -108 52 -125 60 l-30 13 32 4 32 3 -16 35 c-18 38 -28 42 -37 17 -6
-14 -11 -12 -37 13 -24 22 -30 36 -26 58 3 22 -1 30 -14 33 -11 3 -17 9 -14
13 9 15 -7 41 -22 36 -8 -3 -18 4 -25 19 -6 14 -15 25 -19 25 -4 0 -10 12 -14
27 -4 18 -9 23 -14 15 -4 -7 -15 -10 -25 -6 -14 5 -16 2 -10 -20 4 -19 2 -26
-8 -26 -9 0 -14 9 -14 23 1 33 -28 28 -32 -5 -4 -32 -22 -37 -29 -8 -3 11 -9
20 -14 20 -4 0 -19 10 -32 23 -13 12 -35 31 -50 41 -32 22 -32 25 -11 74 l16
37 14 -33 c14 -32 34 -36 34 -6 0 8 5 14 10 14 6 0 10 -8 10 -17 1 -16 2 -15
12 2 16 30 17 30 33 9 14 -19 14 -18 15 3 0 16 5 20 19 16 14 -3 22 -17 26
-46 7 -38 8 -39 21 -22 14 18 14 18 14 0 0 -18 1 -18 16 1 14 17 15 17 10 1
-5 -14 -2 -16 13 -7 11 5 22 15 25 22 3 7 5 -1 3 -19 -2 -18 0 -30 4 -27 4 2
13 -4 19 -13 9 -14 9 -11 4 17 -4 19 -8 44 -10 55 -3 28 -43 115 -52 115 -9 0
-34 57 -38 88 -2 14 2 22 12 22 8 0 14 -4 14 -10 0 -5 5 -10 11 -10 12 0 3 87
-11 105 -4 6 -10 22 -14 38 -3 15 -11 27 -17 27 -6 0 -8 8 -4 19 4 13 -6 30
-35 57 -22 21 -38 44 -36 51 5 12 -21 40 -29 32 -2 -3 2 -23 10 -44 8 -26 10
-44 4 -52 -11 -12 32 -99 48 -96 16 3 42 -29 36 -45 -4 -10 -2 -13 5 -8 8 5
10 2 6 -9 -4 -8 -1 -22 6 -30 10 -12 9 -15 -5 -15 -14 0 -16 -7 -13 -33 2 -19
-2 -39 -8 -45 -9 -8 -17 2 -32 41 -21 56 -21 67 1 48 12 -9 13 -4 4 34 -6 24
-14 42 -19 39 -4 -3 -8 0 -8 5 0 6 -6 11 -13 11 -18 0 -52 38 -43 47 4 4 16
-3 26 -17 11 -14 20 -19 20 -13 0 7 -23 36 -50 64 -28 28 -43 49 -35 45 19 -7
19 -2 1 37 -8 18 -17 45 -21 61 l-6 28 -18 -21 c-36 -41 -105 -20 -137 41 -21
41 -12 63 18 47 20 -10 20 -8 -5 16 -21 22 -25 31 -16 41 6 8 19 14 28 14 13
1 12 3 -4 12 -11 6 -22 14 -25 18 -9 11 -42 21 -35 10 8 -13 -34 -13 -74 1
-38 13 -36 33 3 37 24 3 27 7 21 29 -6 24 -4 25 22 18 32 -8 32 -8 58 -6 30 2
-42 47 -79 49 -16 1 -35 7 -43 14 -12 10 -17 9 -24 -4 -10 -19 -44 -14 -71 10
-13 11 -18 12 -18 2 0 -7 -8 -10 -19 -7 -21 5 -49 -8 -39 -19 4 -3 27 -7 51
-8 35 -2 49 -9 75 -36 30 -30 38 -53 19 -51 -4 1 -13 1 -20 1 -7 0 -22 8 -33
18 -11 11 -38 22 -59 25 -22 3 -50 9 -62 13 -17 5 -23 2 -23 -10 0 -9 -8 -16
-20 -16 -23 0 -72 21 -82 35 -5 6 -12 5 -18 -5 -9 -13 -14 -7 -11 12 0 4 -9 7
-22 5 -18 -2 -22 2 -19 23 3 26 20 42 35 33 5 -3 6 4 2 16 -4 15 -1 29 9 40
16 17 15 19 -13 31 -33 13 -57 37 -48 46 11 11 77 -18 96 -42 10 -13 22 -24
26 -24 4 0 20 -9 36 -21 39 -28 28 -43 -27 -34 -47 7 -55 -2 -26 -27 35 -30
129 -32 118 -2 -3 7 0 16 6 20 7 4 5 10 -6 16 -21 12 -21 37 2 45 24 9 33 25
20 40 -12 15 -32 18 -23 3 12 -20 -37 -9 -85 18 -45 26 -48 30 -34 44 14 14
13 16 -11 20 -19 4 -25 2 -21 -8 8 -22 -11 -26 -49 -10 -43 18 -46 36 -5 36
29 0 40 13 20 25 -5 3 -10 1 -10 -5 0 -8 -9 -10 -25 -6 -35 9 -48 0 -35 -25 9
-16 7 -19 -12 -19 -34 0 -73 24 -72 43 1 12 -6 17 -27 17 -16 0 -29 -5 -29
-11z m134 -80 c45 -21 45 -59 0 -59 -23 0 -64 31 -64 48 0 24 26 28 64 11z
m-96 -45 c31 -22 27 -34 -11 -34 -37 0 -79 33 -55 43 24 10 43 7 66 -9z m-478
-18 c0 -3 -4 -8 -10 -11 -5 -3 -10 -1 -10 4 0 6 5 11 10 11 6 0 10 -2 10 -4z
m217 -13 c22 -5 37 -28 28 -43 -3 -4 -21 -11 -42 -15 -31 -6 -39 -3 -54 17
-16 21 -16 24 -1 41 9 10 22 15 31 11 9 -4 26 -9 38 -11z m-53 -150 c9 -18 14
-33 12 -33 -6 0 -36 55 -36 66 0 11 5 3 24 -33z m235 -37 c22 -26 9 -68 -23
-79 -25 -8 -32 -7 -49 14 -12 15 -15 25 -7 27 6 2 15 15 20 28 11 27 41 32 59
10z m421 -140 c-1 -28 -60 -74 -60 -46 0 6 -7 10 -15 10 -33 0 -5 49 35 62 17
6 40 -9 40 -26z m260 -45 c5 -11 10 -27 10 -36 0 -16 -2 -16 -26 0 l-25 16 17
-26 c13 -20 14 -29 5 -38 -10 -9 -18 -6 -37 16 l-24 28 22 29 c25 35 43 38 58
11z m-154 -79 c17 -11 54 -75 54 -94 0 -14 -4 -15 -29 -5 -24 9 -32 8 -46 -6
-21 -22 -21 -22 -41 8 -16 24 -16 28 1 65 17 38 37 48 61 32z m193 -21 c26
-36 28 -66 5 -57 -15 6 -15 4 -2 -16 12 -18 27 -24 73 -28 54 -5 58 -7 74 -40
11 -24 22 -34 35 -32 25 4 56 -26 56 -55 0 -31 -13 -29 -43 7 -30 35 -37 37
-38 13 0 -11 -6 -6 -14 13 -13 29 -18 31 -54 28 -41 -3 -56 6 -62 40 -2 10
-13 24 -24 30 -11 6 -25 18 -32 26 -11 13 -12 13 -13 0 0 -12 -3 -11 -11 3 -6
10 -7 26 -3 35 7 17 10 27 12 50 3 20 19 14 41 -17z m-940 -56 c27 -38 30 -46
17 -51 -35 -14 -62 20 -82 102 -7 28 -7 29 13 11 11 -9 34 -37 52 -62z m279
33 c21 -21 13 -46 -21 -72 -43 -33 -52 -33 -67 4 -14 34 -3 55 35 70 29 12 39
12 53 -2z m796 -31 c6 -9 7 -19 4 -22 -9 -10 -68 27 -68 41 0 17 51 2 64 -19z
m-509 -17 c17 -32 20 -70 6 -70 -17 0 -51 52 -51 76 0 34 26 30 45 -6z m-409
12 c6 -4 16 -22 22 -39 11 -32 10 -33 -18 -33 -17 0 -33 -7 -39 -17 -8 -15
-12 -12 -27 21 -19 38 -19 38 5 57 25 20 39 23 57 11z m-428 -40 c3 -17 -9
-36 -42 -69 -25 -25 -46 -50 -46 -54 0 -5 -7 -9 -15 -9 -11 0 -15 11 -15 36 0
39 12 67 43 102 28 30 71 27 75 -6z m660 -25 c2 -9 -8 -42 -22 -72 -25 -55
-20 -74 8 -33 l16 22 0 -21 c0 -23 -36 -42 -50 -26 -9 10 -30 71 -30 88 0 7
10 24 21 39 23 29 52 31 57 3z m512 -36 c-3 -62 -2 -71 11 -71 7 0 8 16 3 46
-4 31 -3 45 3 41 12 -8 24 -73 17 -92 -3 -8 -12 -11 -20 -8 -11 4 -14 -4 -14
-33 0 -22 -5 -46 -10 -54 -7 -10 -9 4 -6 45 2 33 2 50 -1 38 -2 -13 -9 -23
-15 -23 -6 0 -8 -13 -6 -30 3 -16 2 -30 -2 -30 -11 0 -39 57 -49 98 -7 35 -6
46 9 64 17 21 19 21 43 6 l25 -17 -8 34 c-8 35 -4 49 12 39 5 -4 9 -27 8 -53z
m-222 7 c11 -13 25 -35 31 -50 9 -25 8 -28 -8 -28 -11 0 -33 11 -49 25 -34 28
-42 24 -42 -22 0 -18 -4 -33 -10 -33 -5 0 -7 -6 -4 -14 3 -7 -2 -16 -10 -19
-9 -4 -12 -13 -9 -28 4 -14 2 -20 -4 -16 -6 4 -13 21 -17 39 -6 29 -8 31 -18
14 -8 -14 -5 -25 12 -48 20 -27 20 -29 3 -26 -27 5 -43 21 -29 30 7 5 5 8 -6
8 -9 0 -19 -6 -21 -12 -4 -9 -6 -8 -6 3 -1 8 -14 25 -31 37 -22 17 -30 31 -30
53 0 24 4 30 15 25 13 -4 13 -2 5 14 -10 19 -4 50 10 50 5 0 24 -15 43 -33
l35 -33 16 33 c16 33 39 43 52 21 5 -7 10 -4 15 10 11 28 30 28 57 0z m-1117
-5 c0 -5 2 -16 4 -25 2 -10 -2 -15 -9 -12 -14 5 -19 44 -5 44 5 0 9 -3 10 -7z
m39 -23 c0 -5 -5 -10 -11 -10 -5 0 -7 5 -4 10 3 6 8 10 11 10 2 0 4 -4 4 -10z
m245 -31 c10 -14 -6 -57 -23 -64 -30 -11 -70 64 -46 88 7 7 62 -12 69 -24z
m-304 -26 c-12 -20 -14 -14 -5 12 4 9 9 14 11 11 3 -2 0 -13 -6 -23z m557 5
c14 -12 16 -44 3 -53 -5 -3 -12 -1 -15 4 -3 5 -15 7 -26 4 -11 -3 -17 -9 -14
-14 3 -5 0 -9 -6 -9 -7 0 -10 -7 -6 -15 10 -26 -1 -16 -23 21 -12 20 -21 44
-19 52 6 30 73 35 106 10z m-601 -10 c-3 -8 -6 -5 -6 6 -1 11 2 17 5 13 3 -3
4 -12 1 -19z m1648 -76 c-8 -21 -11 -14 -18 38 l-6 45 15 -34 c8 -18 13 -40 9
-49z m-1644 -9 c-12 -20 -14 -14 -5 12 4 9 9 14 11 11 3 -2 0 -13 -6 -23z
m1209 -9 c14 -35 13 -37 -15 -31 -18 3 -30 -2 -39 -15 -21 -30 -29 -4 -12 37
18 43 52 48 66 9z m-1470 6 c0 -5 -4 -10 -10 -10 -5 0 -10 5 -10 10 0 6 5 10
10 10 6 0 10 -4 10 -10z m932 -17 c30 -32 41 -70 19 -65 -12 3 -12 0 -2 -12 7
-9 18 -13 24 -9 6 3 7 1 3 -5 -5 -9 -13 -9 -29 -1 -55 29 -112 92 -101 111 12
18 61 7 86 -19z m609 -72 c6 -26 6 -49 0 -59 -7 -13 -11 -8 -20 24 -6 21 -11
52 -11 69 0 40 19 20 31 -34z m-287 30 c3 -4 -6 -6 -19 -3 -14 2 -25 6 -25 8
0 8 39 4 44 -5z m101 -1 c-3 -5 -12 -10 -18 -10 -7 0 -6 4 3 10 19 12 23 12
15 0z m-945 -33 c0 -5 -4 -5 -10 -2 -5 3 -10 14 -10 23 0 15 2 15 10 2 5 -8
10 -19 10 -23z m887 -3 c2 -13 1 -15 -4 -4 -3 8 -11 19 -17 23 -7 6 -6 7 4 4
8 -2 16 -12 17 -23z m215 -44 c4 0 8 -5 8 -11 0 -5 -5 -7 -10 -4 -7 4 -8 -3
-4 -21 l7 -27 -26 19 c-22 16 -26 24 -21 49 10 46 17 53 28 23 5 -16 13 -28
18 -28z m349 -7 c-12 -20 -14 -14 -5 12 4 9 9 14 11 11 3 -2 0 -13 -6 -23z
m-1627 -14 c-9 -14 -27 -6 -30 14 -2 14 1 15 17 6 11 -5 17 -15 13 -20z m1427
-42 c-8 -8 -11 -7 -11 4 0 20 13 34 18 19 3 -7 -1 -17 -7 -23z m152 -4 c-4
-22 -2 -25 6 -13 8 11 11 11 11 2 0 -7 -7 -15 -16 -19 -13 -5 -12 -9 6 -28 20
-21 20 -23 3 -29 -11 -4 -22 -1 -29 8 -7 10 -14 12 -21 5 -13 -13 -42 20 -49
56 -6 35 14 50 37 29 16 -14 18 -14 29 5 15 28 28 19 23 -16z m24 15 c-3 -8
-6 -5 -6 6 -1 11 2 17 5 13 3 -3 4 -12 1 -19z m-2027 -8 c0 -23 -13 -26 -29
-6 -9 11 -9 15 1 19 23 10 28 7 28 -13z m1796 -5 c10 -8 27 -15 37 -15 11 0
15 -4 11 -12 -4 -7 -3 -8 4 -4 7 4 12 13 12 21 0 8 4 17 10 20 6 4 7 -5 4 -23
-4 -17 -1 -32 5 -36 19 -12 2 -26 -30 -26 -17 0 -28 4 -25 8 3 4 -11 21 -30
37 -46 39 -45 66 2 30z m-30 -31 c23 -55 14 -77 -14 -33 -12 20 -22 44 -22 53
0 28 21 17 36 -20z m-137 -94 c44 -45 54 -62 25 -42 -17 12 -87 92 -80 92 4 0
28 -22 55 -50z m226 -50 c-11 -5 -33 -8 -50 -8 l-30 0 30 8 c17 4 39 8 50 8
l20 1 -20 -9z m148 -30 c15 -7 27 -17 27 -22 0 -11 -56 18 -66 33 -4 7 -3 10
2 8 5 -3 21 -11 37 -19z m-1600 -8 c16 -18 15 -19 -40 -20 -39 -2 -53 1 -44 7
8 5 30 7 50 4 34 -4 35 -4 17 11 -11 9 -15 16 -9 16 5 0 17 -8 26 -18z m-130
-13 c-37 -23 -42 -32 -15 -26 23 5 72 -20 72 -38 0 -8 9 -29 20 -47 29 -48 25
-52 -22 -18 -22 16 -47 30 -55 30 -7 0 -13 7 -13 15 0 9 -11 20 -25 27 -31 14
-111 -7 -125 -32 -16 -30 -87 -21 -117 15 -24 27 -24 29 -7 42 20 15 47 9 84
-17 21 -15 27 -16 45 -4 11 7 38 16 60 19 21 2 54 16 74 29 20 14 41 25 46 25
6 0 -5 -9 -22 -20z m-810 -36 c-13 -2 -33 -2 -45 0 -13 2 -3 4 22 4 25 0 35
-2 23 -4z m307 -37 c15 -21 37 -44 49 -51 l23 -12 -31 -25 c-16 -14 -27 -29
-24 -32 4 -3 1 -6 -5 -6 -7 0 -12 5 -12 11 0 8 -6 7 -17 -2 -12 -10 -15 -10
-9 -1 17 28 -80 110 -134 112 -17 1 -4 9 40 24 36 13 72 23 80 22 8 -1 26 -19
40 -40z m110 -67 c0 -4 -7 -6 -15 -3 -8 4 -15 10 -15 15 0 4 7 6 15 3 8 -4 15
-10 15 -15z m-20 -28 c0 -11 -4 -23 -10 -26 -6 -4 -10 5 -10 19 0 14 5 26 10
26 6 0 10 -9 10 -19z m625 9 c4 -6 11 -8 16 -5 5 3 6 0 3 -8 -3 -8 -1 -18 5
-22 6 -3 11 -20 11 -37 0 -56 27 -95 78 -112 56 -20 52 -20 52 4 0 12 7 20 17
20 14 0 14 3 -3 22 -10 13 -2 8 19 -10 25 -21 49 -32 70 -33 30 0 31 -1 10
-11 -17 -8 -28 -7 -48 6 -18 12 -25 13 -25 4 0 -30 13 -58 29 -63 13 -4 15
-17 13 -75 -3 -67 -3 -70 22 -81 32 -15 41 -8 26 20 -7 14 -7 21 0 21 15 0 12
21 -7 42 -14 15 -14 21 -4 27 9 6 6 10 -10 14 -22 6 -22 7 -6 25 17 19 17 20
0 27 -15 6 -12 10 17 20 19 7 39 9 43 5 14 -13 14 -114 0 -128 -7 -8 -11 -18
-8 -23 4 -5 2 -9 -2 -9 -5 0 -9 -12 -8 -27 0 -31 -25 -40 -73 -28 -21 5 -23 8
-11 16 12 8 12 10 -1 19 -22 14 -30 12 -30 -7 0 -14 -2 -15 -9 -4 -5 7 -13 11
-19 7 -6 -3 -15 1 -20 10 -11 20 -41 15 -89 -16 -35 -21 -43 -40 -18 -40 8 0
15 -4 15 -10 0 -17 -15 -11 -39 14 -24 26 -100 50 -125 40 -9 -3 -16 -14 -16
-24 0 -18 -23 -34 -34 -23 -23 24 21 73 64 73 27 0 30 2 20 19 -15 29 -12 36
8 14 9 -10 14 -14 10 -9 -5 6 -8 18 -8 27 0 21 -22 38 -28 21 -2 -7 -8 -9 -14
-6 -5 3 0 13 12 21 13 9 20 23 18 36 -3 20 1 22 34 19 35 -3 37 -2 44 34 4 21
2 55 -3 76 -6 22 -8 37 -6 34 9 -9 34 24 28 35 -4 6 -21 19 -39 30 -27 17 -28
19 -9 19 12 0 25 -5 28 -10z m-730 -66 c17 -14 24 -23 17 -19 -20 10 -8 -34
20 -68 l25 -32 -29 -30 c-22 -24 -28 -26 -28 -12 0 9 -4 17 -10 17 -5 0 -10
11 -10 24 0 27 -15 42 -25 26 -5 -8 -11 -8 -20 0 -14 11 -20 7 -48 -32 -17
-24 -57 -27 -71 -5 -17 27 11 68 67 95 33 15 47 28 47 42 0 28 29 25 65 -6z
m651 1 c18 -14 16 -15 -22 -9 -45 7 -111 -17 -121 -43 -4 -9 -19 -13 -42 -11
-45 2 -64 -8 -56 -31 4 -14 -2 -17 -32 -18 -58 -2 -72 -5 -70 -17 1 -7 -15
-10 -45 -8 -25 2 -49 -2 -52 -7 -7 -11 -36 -4 -36 9 0 10 88 32 100 25 4 -3
28 3 52 13 23 11 49 17 56 15 7 -3 12 -1 11 4 -3 19 14 53 27 53 8 0 14 4 14
9 0 5 9 11 21 14 15 4 23 0 26 -14 7 -24 3 -24 59 6 54 29 82 31 110 10z
m1391 9 c-3 -3 -12 -4 -19 -1 -8 3 -5 6 6 6 11 1 17 -2 13 -5z m-1548 -214
c25 -35 28 -45 20 -73 -13 -44 -11 -51 6 -37 8 7 12 16 9 21 -3 5 2 6 10 3 11
-4 14 -15 11 -31 -6 -37 -12 -39 -46 -19 -31 18 -80 15 -108 -8 -11 -9 -13 -8
-9 4 2 8 13 17 24 18 10 2 25 11 32 20 10 13 12 13 12 1 0 -8 13 -1 31 19 l29
33 -23 32 c-30 40 -40 57 -33 57 3 0 19 -18 35 -40z m-479 13 c0 -9 -29 -33
-40 -33 -7 0 -8 6 -1 18 8 16 41 27 41 15z m-40 -53 c0 -5 -2 -10 -4 -10 -3 0
-8 5 -11 10 -3 6 -1 10 4 10 6 0 11 -4 11 -10z m1285 -11 c11 -4 -23 -5 -75
-2 -52 3 -97 8 -100 10 -8 8 155 0 175 -8z m70 -7 c0 -6 -4 -11 -10 -9 -5 1
-9 6 -7 11 2 5 -4 6 -13 2 -10 -3 -14 -2 -10 5 9 14 40 7 40 -9z m418 -29 c-7
-2 -19 -2 -25 0 -7 3 -2 5 12 5 14 0 19 -2 13 -5z m-1378 -83 c3 -6 -1 -7 -9
-4 -18 7 -21 14 -7 14 6 0 13 -4 16 -10z m1294 -103 c16 -20 -8 -67 -34 -67
-11 0 -15 -4 -10 -8 6 -4 10 -13 11 -19 2 -29 5 -32 19 -27 9 4 15 0 15 -10 0
-9 -7 -16 -16 -16 -9 0 -22 -7 -29 -17 -7 -9 -17 -13 -23 -9 -17 11 -15 46 3
46 12 0 13 4 5 19 -5 11 -7 27 -3 37 4 11 3 15 -4 11 -6 -4 -19 0 -28 9 -15
15 -14 18 6 40 25 26 70 32 88 11z m-439 -17 c0 -5 -5 -10 -11 -10 -5 0 -7 5
-4 10 3 6 8 10 11 10 2 0 4 -4 4 -10z m130 -10 c0 -5 -2 -10 -4 -10 -3 0 -8 5
-11 10 -3 6 -1 10 4 10 6 0 11 -4 11 -10z m523 3 c-7 -2 -19 -2 -25 0 -7 3 -2
5 12 5 14 0 19 -2 13 -5z m-3258 -13 c-3 -5 -11 -10 -16 -10 -6 0 -7 5 -4 10
3 6 11 10 16 10 6 0 7 -4 4 -10z m2495 -22 c0 -10 3 -9 9 1 7 10 13 11 27 2
11 -6 15 -11 9 -11 -5 0 0 -8 13 -18 19 -15 22 -24 16 -46 -4 -16 -15 -31 -25
-33 -10 -3 -20 -11 -23 -19 -13 -33 -63 -5 -57 32 1 7 -11 10 -29 8 -16 -2
-30 1 -30 7 0 6 5 7 12 3 8 -5 9 -2 5 10 -5 12 1 20 21 29 30 13 43 27 36 39
-3 4 0 8 5 8 6 0 11 -6 11 -12z m-310 -34 c0 12 5 16 16 12 9 -3 20 -6 24 -6
10 0 31 -68 35 -117 2 -18 0 -33 -3 -33 -4 0 -23 -13 -42 -30 -29 -24 -31 -30
-17 -36 30 -11 18 -26 -18 -21 -27 4 -38 1 -45 -13 -10 -18 -44 -32 -54 -22
-3 3 -1 11 5 18 6 7 6 14 1 18 -6 3 -12 -1 -16 -9 -10 -27 -26 -16 -26 20 0
49 20 87 42 82 15 -4 17 0 11 38 -5 37 -2 45 16 57 11 7 21 16 21 21 0 4 -4 5
-10 2 -16 -10 -12 3 8 24 17 18 17 17 34 -3 16 -19 18 -20 18 -2z m110 6 c0
-5 -5 -10 -11 -10 -5 0 -7 5 -4 10 3 6 8 10 11 10 2 0 4 -4 4 -10z m936 -23
c-3 -12 -5 -24 -6 -27 -2 -3 -2 -8 -1 -12 0 -5 -6 -8 -14 -8 -22 0 -30 27 -15
55 15 28 41 22 36 -8z m244 -16 c10 -22 24 -41 30 -43 6 -2 12 -10 14 -18 1
-8 8 -26 15 -38 17 -31 7 -39 -24 -18 -17 11 -25 25 -25 46 0 30 -1 30 -55 30
-32 0 -55 -4 -55 -11 0 -5 5 -7 10 -4 11 7 12 4 14 -35 1 -19 -3 -25 -20 -26
-23 -2 -41 31 -23 41 5 3 4 14 -3 24 -13 21 9 48 59 75 39 21 40 21 63 -23z
m-600 4 c7 -8 9 -15 6 -15 -4 0 -14 7 -22 15 -9 8 -11 15 -6 15 5 0 15 -7 22
-15z m48 -8 c6 -7 9 -23 6 -35 -6 -19 -8 -20 -21 -6 -18 18 -40 4 -45 -29 -3
-23 -48 -39 -48 -17 0 23 44 70 66 70 26 0 40 16 22 23 -8 4 -9 6 -2 6 6 1 16
-5 22 -12z m-292 -22 c1 -8 -2 -15 -7 -15 -5 0 -9 10 -9 22 0 23 12 17 16 -7z
m965 -12 c13 -14 18 -23 11 -19 -7 4 -15 0 -19 -10 -6 -15 -7 -15 -20 2 -11
15 -15 16 -22 5 -7 -11 -10 -11 -17 0 -4 8 -3 14 5 17 7 2 17 10 24 18 7 7 12
13 13 14 0 0 11 -12 25 -27z m-1699 -20 c-3 -14 -13 -34 -23 -44 -19 -19 -19
-18 -19 2 0 12 4 18 11 13 8 -5 10 2 7 23 -3 22 0 29 12 30 13 1 16 -5 12 -24z
m1008 1 c0 -8 -19 -13 -24 -6 -3 5 1 9 9 9 8 0 15 -2 15 -3z m232 -1 c-6 -2
-10 -9 -6 -14 3 -5 0 -9 -5 -9 -6 0 -11 7 -11 15 0 8 8 15 18 14 10 0 12 -3 4
-6z m-1286 -19 c-3 -9 -6 -20 -6 -26 0 -5 -7 -3 -15 6 -17 17 -20 30 -5 21 6
-3 10 -1 10 4 0 6 5 11 11 11 6 0 8 -7 5 -16z m105 -14 c5 0 9 -6 9 -14 0 -9
-7 -12 -19 -9 -11 3 -21 -2 -24 -11 -7 -17 -47 -22 -47 -6 0 5 8 6 17 3 12 -5
15 -2 10 10 -4 12 -2 14 10 10 13 -5 15 -2 10 11 -6 14 -3 17 9 12 8 -3 20 -6
25 -6z m1149 -4 c0 -8 6 -16 12 -18 9 -3 8 -9 -4 -21 -9 -9 -19 -30 -23 -46
-6 -27 -39 -49 -49 -33 -17 27 -4 109 18 124 18 13 46 9 46 -6z m-1093 -11 c0
-8 -4 -12 -9 -9 -4 3 -8 9 -8 15 0 5 4 9 8 9 5 0 9 -7 9 -15z m1688 5 c3 -5 1
-10 -4 -10 -6 0 -11 5 -11 10 0 6 2 10 4 10 3 0 8 -4 11 -10z m-5 -94 c0 -39
-6 -31 -14 19 -5 29 -4 36 3 25 6 -8 11 -28 11 -44z m-1820 28 c0 -17 -22 -14
-28 4 -2 7 3 12 12 12 9 0 16 -7 16 -16z m785 -14 c15 -24 -55 -108 -78 -93
-5 3 -16 21 -24 40 -13 32 -12 37 2 54 27 29 81 29 100 -1z m-1693 -49 c2 -17
1 -28 -4 -25 -8 5 -12 54 -4 54 2 0 6 -13 8 -29z m154 -25 c1 -10 -5 -16 -17
-16 -22 0 -24 -11 -6 -29 10 -10 9 -11 -4 -6 -10 4 -19 0 -22 -9 -4 -9 -1 -16
6 -16 7 0 3 -7 -7 -15 -11 -8 -25 -15 -30 -15 -6 0 -5 4 3 9 9 6 10 11 2 15
-6 4 -11 14 -11 22 0 8 4 13 9 10 5 -4 12 7 16 24 4 16 11 30 16 30 5 0 8 3 8
8 -3 18 2 22 18 14 9 -6 18 -17 19 -26z m2565 -3 c-8 -15 -10 -15 -11 -2 0 17
10 32 18 25 2 -3 -1 -13 -7 -23z m-1908 -13 c-3 -11 -7 -20 -9 -20 -2 0 -4 9
-4 20 0 11 4 20 9 20 5 0 7 -9 4 -20z m217 10 c0 -5 -5 -10 -11 -10 -5 0 -7 5
-4 10 3 6 8 10 11 10 2 0 4 -4 4 -10z m2060 -3 c0 -7 -7 -22 -15 -33 -13 -17
-13 -16 -3 14 13 34 18 40 18 19z m-430 -32 c0 -8 -3 -16 -7 -18 -5 -3 -8 5
-8 18 0 13 3 21 8 18 4 -2 7 -10 7 -18z m-2894 -24 c-8 -12 -46 -21 -46 -11 0
9 18 18 38 19 7 1 11 -3 8 -8z m1774 -11 c0 -13 -28 -25 -38 -16 -3 4 0 11 8
16 20 13 30 12 30 0z m-2430 -14 c0 -3 -4 -8 -10 -11 -5 -3 -10 -1 -10 4 0 6
5 11 10 11 6 0 10 -2 10 -4z m955 -52 c-8 -6 -15 -14 -15 -18 0 -12 -30 -39
-36 -33 -3 3 4 19 16 36 15 20 21 37 17 53 -6 23 -6 23 13 -2 17 -22 17 -26 5
-36z m797 24 c-7 -7 -12 -8 -12 -2 0 14 12 26 19 19 2 -3 -1 -11 -7 -17z m65
-13 c-7 -13 -14 -20 -15 -14 -5 14 6 39 17 39 5 0 4 -11 -2 -25z m653 9 c0 -8
-5 -12 -10 -9 -6 4 -8 11 -5 16 9 14 15 11 15 -7z m-1730 -30 c0 -14 4 -23 10
-19 6 3 10 1 10 -4 0 -6 -4 -11 -10 -11 -5 0 -10 -7 -10 -15 0 -16 -9 -19 -26
-7 -9 6 -10 26 -5 75 1 4 8 7 16 7 9 0 15 -10 15 -26z m395 1 c15 0 12 -58 -3
-63 -7 -2 -10 2 -6 12 5 12 0 16 -19 16 -31 0 -42 -15 -39 -55 l2 -30 -13 24
c-16 27 -11 60 9 68 8 3 14 11 14 18 0 16 21 25 35 16 6 -3 15 -6 20 -6z
m2599 -21 c-6 -25 -8 -26 -15 -9 -6 15 -8 16 -8 4 -1 -20 -31 -48 -31 -30 0 7
-4 9 -10 6 -5 -3 -10 1 -10 9 0 9 9 16 20 16 11 0 23 7 27 16 5 13 7 13 14 2
7 -10 9 -8 9 6 0 11 2 17 5 14 4 -3 3 -18 -1 -34z m-3590 -46 l-5 -43 20 35
c14 25 19 29 19 15 0 -11 3 -28 7 -37 5 -13 3 -18 -9 -18 -9 0 -16 -4 -16 -10
0 -5 4 -10 10 -10 5 0 9 -12 9 -27 -2 -41 -9 -63 -20 -63 -6 0 -6 8 1 20 10
18 -2 31 -13 13 -2 -5 -2 -3 -1 4 2 6 -3 16 -9 21 -12 11 -14 74 -3 117 10 39
15 30 10 -17z m1448 0 c-7 -7 -12 -8 -12 -2 0 14 12 26 19 19 2 -3 -1 -11 -7
-17z m-486 3 c-4 -5 0 -12 6 -15 7 -3 4 -5 -6 -3 -24 3 -34 27 -11 27 9 0 14
-4 11 -9z m670 -38 c-8 -8 -12 -3 -21 27 l-7 25 17 -23 c9 -13 14 -26 11 -29z
m-1073 10 c-7 -3 -13 -13 -13 -23 0 -16 -3 -17 -25 -7 -26 13 -35 30 -11 21 8
-3 19 4 26 16 9 17 14 19 23 10 9 -10 9 -14 0 -17z m3207 -4 c0 -5 -4 -9 -10
-9 -5 0 -10 7 -10 16 0 8 5 12 10 9 6 -3 10 -10 10 -16z m-2320 -19 c0 -5 -5
-10 -11 -10 -5 0 -7 5 -4 10 3 6 8 10 11 10 2 0 4 -4 4 -10z m2535 -7 c-4 -10
-8 -26 -10 -35 -5 -22 -24 -58 -31 -58 -4 0 -3 12 0 28 11 45 28 82 38 82 6 0
7 -8 3 -17z m-3244 -20 c-8 -15 -10 -15 -11 -2 0 17 10 32 18 25 2 -3 -1 -13
-7 -23z m-4 -42 c0 -11 -5 -17 -9 -15 -11 7 -10 34 1 34 6 0 9 -9 8 -19z
m-1197 -29 c0 -15 -2 -15 -10 -2 -13 20 -13 33 0 25 6 -3 10 -14 10 -23z m848
3 c15 -14 32 -25 39 -25 7 0 13 -5 13 -10 0 -7 -8 -6 -22 2 -13 7 -28 11 -35
10 -12 -3 -26 14 -29 36 -3 18 3 15 34 -13z m-328 -94 c0 -13 -26 -32 -33 -24
-8 7 11 33 24 33 5 0 9 -4 9 -9z m-140 -56 c-7 -8 -24 -15 -39 -15 -25 1 -25
1 9 20 39 20 50 19 30 -5z m3525 -45 c3 -5 1 -10 -4 -10 -6 0 -11 5 -11 10 0
6 2 10 4 10 3 0 8 -4 11 -10z m-1442 -202 l23 -23 -30 -62 c-17 -35 -33 -63
-37 -63 -3 0 -11 24 -17 53 -10 47 -8 55 11 84 12 18 23 33 24 33 1 0 13 -10
26 -22z m1218 0 c11 -21 11 -22 -4 -9 -10 7 -17 17 -17 22 0 15 9 10 21 -13z
m-1105 -3 c9 -22 -5 -87 -17 -80 -12 8 -12 95 1 95 6 0 13 -7 16 -15z m-44
-49 c-4 -51 -19 -62 -24 -18 -4 28 11 74 21 68 4 -3 5 -25 3 -50z m1188 24 c0
-5 -2 -10 -4 -10 -3 0 -8 5 -11 10 -3 6 -1 10 4 10 6 0 11 -4 11 -10z m-1888
-272 c-5 -5 -9 5 -10 24 0 31 1 31 9 9 6 -14 6 -28 1 -33z m-164 -133 c-3 -3
-9 2 -12 12 -6 14 -5 15 5 6 7 -7 10 -15 7 -18z m-118 -54 c0 -12 -20 -36 -20
-24 0 6 -3 19 -6 27 -5 12 -2 15 10 10 9 -3 16 -9 16 -13z m55 -13 c-8 -46
-15 -48 -15 -5 0 21 5 37 10 37 6 0 8 -13 5 -32z m2282 12 c-1 -12 -5 -16 -10
-11 -5 5 -6 14 -3 20 11 16 15 13 13 -9z m-189 -15 c-3 -3 -9 2 -12 12 -6 14
-5 15 5 6 7 -7 10 -15 7 -18z m-2037 -12 c-12 -20 -14 -14 -5 12 4 9 9 14 11
11 3 -2 0 -13 -6 -23z m-146 -42 c-3 -5 -1 -21 5 -36 10 -26 -4 -74 -18 -61
-3 4 -1 11 5 17 7 7 6 22 -3 49 -15 43 -9 86 8 56 5 -9 7 -20 3 -25z m50 0
c-3 -11 -1 -22 5 -26 12 -7 13 -25 2 -25 -12 0 -30 42 -25 58 7 20 25 14 18
-7z m42 -23 c-3 -7 -5 -2 -5 12 0 14 2 19 5 13 2 -7 2 -19 0 -25z m-47 -58 c0
-5 -2 -10 -4 -10 -3 0 -8 5 -11 10 -3 6 -1 10 4 10 6 0 11 -4 11 -10z m-126
-36 c3 -8 2 -12 -4 -9 -6 3 -10 10 -10 16 0 14 7 11 14 -7z m-649 -54 c3 -5 1
-10 -4 -10 -6 0 -11 5 -11 10 0 6 2 10 4 10 3 0 8 -4 11 -10z"/>
<path d="M4552 4100 c0 -19 2 -27 5 -17 2 9 2 25 0 35 -3 9 -5 1 -5 -18z"/>
<path d="M3288 3111 c-4 -43 -2 -46 22 -31 13 9 13 10 0 10 -12 0 -13 2 -1 9
11 7 11 12 -2 31 -14 21 -15 20 -19 -19z"/>
<path d="M2460 3371 c0 -6 4 -13 10 -16 6 -3 7 1 4 9 -7 18 -14 21 -14 7z"/>
<path d="M2260 4985 c-17 -10 -20 -14 -9 -15 9 0 22 7 29 15 15 18 12 18 -20
0z"/>
<path d="M2940 4991 c0 -10 24 -21 43 -21 7 0 3 7 -7 15 -22 17 -36 19 -36 6z"/>
<path d="M3185 4984 c-11 -8 -35 -14 -55 -13 -19 1 -51 -5 -70 -15 l-35 -16
32 3 c17 2 31 0 30 -4 -2 -8 12 -10 33 -5 8 2 26 7 40 10 14 3 30 17 37 31 6
14 10 25 10 25 -1 0 -11 -7 -22 -16z"/>
<path d="M3398 4981 c-38 -16 -49 -30 -25 -32 6 -1 29 -3 50 -4 31 -2 35 0 25
12 -9 11 -9 16 1 22 26 17 -14 18 -51 2z"/>
<path d="M3320 4966 c-7 -20 -17 -26 -42 -27 -18 0 -42 -4 -53 -9 -16 -7 -13
-9 17 -9 20 -1 39 -5 42 -10 6 -10 66 44 66 59 0 22 -21 19 -30 -4z"/>
<path d="M2017 4953 c-4 -3 -36 -7 -72 -9 -41 -2 -73 -9 -87 -19 -22 -16 -21
-17 37 -10 88 10 155 25 155 36 0 10 -23 12 -33 2z"/>
<path d="M2870 4944 c-21 -25 -51 -37 -62 -26 -11 11 -38 5 -38 -7 0 -13 72
-11 87 1 15 12 37 48 30 48 -3 0 -10 -7 -17 -16z"/>
<path d="M2536 4915 c-17 -14 -23 -25 -15 -25 19 0 34 12 42 33 8 22 8 22 -27
-8z"/>
<path d="M2991 4924 c0 -11 3 -14 6 -6 3 7 2 16 -1 19 -3 4 -6 -2 -5 -13z"/>
<path d="M4325 4930 c-4 -6 5 -10 20 -10 15 0 24 4 20 10 -3 6 -12 10 -20 10
-8 0 -17 -4 -20 -10z"/>
<path d="M4408 4905 c12 -9 20 -20 17 -24 -2 -5 7 -13 22 -20 23 -10 25 -10
14 3 -8 10 -9 16 -1 21 16 10 12 24 -7 23 -10 -1 -29 2 -43 6 l-25 8 23 -17z"/>
<path d="M2754 4892 c4 -7 1 -12 -6 -12 -7 0 -24 -9 -38 -20 -24 -18 -24 -20
-4 -20 27 0 70 45 53 55 -8 5 -10 4 -5 -3z"/>
<path d="M2963 4874 c-87 -52 -55 -78 55 -45 18 5 40 7 48 4 10 -4 14 2 14 21
0 18 -4 24 -15 20 -8 -4 -26 1 -39 9 -21 14 -26 14 -63 -9z"/>
<path d="M2340 4864 c-55 -23 -55 -23 -19 -24 25 0 42 7 59 25 13 14 22 24 19
24 -2 -1 -29 -12 -59 -25z"/>
<path d="M3340 4880 c-12 -8 -9 -10 13 -10 15 0 27 5 27 10 0 13 -20 13 -40 0z"/>
<path d="M2084 4854 c-49 -33 -49 -33 -41 -40 5 -5 54 26 92 58 22 19 -15 6
-51 -18z"/>
<path d="M2586 4855 c-16 -12 -17 -15 -4 -15 9 0 18 7 22 15 7 18 6 18 -18 0z"/>
<path d="M1655 4804 c-136 -74 -152 -83 -140 -84 8 0 126 53 177 81 10 5 28 9
40 10 13 0 17 3 10 6 -10 4 -9 9 4 24 23 25 24 26 -91 -37z"/>
<path d="M1810 4845 c-24 -13 -24 -14 -4 -15 12 0 27 7 34 15 16 19 3 19 -30
0z"/>
<path d="M3186 4844 c-5 -14 -4 -15 9 -4 17 14 19 20 6 20 -5 0 -12 -7 -15
-16z"/>
<path d="M1900 4823 l-25 -25 28 13 c15 7 27 18 27 26 0 16 0 16 -30 -14z"/>
<path d="M2221 4819 c-31 -25 -23 -33 9 -9 14 10 23 21 20 23 -3 3 -16 -3 -29
-14z"/>
<path d="M1564 4814 c-18 -14 -18 -15 4 -4 12 6 22 13 22 15 0 8 -5 6 -26 -11z"/>
<path d="M2410 4810 c-8 -5 -10 -10 -5 -10 6 0 17 5 25 10 8 5 11 10 5 10 -5
0 -17 -5 -25 -10z"/>
<path d="M2800 4806 c0 -8 60 -12 72 -4 8 4 -4 8 -29 8 -24 0 -43 -2 -43 -4z"/>
<path d="M3259 4784 c-21 -23 -22 -26 -5 -23 19 4 56 49 39 49 -5 0 -20 -12
-34 -26z"/>
<path d="M1704 4785 c-18 -13 -18 -14 4 -8 12 3 25 9 28 14 8 14 -10 11 -32
-6z"/>
<path d="M1735 4771 c-13 -12 -68 -24 -62 -13 3 4 -6 8 -21 7 -22 0 -29 -6
-37 -32 -5 -18 -13 -33 -17 -33 -4 0 -8 -5 -8 -12 0 -7 17 5 38 25 28 27 41
34 49 26 8 -8 21 -6 47 6 20 10 36 21 36 26 0 11 -13 12 -25 0z"/>
<path d="M3186 4764 c-11 -7 -16 -17 -13 -21 4 -4 15 1 24 10 22 21 14 30 -11
11z"/>
<path d="M2737 4751 c-22 -14 -25 -20 -13 -24 16 -6 46 16 46 34 0 11 1 11
-33 -10z"/>
<path d="M3063 4753 c9 -2 23 -2 30 0 6 3 -1 5 -18 5 -16 0 -22 -2 -12 -5z"/>
<path d="M4658 4753 c7 -3 16 -2 19 1 4 3 -2 6 -13 5 -11 0 -14 -3 -6 -6z"/>
<path d="M1441 4724 c-17 -14 -31 -31 -31 -38 0 -16 -72 -86 -89 -86 -7 0 -24
-13 -38 -30 -13 -16 -31 -30 -39 -30 -8 0 -14 -5 -14 -11 0 -5 -5 -7 -12 -3
-7 5 -8 3 -3 -5 4 -8 -4 -25 -21 -43 l-29 -30 31 15 c17 9 42 30 55 46 13 17
29 31 35 31 6 0 19 9 29 20 10 11 23 20 30 20 17 0 81 62 89 87 4 13 18 24 37
28 21 5 29 11 25 22 -3 8 -6 19 -6 24 0 16 -17 10 -49 -17z"/>
<path d="M1880 4744 c0 -5 -12 -17 -27 -26 -18 -11 -22 -18 -12 -18 19 0 55
37 46 47 -4 3 -7 2 -7 -3z"/>
<path d="M1965 4725 c-31 -19 -35 -25 -19 -25 11 0 31 11 44 25 29 31 26 31
-25 0z"/>
<path d="M3465 4734 c-23 -10 -25 -13 -10 -13 21 -1 53 15 45 22 -3 2 -18 -2
-35 -9z"/>
<path d="M2478 4733 c7 -3 16 -2 19 1 4 3 -2 6 -13 5 -11 0 -14 -3 -6 -6z"/>
<path d="M2295 4720 c-4 -6 -17 -15 -29 -20 -14 -6 -16 -9 -5 -9 19 -1 56 25
47 34 -3 3 -9 1 -13 -5z"/>
<path d="M2628 4698 c-17 -17 -17 -18 1 -18 10 0 21 7 24 15 9 22 -6 24 -25 3z"/>
<path d="M4760 4711 c0 -5 7 -11 15 -15 8 -3 15 -1 15 3 0 5 -7 11 -15 15 -8
3 -15 1 -15 -3z"/>
<path d="M2555 4690 c-15 -17 -16 -20 -3 -20 9 0 19 7 22 16 10 25 1 27 -19 4z"/>
<path d="M2190 4679 c-22 -18 -22 -19 -3 -10 12 6 25 16 28 21 9 15 3 12 -25
-11z"/>
<path d="M3437 4655 c-18 -25 -10 -39 17 -29 16 6 22 39 9 47 -5 3 -16 -6 -26
-18z"/>
<path d="M3026 4635 c-9 -14 -12 -25 -7 -25 12 0 35 39 28 46 -2 3 -12 -7 -21
-21z"/>
<path d="M3091 4646 c-8 -10 -9 -16 -1 -21 5 -3 13 1 16 10 9 22 -1 29 -15 11z"/>
<path d="M1680 4624 c-20 -14 -28 -24 -18 -24 18 0 66 36 58 43 -3 3 -21 -6
-40 -19z"/>
<path d="M1901 4627 c-13 -21 -12 -21 5 -5 10 10 16 20 13 22 -3 3 -11 -5 -18
-17z"/>
<path d="M2380 4573 c-14 -14 -19 -24 -11 -22 13 5 49 49 40 49 -2 0 -15 -12
-29 -27z"/>
<path d="M1586 4575 c-3 -8 -3 -15 0 -15 3 0 12 7 20 15 13 13 13 15 1 15 -8
0 -17 -7 -21 -15z"/>
<path d="M2881 4576 c-8 -10 -9 -16 -1 -21 5 -3 13 1 16 10 9 22 -1 29 -15 11z"/>
<path d="M4752 4581 c-11 -7 -10 -10 3 -15 9 -3 24 -6 32 -6 13 0 13 3 3 15
-14 17 -20 18 -38 6z"/>
<path d="M1800 4559 c0 -5 5 -7 10 -4 6 3 10 8 10 11 0 2 -4 4 -10 4 -5 0 -10
-5 -10 -11z"/>
<path d="M4920 4562 c0 -12 19 -26 26 -19 2 2 -2 10 -11 17 -9 8 -15 8 -15 2z"/>
<path d="M3257 4535 c-43 -25 -45 -40 -5 -40 14 0 29 -3 33 -7 4 -4 17 2 28
13 17 15 19 23 11 36 -15 24 -24 24 -67 -2z"/>
<path d="M2990 4540 c-9 -6 -10 -10 -3 -10 6 0 15 5 18 10 8 12 4 12 -15 0z"/>
<path d="M1509 4523 c-13 -16 -12 -17 4 -4 9 7 17 15 17 17 0 8 -8 3 -21 -13z"/>
<path d="M2264 4508 l-19 -23 23 19 c21 18 27 26 19 26 -2 0 -12 -10 -23 -22z"/>
<path d="M4764 4502 c-1 -28 2 -31 40 -37 23 -3 56 -6 74 -6 25 0 35 -6 47
-30 17 -32 30 -37 38 -15 7 19 -116 102 -164 111 -32 6 -34 5 -35 -23z"/>
<path d="M2010 4500 c-20 -16 -21 -20 -8 -20 10 0 22 9 28 20 13 25 11 25 -20
0z"/>
<path d="M1650 4490 c-9 -6 -10 -10 -3 -10 6 0 15 5 18 10 8 12 4 12 -15 0z"/>
<path d="M1907 4460 c-9 -11 -13 -20 -7 -20 5 0 14 9 20 20 6 11 9 20 8 20 -2
0 -11 -9 -21 -20z"/>
<path d="M1389 4453 c-13 -16 -12 -17 4 -4 9 7 17 15 17 17 0 8 -8 3 -21 -13z"/>
<path d="M2166 4454 c-4 -9 -4 -19 -1 -22 2 -3 7 3 11 12 4 9 4 19 1 22 -2 3
-7 -3 -11 -12z"/>
<path d="M1300 4453 c-24 -9 -50 -35 -50 -50 0 -11 5 -10 25 3 20 13 55 57 43
53 -2 0 -10 -3 -18 -6z"/>
<path d="M4860 4425 c7 -8 17 -15 22 -15 6 0 5 7 -2 15 -7 8 -17 15 -22 15 -6
0 -5 -7 2 -15z"/>
<path d="M4990 4434 c0 -15 27 -50 34 -43 4 3 -2 17 -13 30 -11 13 -20 19 -21
13z"/>
<path d="M1589 4404 c-22 -25 -22 -26 -3 -16 12 6 24 18 28 27 8 21 3 19 -25
-11z"/>
<path d="M3132 4412 c-12 -20 -19 -22 -76 -19 -61 3 -63 2 -75 -25 -14 -30
-57 -40 -67 -14 -4 10 -13 7 -35 -13 -28 -25 -29 -26 -9 -35 14 -7 25 -4 39 8
22 20 44 13 62 -20 10 -20 11 -29 1 -45 -10 -16 -9 -19 6 -19 13 0 18 8 18 38
0 20 4 54 8 76 l7 38 21 -22 c15 -15 23 -19 31 -11 6 6 20 11 32 11 33 0 57
23 53 51 l-3 24 -13 -23z"/>
<path d="M1430 4386 c-36 -24 -41 -31 -26 -34 17 -4 86 52 75 61 -2 2 -24 -10
-49 -27z"/>
<path d="M2682 4408 c-7 -7 -12 -19 -12 -27 0 -11 5 -8 16 7 18 25 15 39 -4
20z"/>
<path d="M1176 4374 c-16 -19 -26 -37 -24 -40 7 -6 58 54 58 67 0 13 -2 12
-34 -27z"/>
<path d="M2560 4375 c-7 -9 -8 -15 -2 -15 5 0 12 7 16 15 3 8 4 15 2 15 -2 0
-9 -7 -16 -15z"/>
<path d="M1860 4373 c0 -5 -15 -17 -32 -26 -19 -9 -26 -16 -17 -16 21 -1 66
35 57 45 -5 4 -8 3 -8 -3z"/>
<path d="M5080 4373 c0 -5 10 -18 23 -29 l22 -19 -20 25 c-11 14 -21 27 -22
29 -2 2 -3 0 -3 -6z"/>
<path d="M2755 4290 c-3 -5 -3 -16 1 -22 6 -10 5 -10 -7 -1 -11 9 -22 4 -56
-28 -47 -44 -42 -58 14 -33 21 9 44 16 51 15 8 -1 12 12 12 39 0 40 -4 48 -15
30z"/>
<path d="M2080 4225 c-11 -13 -10 -14 4 -9 9 3 16 10 16 15 0 13 -6 11 -20 -6z"/>
<path d="M2490 4209 c-38 -41 -35 -54 5 -22 19 15 35 31 35 35 0 17 -17 12
-40 -13z"/>
<path d="M1675 4169 c-17 -11 -23 -19 -14 -19 17 0 57 26 49 33 -3 2 -18 -4
-35 -14z"/>
<path d="M5230 4114 c0 -24 22 -84 30 -84 6 0 2 19 -7 43 -18 46 -23 55 -23
41z"/>
<path d="M2829 4077 c0 -1 -2 -10 -4 -19 -3 -15 0 -16 16 -8 10 6 19 12 19 14
0 4 -30 17 -31 13z"/>
<path d="M2730 4043 c0 -10 -3 -28 -6 -39 -4 -16 0 -23 16 -27 17 -4 20 -2 15
14 -5 14 -3 17 9 13 9 -3 16 -1 16 5 0 6 -6 10 -12 9 -7 -2 -14 7 -16 20 -4
26 -22 30 -22 5z"/>
<path d="M5211 4029 c-1 -31 38 -163 46 -156 4 5 -18 92 -42 172 -2 6 -4 -2
-4 -16z"/>
<path d="M5141 3979 c-1 -8 6 -24 15 -35 15 -19 15 -19 6 1 -5 11 -12 27 -15
35 -5 13 -6 13 -6 -1z"/>
<path d="M4436 3603 c-5 -6 26 -43 35 -43 4 0 9 9 12 19 3 14 -2 20 -19 24
-13 2 -26 2 -28 0z"/>
<path d="M590 3483 c0 -13 5 -23 10 -23 6 0 10 -5 10 -11 0 -5 -4 -8 -8 -5 -5
3 -6 -9 -4 -27 6 -38 38 -74 72 -78 23 -4 25 -1 25 41 0 25 3 50 7 56 8 12
-27 65 -40 63 -4 -1 -9 0 -12 1 -3 1 -17 3 -32 4 -23 2 -28 -2 -28 -21z m46
-30 c-10 -10 -19 5 -10 18 6 11 8 11 12 0 2 -7 1 -15 -2 -18z"/>
<path d="M1705 3453 c-16 -2 -50 -6 -75 -10 -43 -7 -41 -7 35 -13 53 -5 82 -3
87 4 11 16 9 26 -4 25 -7 -1 -26 -4 -43 -6z"/>
<path d="M1568 3406 c-9 -9 -24 -16 -32 -16 -9 0 -16 -4 -16 -10 0 -5 -13 -16
-30 -25 -16 -9 -30 -11 -30 -6 0 5 -8 8 -17 6 -10 -2 -21 -4 -24 -4 -4 -1 -10
-12 -13 -25 -8 -33 -44 -41 -57 -12 -6 13 -16 23 -22 24 -7 0 -22 4 -34 7 -18
6 -23 2 -29 -19 -7 -28 -29 -30 -29 -3 0 9 -6 22 -13 29 -11 11 -17 9 -33 -11
-16 -19 -30 -25 -62 -25 -38 -1 -42 -4 -47 -29 -5 -28 -5 -28 -22 -7 -19 21
-38 27 -38 10 0 -5 11 -20 25 -34 34 -34 32 -48 -15 -89 -32 -27 -37 -36 -24
-41 28 -11 58 -6 92 14 26 16 37 18 48 10 10 -9 18 -5 34 22 11 18 23 48 26
66 8 42 35 42 66 0 27 -39 31 -57 12 -65 -10 -4 -11 -10 -3 -24 5 -11 6 -19 1
-19 -15 0 -22 -54 -9 -62 22 -14 67 -9 67 7 0 9 9 15 23 15 12 0 40 14 61 30
22 17 46 30 54 30 7 0 44 14 82 30 38 17 77 30 89 30 12 0 27 12 38 30 20 35
38 40 30 8 -5 -20 -2 -18 23 10 37 40 40 90 8 126 -19 21 -36 26 -94 32 -57 5
-73 3 -86 -10z m-414 -152 c10 -25 7 -34 -9 -28 -8 4 -15 15 -15 25 0 23 16
25 24 3z"/>
<path d="M4665 3390 c-3 -5 0 -10 7 -10 7 0 24 -3 38 -7 23 -6 24 -6 8 10 -19
19 -44 22 -53 7z"/>
<path d="M2061 3376 c-10 -12 -9 -21 3 -43 8 -15 16 -26 16 -23 13 83 8 99
-19 66z"/>
<path d="M500 3339 c1 -18 15 -34 72 -86 41 -37 52 -42 86 -39 22 2 53 13 70
25 17 11 34 21 39 21 16 0 9 39 -8 43 -11 3 -16 0 -13 -8 3 -8 -8 -14 -33 -19
-33 -5 -41 -2 -60 19 -13 15 -40 29 -65 34 -24 5 -53 13 -65 16 -16 5 -23 3
-23 -6z"/>
<path d="M870 3310 c-1 -14 -3 -29 -5 -35 -1 -5 -3 -14 -4 -20 -1 -5 -6 -1
-11 10 -8 19 -9 19 -9 -2 -1 -24 -15 -31 -26 -13 -3 6 -11 10 -17 10 -7 0 -6
-6 2 -15 7 -8 19 -15 26 -15 9 0 14 -12 14 -37 0 -34 -1 -35 -18 -20 -23 21
-75 22 -107 1 -20 -13 -30 -14 -61 -4 -27 9 -39 9 -47 0 -12 -12 -8 -16 53
-60 19 -13 20 -20 11 -59 l-9 -43 26 5 c15 3 35 9 45 12 13 5 16 3 11 -8 -3
-9 5 -22 23 -34 49 -35 57 -34 82 9 13 22 18 38 13 34 -6 -3 -10 9 -10 30 0
46 -5 49 -39 27 -25 -16 -24 -13 11 29 22 26 43 45 47 43 10 -7 15 68 8 128
-3 28 -7 41 -9 27z"/>
<path d="M898 3233 c-3 -27 -1 -52 4 -57 4 -6 8 16 8 47 0 69 -6 74 -12 10z"/>
<path d="M928 3229 c-2 -22 -1 -42 2 -44 4 -2 7 16 9 41 3 55 -6 58 -11 3z"/>
<path d="M5387 3263 c-14 -13 -7 -61 9 -67 9 -4 14 -9 11 -12 -3 -3 -14 -1
-24 4 -17 9 -18 3 -21 -92 l-3 -101 30 -29 c30 -29 31 -29 45 -10 8 10 12 22
10 26 -3 4 4 13 15 20 15 9 17 15 9 25 -6 7 -17 13 -24 13 -15 0 -44 50 -54
96 l-7 32 39 -4 c38 -4 40 -3 36 21 -7 33 -4 32 21 -10 11 -19 25 -35 31 -35
19 0 -23 60 -67 96 -44 37 -46 37 -56 27z"/>
<path d="M1003 3215 c-9 -25 2 -27 22 -5 17 18 17 20 1 20 -9 0 -19 -7 -23
-15z"/>
<path d="M1933 3183 c-15 -5 -17 -23 -4 -23 5 0 11 7 15 15 3 8 4 15 3 14 -1
0 -8 -3 -14 -6z"/>
<path d="M946 3165 c-4 -11 -12 -29 -18 -40 -10 -19 -9 -19 12 1 13 13 20 29
18 40 -5 18 -5 18 -12 -1z"/>
<path d="M5170 2890 c8 -5 20 -10 25 -10 6 0 3 5 -5 10 -8 5 -19 10 -25 10 -5
0 -3 -5 5 -10z"/>
<path d="M1660 2820 c-111 -6 -168 -19 -200 -45 -8 -7 -22 -15 -30 -19 -96
-44 -199 -138 -187 -170 4 -9 1 -13 -6 -10 -7 2 -13 -3 -14 -13 -1 -10 -3 -27
-5 -38 -2 -16 2 -19 22 -17 28 3 53 29 43 45 -3 6 -1 7 4 4 6 -4 16 5 21 21 6
15 20 38 31 52 l20 25 -5 -52 c-4 -48 -2 -53 15 -53 25 0 64 52 81 105 15 48
37 75 60 75 14 0 17 -7 13 -34 -4 -28 -1 -34 19 -39 12 -4 25 -3 28 1 3 4 14
8 24 10 11 2 30 11 44 20 19 12 27 13 30 4 2 -6 12 -12 23 -12 13 0 17 5 12
17 -4 11 -3 14 5 9 10 -6 17 10 14 35 -2 11 46 59 58 59 5 0 10 -11 10 -25 0
-29 15 -33 29 -7 13 22 14 6 1 -18 -6 -12 -16 -17 -26 -13 -14 5 -15 3 -5 -15
14 -26 14 -52 1 -52 -5 0 -10 7 -10 15 0 22 -23 18 -43 -6 -26 -30 -15 -49 28
-49 31 0 36 3 42 30 4 20 11 30 24 30 10 0 21 4 24 10 4 6 -1 7 -12 4 -15 -5
-15 -4 -3 4 10 8 18 8 27 0 9 -7 13 -7 13 1 0 11 55 71 65 71 15 0 1 -40 -20
-60 -39 -36 -32 -79 9 -58 27 14 76 69 76 86 0 16 -64 44 -102 46 -26 1 -32 8
-29 29 1 8 -41 7 -219 -3z m-24 -77 c-9 -10 -23 -27 -31 -38 -11 -16 -14 -17
-15 -4 0 18 36 59 52 59 6 0 4 -8 -6 -17z m-236 -103 c0 -4 -6 -13 -14 -20
-12 -9 -15 -8 -13 8 1 17 27 28 27 12z"/>
<path d="M5190 2813 c0 -4 22 -27 49 -50 37 -32 48 -37 44 -22 -5 19 -93 88
-93 72z"/>
<path d="M860 2750 c0 -5 6 -10 14 -10 8 0 18 5 21 10 3 6 -3 10 -14 10 -12 0
-21 -4 -21 -10z"/>
<path d="M5355 2710 c10 -11 20 -20 22 -20 2 0 -2 9 -9 20 -7 11 -17 20 -22
20 -5 0 -1 -9 9 -20z"/>
<path d="M2057 2707 c-3 -8 3 -14 15 -14 16 -2 17 1 8 13 -15 17 -17 17 -23 1z"/>
<path d="M789 2658 c-22 -9 -56 -65 -45 -75 2 -2 16 -1 30 3 17 4 25 12 24 23
-2 12 4 16 25 15 15 0 27 2 27 5 -1 8 -26 41 -31 40 -2 -1 -16 -6 -30 -11z"/>
<path d="M1510 2613 c0 -25 1 -26 16 -11 9 9 13 21 10 27 -13 20 -26 11 -26
-16z"/>
<path d="M697 2604 c-4 -4 -7 -14 -7 -23 0 -11 3 -12 11 -4 6 6 10 16 7 23 -2
6 -7 8 -11 4z"/>
<path d="M1980 2599 c0 -5 5 -7 10 -4 6 3 10 8 10 11 0 2 -4 4 -10 4 -5 0 -10
-5 -10 -11z"/>
<path d="M1577 2541 c-22 -38 -21 -44 3 -38 13 3 25 -2 34 -14 13 -19 14 -19
30 6 17 26 13 51 -5 39 -6 -3 -13 3 -16 15 -8 29 -26 26 -46 -8z m37 4 c3 -8
1 -15 -4 -15 -6 0 -10 7 -10 15 0 8 2 15 4 15 2 0 6 -7 10 -15z"/>
<path d="M1945 2551 c-8 -15 3 -31 21 -31 9 0 14 7 12 17 -4 20 -24 28 -33 14z"/>
<path d="M814 2505 c-4 -14 -4 -29 -1 -32 10 -10 39 27 33 42 -8 23 -25 18
-32 -10z"/>
<path d="M870 2490 c0 -19 3 -21 12 -12 9 9 9 15 0 24 -9 9 -12 7 -12 -12z"/>
<path d="M1326 2483 c-6 -14 -5 -15 5 -6 7 7 10 15 7 18 -3 3 -9 -2 -12 -12z"/>
<path d="M680 2461 c0 -12 5 -21 10 -21 6 0 10 6 10 14 0 8 -4 18 -10 21 -5 3
-10 -3 -10 -14z"/>
<path d="M712 2450 c-12 -16 -22 -39 -22 -50 0 -12 -4 -19 -9 -16 -19 12 6
-129 25 -145 9 -7 11 -21 8 -36 -7 -26 18 -63 42 -63 11 0 11 5 2 25 -6 14
-17 25 -24 25 -8 0 -11 6 -7 16 4 11 8 12 13 4 17 -27 20 11 4 39 -17 29 -14
61 6 61 8 0 7 -6 0 -20 -12 -23 -4 -44 12 -34 6 4 8 3 5 -3 -8 -13 38 -57 52
-49 7 4 3 21 -10 46 -16 31 -18 43 -9 59 20 39 -21 141 -52 129 -10 -4 -13
-19 -11 -56 2 -28 -1 -53 -6 -56 -5 -4 -9 18 -10 53 0 43 4 61 15 65 15 6 20
36 6 36 -5 0 -18 -13 -30 -30z"/>
<path d="M1725 2450 c3 -5 8 -10 11 -10 2 0 4 5 4 10 0 6 -5 10 -11 10 -5 0
-7 -4 -4 -10z"/>
<path d="M824 2336 c-3 -15 0 -33 9 -46 14 -20 15 -19 15 19 1 47 -14 64 -24
27z"/>
<path d="M5334 2074 c4 -24 22 -36 23 -15 1 11 -4 22 -12 24 -7 3 -12 0 -11
-9z"/>
<path d="M610 2005 c-11 -13 -15 -13 -22 -3 -6 8 -8 1 -6 -21 2 -19 8 -36 14
-38 13 -4 56 62 47 71 -10 10 -20 7 -33 -9z"/>
<path d="M5410 1912 c0 -20 45 -87 74 -111 10 -8 31 -34 47 -57 35 -51 69 -57
69 -11 0 30 -9 40 -90 100 -25 18 -54 47 -65 65 -23 36 -35 40 -35 14z"/>
<path d="M940 1855 c-42 -31 -58 -55 -35 -55 8 0 20 -11 25 -25 12 -32 55 -36
47 -4 -4 16 -3 18 8 9 19 -16 26 0 23 54 -2 55 -16 59 -68 21z"/>
<path d="M1870 1836 c0 -8 -7 -19 -17 -24 -19 -11 -12 -39 13 -49 20 -8 125
27 118 39 -7 11 -53 34 -86 42 -21 5 -28 3 -28 -8z"/>
<path d="M675 1811 c-3 -6 -3 -28 1 -50 6 -40 8 -41 46 -41 l39 0 -18 31 c-10
17 -22 40 -28 50 -10 20 -30 25 -40 10z"/>
<path d="M5067 1799 c-26 -20 -29 -20 -52 -5 -31 20 -59 20 -75 1 -7 -9 -11
-17 -9 -18 22 -14 72 -21 107 -17 48 7 50 6 73 -60 14 -39 19 -45 45 -45 24 0
33 7 51 43 l21 43 7 -56 c4 -30 12 -58 18 -62 6 -4 7 -1 2 7 -6 10 -4 12 8 7
26 -10 38 23 25 69 -17 64 -42 91 -90 98 -24 4 -56 9 -73 11 -21 4 -39 -1 -58
-16z"/>
<path d="M5270 1784 c0 -3 8 -17 18 -31 13 -21 17 -49 17 -124 0 -81 2 -96 15
-91 38 14 61 37 72 75 l12 41 18 -40 c9 -21 20 -68 24 -104 6 -61 23 -118 24
-80 0 11 11 15 40 14 22 -1 37 2 34 7 -3 5 -1 9 4 9 14 0 42 75 42 114 0 23
-13 54 -41 95 -23 34 -44 60 -47 57 -3 -3 -12 0 -20 7 -12 9 -16 9 -19 0 -4
-10 -9 -10 -25 1 -11 8 -27 12 -34 9 -8 -3 -20 0 -28 6 -14 12 -106 42 -106
35z"/>
<path d="M862 1741 c-6 -17 -9 -31 -6 -31 7 0 25 52 20 57 -2 2 -8 -10 -14
-26z"/>
<path d="M4901 1761 c-11 -7 -10 -13 4 -35 19 -28 32 -36 17 -10 -5 9 -7 25
-5 35 6 21 4 22 -16 10z"/>
<path d="M4827 1713 c-4 -3 -7 -20 -7 -37 1 -33 11 -24 24 22 7 21 -3 30 -17
15z"/>
<path d="M5652 1608 c6 -18 28 -21 28 -4 0 9 -7 16 -16 16 -9 0 -14 -5 -12
-12z"/>
<path d="M4781 1594 c-1 -12 6 -37 14 -55 13 -31 14 -32 14 -9 0 14 -6 39 -14
55 -11 25 -14 27 -14 9z"/>
<path d="M4775 1496 c0 -35 3 -49 10 -43 11 10 8 84 -4 91 -3 2 -6 -19 -6 -48z"/>
<path d="M5638 1480 c-3 -17 -1 -33 3 -35 10 -7 19 48 9 58 -4 5 -10 -6 -12
-23z"/>
<path d="M4881 1454 c0 -11 3 -14 6 -6 3 7 2 16 -1 19 -3 4 -6 -2 -5 -13z"/>
<path d="M4801 1404 c0 -11 3 -14 6 -6 3 7 2 16 -1 19 -3 4 -6 -2 -5 -13z"/>
<path d="M4721 1344 c0 -11 3 -14 6 -6 3 7 2 16 -1 19 -3 4 -6 -2 -5 -13z"/>
<path d="M2121 1304 c0 -11 3 -14 6 -6 3 7 2 16 -1 19 -3 4 -6 -2 -5 -13z"/>
<path d="M2321 1284 c0 -11 3 -14 6 -6 3 7 2 16 -1 19 -3 4 -6 -2 -5 -13z"/>
<path d="M2200 1170 c0 -19 3 -21 12 -12 9 9 9 15 0 24 -9 9 -12 7 -12 -12z"/>
<path d="M2076 1155 c-3 -8 -1 -15 4 -15 6 0 10 7 10 15 0 8 -2 15 -4 15 -2 0
-6 -7 -10 -15z"/>
<path d="M1920 1146 c0 -8 4 -17 9 -20 5 -4 7 3 4 14 -6 23 -13 26 -13 6z"/>
<path d="M1750 1103 c0 -12 5 -25 10 -28 13 -8 13 15 0 35 -8 12 -10 11 -10
-7z"/>
<path d="M1641 1084 c0 -11 3 -14 6 -6 3 7 2 16 -1 19 -3 4 -6 -2 -5 -13z"/>
<path d="M1415 1070 c-7 -12 5 -40 18 -40 7 0 7 4 -1 12 -18 18 -15 27 8 21
11 -3 20 -3 20 0 0 9 -40 15 -45 7z"/>
<path d="M1510 1054 c0 -5 11 -22 23 -38 17 -21 24 -24 24 -13 0 9 -11 27 -24
39 -12 12 -23 17 -23 12z"/>
</g>
</svg>
