<?xml version="1.0" standalone="no"?>
<!DOCTYPE svg PUBLIC "-//W3C//DTD SVG 20010904//EN"
 "http://www.w3.org/TR/2001/REC-SVG-20010904/DTD/svg10.dtd">
<svg version="1.0" xmlns="http://www.w3.org/2000/svg"
 width="417.000000pt" height="626.000000pt" viewBox="0 0 417.000000 626.000000"
 preserveAspectRatio="xMidYMid meet">

<g transform="translate(0.000000,626.000000) scale(0.100000,-0.100000)"
fill="#000000" stroke="none">
<path d="M0 5955 c0 -299 0 -305 22 -330 24 -27 43 -32 54 -13 5 7 7 54 6 104
-3 105 27 219 72 278 53 70 78 174 60 244 -6 21 -11 22 -110 22 l-104 0 0
-305z"/>
<path d="M3567 6218 c9 -26 12 -58 9 -80 -5 -28 -3 -38 7 -38 46 0 51 85 8
130 -15 17 -31 30 -33 30 -3 0 1 -19 9 -42z"/>
<path d="M3750 6234 c6 -14 17 -36 25 -47 40 -57 38 -137 -3 -137 -15 -1 -15
-2 2 -11 23 -14 56 2 73 34 46 87 83 164 83 175 0 9 -26 12 -95 12 l-95 0 10
-26z"/>
<path d="M440 6019 c-124 -14 -129 -18 -175 -157 -17 -53 -16 -79 11 -209 6
-32 39 -19 101 40 29 27 61 56 72 64 12 8 21 25 21 38 0 13 4 34 9 47 5 13 14
41 20 64 6 23 22 57 35 77 35 51 34 51 -94 36z"/>
<path d="M1656 5613 c-14 -106 -71 -259 -98 -266 -28 -8 -22 -50 11 -86 33
-35 78 -42 88 -13 4 9 20 34 36 54 29 36 29 38 23 125 -3 48 -2 106 2 128 6
29 4 49 -7 72 -24 49 -47 43 -55 -14z"/>
<path d="M1763 5183 c-23 -4 -23 -6 -23 -161 1 -86 5 -240 10 -342 24 -458 21
-532 -11 -297 l-11 89 -66 46 c-36 26 -70 52 -76 58 -29 28 -686 454 -701 454
-3 0 -5 -7 -5 -15 0 -8 20 -28 45 -45 45 -31 65 -53 23 -26 -13 8 -40 22 -61
31 -33 13 -38 14 -35 2 4 -21 425 -297 652 -428 32 -19 78 -52 102 -75 36 -33
46 -38 55 -28 16 19 28 17 24 -3 -2 -10 -4 -19 -5 -20 -2 -2 -3 -6 -4 -10 -1
-5 -5 -13 -9 -19 -7 -13 17 -271 26 -281 5 -5 179 -6 182 0 2 3 -18 378 -39
717 -9 140 -17 277 -18 305 -3 52 -9 57 -55 48z m14 -1005 c-3 -8 -6 -5 -6 6
-1 11 2 17 5 13 3 -3 4 -12 1 -19z"/>
<path d="M2360 5131 c0 -29 27 -98 52 -134 13 -17 28 -41 34 -51 6 -11 15 -21
20 -23 23 -7 33 18 38 92 3 44 8 90 12 103 6 21 4 22 -19 17 -14 -4 -28 -2
-31 4 -4 6 -29 11 -57 11 -41 0 -49 -3 -49 -19z"/>
<path d="M566 4995 c-17 -13 -10 -24 105 -161 152 -180 219 -264 219 -275 0
-11 -25 -17 -104 -24 -79 -7 -88 -11 -151 -65 -47 -40 -71 -48 -165 -53 l-55
-2 3 -80 c2 -48 13 -113 28 -162 21 -70 30 -87 67 -118 33 -28 48 -35 67 -30
14 3 40 8 57 10 18 2 50 9 70 14 45 12 71 6 133 -31 47 -27 59 -31 98 -29 18
1 22 7 22 31 0 17 9 39 20 50 20 20 20 20 -10 70 -17 28 -30 60 -30 71 0 31
53 75 136 115 41 19 74 39 74 42 0 4 -10 18 -22 32 -13 14 -35 41 -49 60 -26
34 -102 120 -350 396 -143 160 -139 156 -163 139z"/>
<path d="M1055 4549 c-5 -8 43 -80 89 -133 l34 -39 46 19 c25 10 46 24 46 31
0 7 -16 20 -36 29 -19 9 -47 33 -62 53 -15 20 -31 39 -37 43 -12 9 -75 7 -80
-3z"/>
<path d="M2913 4445 c-6 -14 -7 -25 -2 -25 5 0 9 -5 9 -10 0 -6 12 -29 27 -53
29 -46 34 -94 12 -108 -8 -5 -9 -9 -3 -9 23 0 25 -48 4 -83 -24 -40 -10 -62
14 -25 22 34 37 111 32 172 -2 39 -13 69 -37 110 -19 30 -36 56 -39 56 -3 0
-10 -11 -17 -25z"/>
<path d="M2380 4439 c0 -5 5 -7 10 -4 6 3 10 8 10 11 0 2 -4 4 -10 4 -5 0 -10
-5 -10 -11z"/>
<path d="M2061 4397 c-1 -39 25 -170 39 -197 5 -9 4 -22 0 -31 -5 -9 -7 -24
-4 -35 4 -15 15 -19 52 -21 45 -2 61 7 62 33 0 7 -10 9 -25 6 -20 -3 -24 -1
-19 12 4 11 1 16 -10 16 -9 0 -16 8 -16 19 0 11 -5 21 -11 23 -6 2 -13 26 -16
53 -5 51 -8 63 -36 125 l-16 35 0 -38z"/>
<path d="M2615 4290 c-19 -8 -19 -9 2 -9 12 -1 25 4 28 9 7 12 -2 12 -30 0z"/>
<path d="M186 4264 c-9 -24 -7 -100 4 -128 8 -21 16 -26 44 -26 27 0 35 5 39
23 10 36 -10 100 -38 125 -31 26 -41 27 -49 6z"/>
<path d="M2570 4270 c-9 -6 -10 -10 -3 -10 6 0 15 5 18 10 8 12 4 12 -15 0z"/>
<path d="M2225 4248 c4 -13 17 -33 28 -46 l21 -22 10 32 c7 21 19 34 36 39 23
6 23 7 6 14 -13 6 -21 3 -27 -8 -8 -14 -13 -14 -45 -1 -35 15 -36 15 -29 -8z"/>
<path d="M2813 4187 c-28 -30 -39 -67 -20 -67 14 0 54 76 45 85 -2 3 -14 -5
-25 -18z"/>
<path d="M2905 4041 c-3 -6 -14 -11 -24 -11 -10 0 -24 -7 -31 -15 -10 -13 -9
-15 12 -15 24 0 67 35 56 46 -3 3 -9 1 -13 -5z"/>
<path d="M2395 4000 c-19 -8 -19 -9 3 -9 12 -1 22 4 22 9 0 6 -1 10 -2 9 -2 0
-12 -4 -23 -9z"/>
<path d="M2330 3990 c0 -5 7 -7 15 -4 8 4 15 8 15 10 0 2 -7 4 -15 4 -8 0 -15
-4 -15 -10z"/>
<path d="M3185 3753 c-4 -10 -11 -54 -15 -97 -5 -58 -12 -83 -25 -92 -10 -7
-21 -11 -25 -9 -10 6 -20 -56 -20 -121 l0 -50 50 -3 c40 -2 50 1 50 14 0 20
29 77 44 87 6 4 32 5 57 2 29 -4 55 -2 70 7 41 21 129 17 174 -10 l39 -23 40
44 c22 23 58 52 81 63 44 22 56 56 35 95 -11 20 -18 21 -113 19 -56 -2 -113 0
-127 4 -14 4 -39 8 -57 9 -18 1 -30 4 -28 8 2 4 -23 21 -57 39 -72 37 -160 44
-173 14z"/>
<path d="M2951 3654 c0 -11 3 -14 6 -6 3 7 2 16 -1 19 -3 4 -6 -2 -5 -13z"/>
<path d="M3928 3623 c-7 -16 -21 -38 -32 -51 l-20 -23 28 -84 c20 -57 35 -86
47 -90 74 -24 83 68 22 233 -18 49 -29 53 -45 15z"/>
<path d="M370 3536 c0 -8 11 -17 24 -20 17 -4 26 -15 31 -36 5 -25 10 -28 24
-20 24 12 16 55 -12 75 -27 19 -67 19 -67 1z"/>
<path d="M721 3535 c-11 -15 -14 -75 -4 -75 5 0 10 -16 11 -35 2 -28 -2 -37
-21 -46 -13 -6 -29 -27 -37 -47 -7 -20 -18 -40 -24 -44 -17 -12 -94 -9 -102 3
-8 14 12 34 34 34 27 0 27 34 -1 44 -13 5 -27 19 -30 30 -9 35 -34 25 -43 -16
-4 -21 -7 -46 -6 -57 3 -25 -14 -43 -61 -68 -70 -35 -135 -7 -163 73 -10 27
-22 49 -26 49 -4 0 -8 6 -8 14 0 8 -30 34 -67 59 -53 34 -80 46 -120 49 l-53
5 0 -38 c0 -37 1 -38 28 -33 23 5 30 1 40 -21 20 -43 26 -129 12 -171 -7 -22
-27 -56 -43 -78 -30 -38 -30 -39 -11 -53 15 -12 41 -14 134 -9 308 17 433 32
487 58 12 6 43 8 68 6 61 -7 85 0 85 24 0 11 15 34 34 52 30 27 34 39 41 100
4 38 9 74 11 81 7 18 -21 47 -47 48 -24 2 -27 8 -31 54 -2 14 -77 22 -87 8z"/>
<path d="M4155 3487 c-3 -12 -2 -34 4 -47 9 -22 10 -19 10 23 1 51 -5 61 -14
24z"/>
<path d="M2766 3311 c-4 -5 -2 -12 3 -15 5 -4 12 -2 15 3 4 5 2 12 -3 15 -5 4
-12 2 -15 -3z"/>
<path d="M2555 3270 c3 -5 11 -10 16 -10 6 0 7 5 4 10 -3 6 -11 10 -16 10 -6
0 -7 -4 -4 -10z"/>
<path d="M2615 3180 c-3 -5 -1 -10 4 -10 6 0 11 5 11 10 0 6 -2 10 -4 10 -3 0
-8 -4 -11 -10z"/>
<path d="M4035 3179 c-33 -5 -94 -19 -135 -33 -41 -13 -99 -30 -127 -37 -29
-7 -53 -16 -53 -21 0 -4 101 -8 225 -8 l225 0 0 55 0 55 -37 -1 c-21 -1 -65
-5 -98 -10z"/>
<path d="M2025 3140 c3 -5 8 -10 11 -10 2 0 4 5 4 10 0 6 -5 10 -11 10 -5 0
-7 -4 -4 -10z"/>
<path d="M2915 2970 c-3 -5 -1 -10 4 -10 6 0 11 5 11 10 0 6 -2 10 -4 10 -3 0
-8 -4 -11 -10z"/>
<path d="M2745 2770 c-3 -5 -1 -10 4 -10 6 0 11 5 11 10 0 6 -2 10 -4 10 -3 0
-8 -4 -11 -10z"/>
<path d="M2565 2660 c-3 -5 -1 -10 4 -10 6 0 11 5 11 10 0 6 -2 10 -4 10 -3 0
-8 -4 -11 -10z"/>
<path d="M1174 2277 c-2 -7 0 -24 5 -38 9 -22 10 -21 10 14 1 37 -5 48 -15 24z"/>
<path d="M2787 1976 c-3 -8 -2 -18 3 -21 13 -8 24 15 12 27 -6 6 -11 4 -15 -6z"/>
<path d="M1210 1558 c0 -3 8 -14 18 -26 25 -29 66 -44 132 -48 30 -1 116 -7
190 -13 288 -21 260 -21 260 3 0 21 -3 21 -132 17 -183 -4 -340 18 -450 64
-10 4 -18 5 -18 3z"/>
<path d="M2805 1460 c-3 -5 1 -10 9 -10 9 0 16 5 16 10 0 6 -4 10 -9 10 -6 0
-13 -4 -16 -10z"/>
<path d="M1675 1386 c-105 -51 -165 -93 -165 -116 0 -5 7 -10 15 -10 9 0 12
-6 9 -15 -4 -10 0 -15 12 -16 18 0 18 -1 -1 -8 -18 -7 -18 -9 7 -25 15 -10 33
-14 39 -10 7 4 9 3 5 -4 -10 -16 135 -60 255 -77 58 -8 164 -17 235 -19 80 -3
110 -2 79 3 -28 5 -38 9 -23 9 60 4 62 17 3 23 -40 4 -6 7 105 9 l165 3 -140
8 c-157 8 -314 37 -380 69 -64 31 -85 71 -85 159 0 50 -4 71 -12 71 -7 0 -62
-25 -123 -54z m-20 -206 c3 -5 1 -10 -4 -10 -6 0 -11 5 -11 10 0 6 2 10 4 10
3 0 8 -4 11 -10z m338 -77 c-7 -2 -19 -2 -25 0 -7 3 -2 5 12 5 14 0 19 -2 13
-5z"/>
<path d="M2748 1414 c-9 -8 3 -44 13 -38 11 7 12 44 1 44 -5 0 -11 -3 -14 -6z"/>
<path d="M2802 1400 c0 -14 2 -19 5 -12 2 6 2 18 0 25 -3 6 -5 1 -5 -13z"/>
<path d="M2605 1380 c3 -5 8 -10 11 -10 2 0 4 5 4 10 0 6 -5 10 -11 10 -5 0
-7 -4 -4 -10z"/>
<path d="M2867 1244 c-48 -41 -256 -94 -492 -124 -45 -5 -51 -8 -23 -9 20 0
40 -6 43 -12 5 -7 -18 -10 -74 -8 -44 2 -84 -1 -88 -5 -9 -9 290 0 400 12 37
5 67 5 67 1 0 -3 -73 -12 -162 -18 -200 -15 -218 -18 -103 -20 149 -1 447 33
570 66 55 15 180 72 172 79 -2 2 -31 -8 -65 -22 -76 -31 -206 -64 -241 -63
-25 2 -25 2 -3 6 21 4 23 9 18 37 -5 23 -2 37 9 46 16 13 20 46 7 53 -4 3 -20
-5 -35 -19z m-120 -140 c-3 -3 -12 -4 -19 -1 -8 3 -5 6 6 6 11 1 17 -2 13 -5z"/>
</g>
</svg>
