<?xml version="1.0" standalone="no"?>
<!DOCTYPE svg PUBLIC "-//W3C//DTD SVG 20010904//EN"
 "http://www.w3.org/TR/2001/REC-SVG-20010904/DTD/svg10.dtd">
<svg version="1.0" xmlns="http://www.w3.org/2000/svg"
 width="626.000000pt" height="417.000000pt" viewBox="0 0 626.000000 417.000000"
 preserveAspectRatio="xMidYMid meet">

<g transform="translate(0.000000,417.000000) scale(0.100000,-0.100000)"
fill="#000000" stroke="none">
<path d="M523 4154 c-3 -9 -1 -24 5 -33 7 -9 16 -26 22 -38 12 -29 29 -29 90
2 27 14 53 25 58 25 4 0 35 -16 67 -36 38 -22 68 -34 83 -31 12 2 39 -2 60 -9
53 -19 139 -18 150 2 12 21 48 41 157 89 65 29 245 27 245 -3 0 -4 -18 -26
-39 -48 -33 -35 -50 -44 -122 -61 -46 -12 -115 -31 -154 -43 -38 -13 -87 -22
-109 -21 -36 2 -38 0 -31 -21 5 -13 9 -44 9 -69 1 -40 -6 -57 -49 -119 -28
-40 -76 -101 -107 -135 -32 -35 -58 -65 -58 -68 0 -3 17 -8 37 -12 54 -10 188
-80 212 -111 11 -14 28 -53 37 -85 16 -58 17 -59 52 -59 20 0 54 9 76 19 74
35 115 43 171 36 58 -7 80 -23 71 -53 -5 -15 2 -25 27 -40 29 -17 60 -21 193
-27 149 -6 187 -12 241 -37 16 -8 39 -7 80 2 32 7 103 16 158 21 174 15 186
18 241 60 28 21 62 39 75 39 13 0 41 -15 61 -34 l38 -35 45 16 c36 12 45 20
45 38 0 17 11 29 43 45 44 23 97 62 160 117 45 40 70 42 102 7 31 -34 32 -54
2 -54 -12 0 -39 -11 -59 -25 -20 -14 -44 -25 -53 -25 -9 0 -34 -15 -56 -33
-21 -19 -62 -46 -91 -62 -29 -15 -64 -41 -76 -57 -13 -16 -40 -37 -60 -48 -56
-29 -82 -53 -87 -78 -2 -12 -34 -53 -70 -90 -57 -58 -65 -71 -61 -95 5 -23 1
-29 -21 -38 -18 -7 -30 -6 -37 1 -19 19 -42 10 -80 -29 -31 -32 -35 -39 -21
-45 15 -5 13 -11 -14 -41 -17 -19 -38 -50 -47 -67 -9 -17 -32 -46 -51 -64 -26
-25 -32 -38 -28 -56 8 -31 -30 -115 -56 -123 -11 -4 -27 -1 -36 6 -13 11 -18
10 -34 -10 -38 -47 -36 -78 6 -95 17 -6 -45 -64 -64 -59 -23 6 -52 -23 -44
-43 3 -8 0 -27 -8 -40 -8 -16 -9 -28 -4 -32 22 -15 37 -54 26 -65 -6 -6 -11
-8 -11 -4 0 6 -56 -18 -69 -29 -2 -2 3 -12 13 -23 24 -26 5 -64 -40 -80 -22
-8 -34 -19 -34 -31 0 -11 -12 -22 -31 -29 -41 -14 -49 -14 -49 2 0 6 -14 25
-31 42 -30 28 -32 28 -45 10 -8 -10 -14 -27 -14 -37 0 -10 -5 -18 -11 -18 -6
0 -9 9 -6 20 4 15 -1 22 -20 26 -13 4 -29 2 -35 -4 -16 -16 1 -51 27 -58 28
-7 37 -35 24 -73 -11 -33 -45 -51 -93 -51 -35 0 -46 -13 -46 -55 0 -32 -35
-74 -50 -59 -8 8 -23 9 -51 1 -46 -11 -60 -4 -37 20 15 14 15 17 -2 36 -11 11
-29 25 -42 31 -12 6 -24 19 -26 29 -4 22 41 23 81 2 43 -22 73 -6 81 44 3 22
13 44 22 49 30 17 12 53 -38 79 -32 17 -48 32 -48 44 0 10 -7 19 -15 19 -10 0
-15 11 -15 35 0 38 13 73 47 124 15 21 23 49 23 75 0 23 4 47 9 55 7 10 3 23
-10 39 -26 33 -24 43 13 69 17 12 37 38 43 57 11 32 10 35 -9 40 -32 9 -36 7
-36 -12 0 -19 -21 -50 -92 -140 -46 -56 -48 -72 -9 -72 16 0 34 -7 41 -15 11
-13 9 -20 -9 -39 -13 -13 -42 -35 -66 -47 -42 -22 -45 -22 -63 -6 -18 17 -19
16 -17 -18 2 -34 16 -52 62 -82 16 -10 16 -13 3 -22 -18 -12 -53 -5 -98 21
-44 25 -180 26 -189 2 -8 -21 28 -50 80 -66 55 -17 97 -59 97 -96 0 -24 -11
-40 -57 -79 -32 -27 -74 -59 -93 -71 -19 -11 -52 -39 -73 -60 -33 -34 -37 -43
-28 -60 6 -12 19 -27 30 -34 10 -7 26 -28 35 -45 21 -42 51 -44 59 -5 5 24 17
34 78 61 l73 32 28 -21 c15 -11 42 -20 60 -20 28 0 36 -5 44 -28 23 -61 144
-88 152 -34 2 12 10 22 18 22 9 0 14 11 14 31 0 38 35 89 60 89 10 0 39 18 65
40 27 23 51 37 60 34 9 -4 21 -2 28 3 17 14 77 24 77 13 0 -5 -8 -15 -18 -22
-10 -7 -27 -25 -36 -40 -10 -16 -27 -28 -37 -28 -10 0 -21 -5 -24 -10 -3 -6
-17 -7 -30 -4 -18 4 -25 1 -30 -15 -5 -16 -15 -21 -43 -22 -31 -1 -33 -2 -13
-8 35 -9 36 -24 2 -39 -16 -7 -41 -31 -56 -53 -17 -27 -31 -39 -41 -35 -37 14
-169 -92 -158 -126 4 -13 -2 -21 -19 -27 -13 -5 -31 -21 -40 -35 -10 -14 -23
-26 -29 -26 -6 0 -20 -7 -30 -17 -17 -16 -17 -17 13 -35 30 -18 49 -17 49 3 0
23 61 97 90 109 22 9 57 11 118 7 84 -6 87 -6 116 21 l30 27 -27 -33 c-20 -25
-27 -46 -28 -80 -1 -30 -4 -37 -6 -20 -4 24 -9 28 -38 28 -19 0 -37 5 -40 10
-3 6 2 10 11 10 13 0 15 3 7 11 -13 13 -93 3 -93 -12 0 -5 -6 -9 -14 -9 -21 0
-73 -51 -85 -83 l-11 -28 54 6 c53 7 55 7 49 -16 -5 -19 -3 -21 13 -14 10 5
51 11 91 14 65 5 70 4 62 -11 -12 -22 -24 -29 -67 -39 -28 -6 -38 -4 -48 8
-10 15 -15 12 -45 -22 -74 -84 -98 -126 -59 -105 16 8 33 4 87 -22 64 -29 163
-53 163 -38 0 19 -52 59 -96 74 -101 37 -119 57 -68 76 32 13 37 12 29 0 -10
-15 -1 -12 58 20 195 107 497 202 701 220 116 11 142 17 286 72 96 36 150 69
150 90 0 17 -48 32 -63 19 -8 -6 -21 -9 -28 -6 -13 5 -45 51 -61 88 -4 9 -19
22 -33 29 -14 6 -25 19 -25 29 0 32 -12 49 -35 49 -13 0 -27 5 -30 10 -4 6
-11 8 -16 5 -5 -4 -10 6 -11 22 -2 47 2 66 17 83 8 9 15 23 15 31 0 54 54 149
85 149 8 0 18 -21 25 -55 6 -30 14 -55 18 -55 4 0 5 63 4 140 -2 78 -1 151 2
163 3 12 20 31 37 41 18 11 50 35 71 54 30 27 43 33 64 28 30 -8 54 8 54 35 0
14 7 19 30 19 20 0 28 4 24 13 -3 8 2 20 11 27 14 12 18 11 26 -1 5 -8 9 -11
9 -6 0 4 19 -2 42 -14 39 -20 43 -20 69 -5 34 20 39 20 40 -1 0 -14 3 -13 11
5 13 26 28 29 28 4 0 -11 -12 -22 -31 -29 -27 -11 -31 -16 -27 -42 4 -25 0
-31 -19 -36 -13 -3 -23 -10 -23 -15 0 -17 38 -11 52 8 7 10 30 22 52 25 33 5
39 3 43 -15 5 -17 11 -19 44 -14 24 4 39 2 41 -6 3 -7 12 -6 31 6 29 20 51 13
44 -14 -5 -19 33 -70 52 -70 6 0 11 -5 11 -11 0 -6 7 -18 16 -26 13 -13 13
-17 2 -24 -7 -5 -9 -9 -4 -9 5 0 3 -7 -4 -15 -10 -12 -10 -15 3 -15 9 0 19 -9
22 -20 5 -15 12 -19 26 -15 20 7 25 -8 12 -40 -5 -15 -8 -15 -24 6 l-19 24 0
-26 c0 -31 23 -44 51 -29 10 6 19 7 19 3 0 -4 7 0 15 11 10 13 11 24 4 37 -5
11 -7 19 -4 19 3 0 -2 11 -11 25 -9 14 -23 25 -30 25 -8 0 -14 7 -14 15 0 8 4
15 9 15 17 0 17 34 2 67 -19 38 -28 41 -41 11 -7 -18 -9 -19 -9 -5 -1 9 -7 17
-15 17 -30 0 -26 49 4 50 45 2 127 24 149 40 39 27 53 26 45 -5 -6 -23 -4 -25
29 -25 28 0 36 4 39 20 4 26 23 26 22 0 -1 -24 52 -51 113 -58 25 -3 50 -13
60 -24 18 -20 17 -20 -27 -13 -40 7 -43 6 -31 -9 7 -9 20 -16 27 -16 8 0 14
-4 14 -9 0 -5 -25 -13 -55 -16 -30 -4 -55 -11 -55 -16 0 -5 -7 -9 -15 -9 -8 0
-15 -5 -15 -11 0 -7 11 -8 29 -4 22 5 32 2 39 -12 9 -16 12 -15 23 10 11 24
17 27 43 22 23 -5 27 -4 16 4 -12 8 -12 13 -3 22 16 16 25 7 26 -28 1 -15 6
-32 12 -36 6 -5 -2 -7 -18 -4 -15 2 -30 1 -32 -3 -9 -14 55 -17 66 -3 14 16
32 6 25 -13 -3 -7 -1 -16 4 -19 14 -8 13 -45 -1 -45 -6 0 -9 -6 -6 -12 7 -21
-12 -48 -28 -42 -9 4 -22 1 -30 -6 -12 -10 -15 -9 -15 5 0 19 -27 44 -47 45
-7 0 -10 -7 -7 -15 4 -8 1 -15 -5 -15 -6 0 -11 -7 -11 -15 0 -9 9 -15 25 -15
14 0 25 -4 25 -10 0 -5 9 -10 20 -10 11 0 20 -4 20 -8 0 -4 -25 -3 -55 2 -30
6 -52 12 -50 14 2 2 -5 13 -16 25 -25 27 -24 34 6 49 l25 14 -42 32 c-37 28
-49 32 -105 32 -35 0 -63 -4 -63 -9 0 -16 50 -70 70 -76 11 -4 20 -13 20 -21
0 -9 5 -12 12 -8 6 4 8 3 5 -3 -4 -6 4 -22 17 -36 21 -22 31 -25 70 -22 50 4
65 -5 40 -26 -15 -12 -14 -14 7 -20 30 -7 59 0 59 15 0 6 9 17 19 23 16 10 22
8 37 -8 16 -18 19 -18 27 -4 6 11 3 24 -6 39 -14 21 -14 22 6 22 16 -1 22 5
23 24 2 30 -4 42 -17 35 -5 -4 -5 -14 1 -25 7 -13 7 -21 -2 -26 -7 -4 -10 -4
-6 1 4 4 3 15 -2 25 -6 12 -5 23 4 36 12 15 16 16 29 5 9 -7 14 -18 11 -26 -8
-19 14 -29 32 -14 10 8 13 21 9 37 -4 17 -2 23 7 19 7 -2 21 2 31 11 10 9 17
10 17 4 0 -6 -4 -14 -10 -17 -22 -14 -8 -31 34 -43 44 -12 67 -39 44 -53 -19
-12 -44 -6 -69 17 -22 19 -22 19 -11 -1 6 -11 18 -37 26 -57 14 -36 14 -38 -5
-38 -24 0 -25 -17 -1 -23 9 -3 2 -5 -16 -6 -26 -1 -35 4 -39 19 -7 25 -12 25
-29 2 -7 -9 -18 -17 -25 -17 -12 0 -14 -16 -10 -55 1 -5 8 -10 16 -10 9 0 12
6 9 15 -13 33 113 -2 140 -38 l19 -26 -28 -23 c-18 -14 -53 -27 -94 -33 -71
-11 -97 -35 -37 -35 19 0 38 -4 41 -10 3 -5 15 -10 27 -10 17 0 18 2 8 15 -12
15 0 22 14 8 23 -23 77 7 57 31 -8 10 -8 16 3 26 9 6 19 9 25 6 12 -8 2 34
-13 53 -9 12 -8 12 12 0 20 -12 24 -12 32 1 16 23 8 65 -12 64 -12 -1 -15 4
-11 20 2 11 4 36 4 54 0 17 3 32 8 32 14 0 35 -61 34 -97 -1 -28 2 -33 17 -28
10 3 21 1 25 -5 3 -6 11 -8 16 -5 5 3 6 0 3 -8 -3 -10 8 -20 35 -30 39 -16 56
-41 46 -68 -3 -8 4 -24 15 -36 26 -28 26 -43 0 -36 -16 4 -20 0 -20 -21 0 -14
5 -26 10 -26 6 0 12 0 15 0 3 0 14 -9 25 -20 22 -22 27 -70 7 -70 -7 0 -19 -9
-27 -20 -14 -20 -37 -29 -25 -10 3 6 2 10 -3 10 -5 0 -12 14 -16 30 -5 27 -8
30 -33 24 -16 -4 -29 -11 -31 -16 -2 -4 -8 -8 -14 -8 -6 0 -5 6 2 15 10 13 9
19 -5 35 -10 11 -20 18 -23 15 -3 -2 -14 2 -26 10 -11 8 -28 15 -38 15 -10 0
-17 3 -17 8 1 4 1 18 0 32 -1 22 -3 23 -12 7 -6 -10 -8 -25 -5 -33 3 -9 1 -12
-4 -9 -6 3 -10 -1 -10 -9 0 -9 -4 -16 -10 -16 -21 0 -9 -30 26 -64 19 -19 34
-40 33 -48 -3 -26 1 -36 21 -41 11 -3 20 -12 20 -21 0 -9 6 -16 14 -16 8 0 18
-5 22 -11 4 -6 -1 -9 -13 -7 -11 2 -27 -3 -35 -10 -23 -19 -81 -4 -75 19 6 23
-18 32 -33 13 -7 -8 -28 -14 -46 -14 -19 0 -34 -4 -34 -10 0 -5 -7 -10 -15
-10 -8 0 -15 -9 -15 -20 0 -13 -14 -26 -44 -40 -25 -11 -47 -23 -49 -27 -6 -9
18 -141 26 -150 9 -9 27 7 27 25 0 9 5 24 11 32 8 11 9 7 4 -17 -4 -19 -1 -40
7 -52 10 -16 10 -25 1 -39 -17 -29 4 -120 33 -139 16 -10 24 -25 24 -44 0 -30
17 -38 38 -17 9 9 12 8 12 -4 0 -9 9 -18 20 -21 31 -8 23 -25 -15 -33 -42 -7
-43 -19 -10 -64 14 -19 25 -37 25 -41 0 -3 -27 -9 -60 -12 -34 -3 -67 -10 -74
-16 -7 -6 -27 -8 -45 -5 -23 5 -37 2 -51 -11 -24 -22 -25 -32 -5 -51 21 -21
19 -34 -5 -34 -11 0 -33 -8 -50 -19 -31 -18 -31 -19 -8 -24 47 -11 419 3 491
19 40 8 108 21 152 29 44 7 103 19 130 25 28 6 84 18 126 25 82 15 167 54 119
56 -21 0 -22 1 -6 8 18 7 17 9 -8 28 -14 12 -26 29 -26 39 -1 23 -27 60 -36
51 -4 -4 -13 -2 -21 4 -10 9 -13 7 -13 -8 0 -10 -5 -24 -12 -31 -9 -9 -9 -12
2 -12 9 0 4 -7 -10 -17 -14 -10 -29 -17 -34 -15 -5 2 -17 -5 -27 -14 -20 -18
-77 -25 -82 -10 -8 23 23 66 47 66 30 0 56 9 56 20 0 21 -126 34 -153 15 -14
-10 -15 -14 -5 -18 9 -3 0 -18 -27 -46 -32 -34 -46 -41 -70 -39 -41 4 -45 38
-8 72 27 25 27 26 6 26 -12 0 -25 -5 -28 -11 -4 -6 -19 -7 -36 -4 -40 9 -55
-2 -33 -26 16 -18 16 -20 -2 -40 -15 -17 -27 -20 -61 -16 -54 6 -73 21 -73 58
0 20 8 34 28 46 15 10 33 23 40 30 19 18 53 17 46 -1 -9 -24 14 -27 31 -4 8
13 19 22 23 22 21 -4 51 18 65 49 21 43 21 53 2 61 -9 3 -15 18 -15 39 0 25 4
33 19 34 14 1 17 -3 14 -18 -4 -15 -2 -18 11 -13 12 5 16 0 16 -21 l0 -27 38
23 c45 28 62 44 62 58 0 6 -6 11 -14 11 -8 0 -16 7 -20 15 -3 8 -12 12 -21 9
-24 -10 -17 11 9 25 26 15 46 8 46 -15 0 -16 36 -19 45 -4 3 6 15 10 26 10 11
0 22 7 25 15 10 26 34 16 50 -20 10 -24 21 -35 35 -35 15 0 19 4 15 16 -3 9
-6 19 -6 23 0 4 -13 14 -29 24 -31 18 -46 63 -29 84 19 23 1 44 -33 38 -29 -5
-31 -4 -25 18 4 17 -3 32 -25 56 -16 18 -27 36 -24 39 3 3 11 -3 19 -13 7 -10
18 -15 24 -11 7 4 14 -3 18 -19 8 -31 30 -41 99 -44 28 -1 67 -6 88 -10 26 -6
38 -5 39 3 1 6 4 -16 7 -49 4 -33 3 -67 0 -75 -21 -47 65 -85 176 -78 41 3 80
10 87 15 7 6 25 13 40 17 47 11 220 132 298 207 20 20 48 40 61 44 13 4 39 19
57 33 32 24 33 26 26 83 -10 89 -2 107 49 113 23 3 83 10 132 17 50 7 112 11
139 10 51 -2 116 -24 116 -39 0 -5 19 -18 42 -28 23 -10 64 -36 91 -57 48 -38
168 -87 214 -87 13 0 35 12 48 26 22 24 25 36 25 101 0 43 -6 85 -14 101 -7
15 -19 50 -26 79 -6 29 -18 57 -26 64 -8 6 -14 20 -14 30 0 10 -4 20 -9 23 -4
3 -6 -6 -3 -19 6 -33 -12 -32 -46 2 l-27 28 28 5 29 5 -23 29 c-12 16 -39 36
-59 45 -42 19 -90 55 -90 67 0 5 15 16 33 24 39 18 45 41 18 79 -13 18 -18 37
-15 52 3 13 6 30 7 37 1 7 -37 34 -86 60 l-88 47 -17 -23 c-19 -25 -21 -25
-139 -16 -80 6 -112 21 -98 44 3 5 22 10 41 10 32 0 35 2 29 21 -8 23 1 23 73
3 35 -10 28 21 -10 44 -18 11 -60 30 -92 43 -62 23 -114 50 -154 80 -13 10
-30 15 -38 12 -9 -3 -29 4 -45 17 -29 20 -32 21 -49 5 -10 -9 -23 -14 -28 -11
-6 3 -18 3 -26 0 -15 -6 -15 -9 -2 -30 15 -21 14 -25 -9 -52 -14 -17 -25 -36
-25 -44 0 -18 -20 -38 -37 -38 -7 0 -13 10 -13 22 0 12 -10 32 -21 44 l-21 23
33 40 c19 22 39 41 45 41 6 0 17 14 24 30 7 17 20 34 29 39 14 9 14 13 -2 45
-9 20 -28 42 -42 48 -28 13 -33 28 -37 103 l-3 50 -66 32 c-67 33 -236 73
-309 73 -20 0 -43 -6 -50 -14 -6 -8 -34 -29 -61 -46 -27 -18 -49 -38 -49 -46
0 -8 -11 -19 -24 -24 -14 -5 -30 -18 -36 -30 -6 -12 -22 -25 -36 -30 -29 -12
-31 -34 -4 -53 21 -14 21 -15 -4 -19 -37 -7 -66 17 -66 55 -1 39 -25 110 -40
115 -21 7 -9 19 15 14 38 -7 30 14 -12 32 -21 9 -47 22 -58 28 -53 30 -76 38
-152 52 -49 8 -95 23 -113 36 -21 15 -39 20 -56 16 -31 -8 -64 9 -64 32 0 24
-54 49 -122 58 -58 7 -400 117 -435 139 -33 22 -38 65 -12 124 16 38 20 60 14
88 -14 75 -39 95 -50 41 -4 -18 -13 -44 -21 -58 -7 -14 -21 -47 -30 -75 -10
-27 -23 -57 -31 -66 -15 -18 0 -39 27 -39 19 0 49 -50 42 -70 -3 -8 -16 -23
-29 -33 -30 -24 -41 -45 -60 -115 -17 -65 -17 -93 -3 -245 7 -68 8 -113 1
-124 -10 -19 2 -38 75 -121 41 -47 64 -92 46 -92 -5 0 -15 7 -22 15 -16 19
-79 19 -104 0 -21 -16 -56 -4 -56 20 0 21 -49 55 -81 55 -35 0 -46 28 -26 67
14 25 13 28 -9 46 -13 10 -24 27 -24 37 0 10 -9 37 -20 61 -29 66 -26 102 14
146 27 31 34 46 34 83 0 25 8 84 18 132 25 126 2 208 -39 139 -20 -35 -48 -46
-76 -32 -11 6 -31 11 -44 11 -50 0 -36 83 16 95 12 2 33 6 47 7 22 3 27 11 39
63 7 33 22 90 33 126 11 36 18 81 16 100 -2 28 -8 35 -34 42 -26 8 -38 5 -73
-17 -22 -14 -41 -33 -41 -41 0 -14 -29 -35 -48 -35 -5 0 -9 15 -7 32 2 27 9
36 37 48 32 14 34 18 26 40 -11 29 -2 140 12 154 6 6 10 26 10 46 0 50 18 107
40 128 10 9 42 25 70 35 48 17 51 20 48 50 -3 27 -8 33 -32 35 -21 3 -38 -5
-65 -31 -20 -18 -60 -51 -89 -71 -28 -21 -58 -45 -65 -55 -24 -34 -57 -50 -87
-41 -15 4 -34 4 -41 -1 -8 -4 -61 -5 -119 -2 -146 9 -148 9 -213 -20 -32 -15
-63 -27 -70 -27 -7 0 -36 -9 -65 -20 -57 -22 -107 -25 -147 -10 -41 16 -163
24 -177 13 -27 -22 -76 -25 -109 -7 -18 9 -94 25 -168 35 -75 10 -147 23 -160
29 -20 9 -21 13 -10 27 12 14 30 15 144 8 218 -14 256 -12 296 13 21 13 74 28
125 37 119 21 151 32 205 70 25 18 74 48 109 66 l62 34 -263 3 c-224 2 -264 0
-271 -13 -10 -17 -80 -38 -102 -29 -12 5 -13 10 -5 25 9 18 5 19 -68 19 -69 0
-80 -3 -92 -21 -12 -20 -19 -21 -88 -16 -47 4 -81 11 -92 21 -16 14 -77 16
-515 16 -451 0 -497 -2 -503 -16z m1835 -521 c2 -17 -4 -45 -12 -62 -9 -16
-16 -39 -16 -50 0 -28 -37 -37 -62 -15 -31 29 -39 51 -32 90 8 41 53 76 94 72
20 -2 26 -9 28 -35z m238 -142 c-8 -13 -36 -15 -36 -3 0 4 5 13 12 20 14 14
34 0 24 -17z m-272 -191 c26 -25 -26 -86 -61 -73 -16 6 -17 65 -1 81 12 12 45
7 62 -8z m1494 -410 c18 -11 39 -20 47 -20 8 0 19 -9 25 -20 6 -11 31 -30 57
-42 36 -17 49 -19 64 -10 27 17 57 15 93 -7 17 -10 41 -22 54 -26 18 -5 22 -2
22 15 0 29 18 60 35 60 7 0 15 10 17 23 2 15 11 23 28 25 14 2 22 1 18 -4 -4
-4 -3 -13 3 -20 17 -21 1 -70 -26 -82 -14 -7 -25 -18 -25 -27 0 -15 56 -48
102 -59 17 -4 38 -22 53 -44 14 -20 39 -55 55 -76 27 -35 29 -41 16 -60 -17
-27 -68 -33 -91 -10 -13 14 -16 28 -11 61 6 43 5 43 -17 32 -28 -15 -46 -39
-47 -61 0 -9 -4 -19 -10 -23 -11 -7 -124 29 -157 50 -12 8 -34 15 -49 15 -15
0 -36 8 -46 17 -26 24 -86 46 -129 47 -20 1 -43 7 -51 13 -7 7 -34 21 -59 31
-47 20 -99 72 -99 98 0 8 -7 28 -15 44 -14 27 -14 32 1 55 14 21 24 25 63 25
28 0 58 -8 79 -20z m-1218 -154 c0 -37 -38 -88 -63 -84 -19 3 -22 8 -20 46 1
24 9 55 18 68 15 23 17 23 40 8 14 -9 25 -26 25 -38z m2139 5 c17 -11 7 -41
-14 -41 -9 0 -15 9 -15 25 0 27 6 30 29 16z m252 -11 c13 0 19 -7 19 -21 0
-19 -4 -20 -36 -14 -20 3 -48 11 -62 16 -21 8 -24 12 -12 20 8 5 28 7 44 4 16
-3 37 -5 47 -5z m-1897 -62 c38 -33 44 -80 15 -107 -12 -11 -30 -21 -38 -21
-9 0 -28 -7 -43 -14 -16 -8 -28 -10 -28 -5 0 5 -15 19 -33 29 -19 11 -39 32
-46 46 -10 23 -9 30 11 51 42 45 123 55 162 21z m2062 -18 c19 0 64 -45 64
-64 0 -14 -99 -66 -126 -66 -11 0 -11 6 -3 27 6 15 7 43 4 62 -7 36 8 55 33
46 8 -3 20 -5 28 -5z m-292 -40 c36 -13 34 -40 -4 -40 -32 0 -80 19 -80 31 0
7 21 15 47 18 6 0 23 -3 37 -9z m85 -19 c11 -7 9 -17 -10 -52 -14 -24 -31 -44
-39 -44 -24 0 -23 42 1 75 25 33 27 34 48 21z m-209 -15 c9 -12 4 -20 -31 -45
-48 -35 -64 -38 -73 -14 -8 21 14 44 57 60 18 6 33 12 33 12 1 1 7 -5 14 -13z
m-1880 -50 c0 -19 7 -42 17 -51 14 -14 14 -18 2 -25 -8 -6 -18 -5 -23 0 -6 6
-22 10 -37 10 -40 0 -43 13 -12 59 33 51 53 53 53 7z m310 -57 c0 -14 -17 -10
-23 5 -4 10 -1 13 9 9 7 -3 14 -9 14 -14z m1405 -9 c21 0 35 -6 39 -17 11 -28
-8 -33 -64 -16 -30 8 -61 17 -68 19 -27 8 1 26 30 20 17 -3 45 -6 63 -6z
m-1830 -10 c3 -5 1 -10 -4 -10 -6 0 -11 5 -11 10 0 6 2 10 4 10 3 0 8 -4 11
-10z m623 -33 c3 -12 -3 -17 -21 -17 -31 0 -40 10 -25 27 15 18 42 12 46 -10z
m-198 -2 c0 -8 -7 -15 -15 -15 -16 0 -20 12 -8 23 11 12 23 8 23 -8z m85 -15
c-3 -5 -13 -10 -21 -10 -8 0 -14 5 -14 10 0 6 9 10 21 10 11 0 17 -4 14 -10z
m1446 0 c25 -14 24 -38 -3 -68 l-23 -24 24 -19 c13 -10 39 -19 58 -19 63 0
127 -21 150 -50 29 -35 98 -47 150 -25 32 14 39 14 59 0 17 -11 23 -24 22 -54
0 -33 -4 -39 -22 -39 -11 0 -55 -2 -96 -4 -44 -3 -83 -1 -95 6 -22 12 -30 12
-312 19 -164 4 -208 8 -238 23 -30 14 -41 15 -56 6 -24 -16 -45 -15 -72 1 -12
8 -42 15 -66 16 -24 2 -55 7 -68 12 -37 14 -73 11 -73 -6 0 -8 -9 -15 -19 -15
-14 0 -21 8 -23 26 -2 19 -15 32 -48 50 -58 30 -90 68 -90 103 0 27 3 29 52
35 54 8 172 -3 423 -36 256 -34 253 -34 280 -8 14 13 25 33 25 45 0 36 22 45
61 25z m317 -12 c2 -11 -8 -23 -27 -33 -17 -8 -31 -19 -31 -23 0 -4 -11 -20
-24 -37 l-24 -30 -30 30 c-25 25 -28 33 -20 56 17 48 148 79 156 37z m-2730
-35 c1 -33 -6 -62 -23 -93 -50 -92 -95 -193 -95 -215 0 -10 -16 -65 -35 -123
-20 -58 -33 -112 -31 -119 4 -9 14 -11 30 -7 31 7 41 -10 22 -38 -9 -12 -16
-31 -16 -41 0 -10 -15 -33 -34 -52 -29 -29 -36 -32 -46 -20 -18 22 -25 19 -38
-18 -6 -18 -19 -42 -27 -52 -14 -19 -15 -15 -13 45 3 57 1 65 -16 68 -14 3
-17 0 -13 -12 4 -10 1 -16 -9 -16 -9 0 -24 21 -36 48 -11 26 -30 57 -41 69
l-20 22 21 51 c12 29 35 68 50 88 16 20 32 47 36 59 4 12 29 55 55 95 27 40
52 89 56 108 13 62 67 150 92 150 8 0 17 -9 21 -21 8 -20 11 -18 53 24 24 25
47 45 50 46 4 1 7 -20 7 -46z m3211 38 c11 -7 9 -13 -8 -30 -24 -24 -53 -27
-70 -7 -19 22 -2 46 33 46 17 0 37 -4 45 -9z m-2122 -28 c5 -13 -25 -26 -38
-17 -6 3 -5 11 2 20 13 16 31 14 36 -3z m-255 -28 c0 -5 -5 -11 -11 -13 -6 -2
-11 4 -11 13 0 9 5 15 11 13 6 -2 11 -8 11 -13z m2416 -77 c20 -17 14 -28 -18
-28 -18 0 -42 -11 -62 -28 -18 -16 -42 -34 -53 -39 -16 -9 -9 -12 40 -18 68
-7 127 -27 133 -44 5 -14 -24 -15 -33 -1 -10 16 -48 12 -42 -4 7 -17 -11 -36
-35 -36 -10 0 -21 -6 -23 -13 -8 -19 -151 -14 -174 7 -10 9 -22 16 -27 16 -6
0 -23 14 -40 32 -23 24 -25 29 -9 23 42 -16 91 -27 125 -29 33 -1 35 1 38 32
3 26 0 32 -16 32 -11 0 -35 6 -53 14 l-34 14 28 11 c15 6 27 17 27 24 0 8 8
21 18 31 17 15 23 15 61 1 40 -14 45 -14 69 5 25 20 52 19 80 -2z m-1608 -73
c0 -9 -7 -18 -16 -22 -18 -7 -39 11 -30 26 11 17 46 13 46 -4z m-100 -5 c0 -5
-2 -10 -4 -10 -3 0 -8 5 -11 10 -3 6 -1 10 4 10 6 0 11 -4 11 -10z m1340 -10
c0 -5 -4 -10 -10 -10 -5 0 -10 5 -10 10 0 6 5 10 10 10 6 0 10 -4 10 -10z
m-1408 -32 c6 -16 -1 -38 -12 -38 -4 0 -7 11 -7 25 0 26 12 34 19 13z m329 1
c16 -8 19 -17 14 -38 -9 -42 15 -58 64 -41 41 13 78 11 74 -5 -2 -6 -17 -10
-33 -11 -17 -1 -36 -6 -41 -11 -7 -7 -20 -7 -40 0 -24 9 -35 8 -64 -7 -44 -24
-54 -15 -32 27 14 26 16 39 8 61 -6 15 -11 29 -11 32 0 8 42 4 61 -7z m1640
-35 c74 -46 84 -57 64 -74 -16 -13 -33 -11 -108 16 -45 16 -77 51 -77 84 0 22
64 9 121 -26z m-1941 -25 c0 -6 -4 -7 -10 -4 -5 3 -10 11 -10 16 0 6 5 7 10 4
6 -3 10 -11 10 -16z m-1916 -56 c-11 -47 -26 -58 -40 -31 -11 20 -10 25 9 40
31 25 38 22 31 -9z m2455 3 c10 -11 8 -16 -9 -21 -22 -7 -53 11 -44 26 8 14
40 11 53 -5z m1134 -27 c41 -21 67 -52 67 -80 0 -26 30 -60 86 -97 17 -11 15
-11 -16 -6 -19 4 -53 8 -76 8 -24 1 -54 12 -73 25 -27 20 -31 27 -26 52 4 18
2 29 -4 29 -6 0 -11 7 -11 15 0 8 9 15 20 15 11 0 20 5 20 10 0 6 -7 10 -15
10 -16 0 -20 12 -8 23 8 9 11 9 36 -4z m135 -12 c94 5 115 4 132 -12 20 -18
20 -39 2 -57 -7 -7 -12 -18 -12 -25 0 -7 -4 -13 -10 -13 -5 0 -10 -7 -10 -16
0 -13 -7 -15 -37 -9 -36 6 -62 28 -63 51 0 6 -11 16 -25 22 -13 6 -31 25 -40
42 l-16 31 28 -8 c15 -4 38 -7 51 -6z m289 1 c27 -10 32 -16 28 -37 -7 -41
-19 -45 -81 -22 -75 29 -76 29 -64 52 13 22 65 26 117 7z m-2372 -28 c3 -5 1
-10 -4 -10 -6 0 -11 5 -11 10 0 6 2 10 4 10 3 0 8 -4 11 -10z m1324 -36 l66
-36 33 18 c52 28 107 -4 127 -73 9 -31 -9 -30 -70 3 -41 22 -50 23 -62 11 -12
-12 -23 -11 -76 7 -34 12 -66 25 -72 29 -5 4 -18 14 -29 21 -15 10 -17 16 -7
34 6 12 14 22 17 22 4 0 36 -16 73 -36z m981 -14 c0 -5 -2 -10 -4 -10 -3 0 -8
5 -11 10 -3 6 -1 10 4 10 6 0 11 -4 11 -10z m120 -40 c0 -5 -4 -10 -10 -10 -5
0 -10 5 -10 10 0 6 5 10 10 10 6 0 10 -4 10 -10z m-1892 -25 c-3 -3 -9 2 -12
12 -6 14 -5 15 5 6 7 -7 10 -15 7 -18z m1717 -5 c3 -5 -1 -10 -10 -10 -9 0
-13 5 -10 10 3 6 8 10 10 10 2 0 7 -4 10 -10z m216 -17 c33 -19 36 -28 14 -37
-8 -3 -15 -12 -15 -21 0 -22 -36 -19 -60 5 -20 20 -26 50 -13 63 11 12 44 7
74 -10z m-4371 -17 c0 -16 -18 -31 -27 -22 -8 8 5 36 17 36 5 0 10 -6 10 -14z
m3332 2 c38 1 121 -109 104 -137 -8 -12 -73 13 -102 40 -11 11 -34 23 -50 28
-29 8 -30 7 -26 -20 3 -17 0 -29 -7 -29 -6 0 -11 8 -12 18 -2 47 -7 63 -24 76
-30 22 -9 35 48 29 28 -3 60 -5 69 -5z m-3118 -8 c-30 -12 -34 -29 -34 -139 0
-149 -6 -183 -32 -205 -13 -10 -22 -24 -20 -31 1 -7 -7 -15 -19 -18 -16 -4
-19 -11 -14 -26 5 -18 3 -20 -17 -17 -13 3 -31 5 -42 5 -16 1 -17 3 -5 17 8 9
31 28 52 41 63 39 87 104 87 233 0 111 13 151 48 149 13 0 12 -2 -4 -9z m3970
-35 c20 -14 41 -25 46 -25 16 0 12 -16 -9 -34 -26 -24 -68 -11 -87 26 -15 29
-13 58 4 58 5 0 26 -11 46 -25z m-1030 -17 c-10 -18 -19 -28 -21 -21 -5 15 15
53 28 53 5 0 2 -15 -7 -32z m396 -3 c0 -8 -9 -23 -21 -34 -12 -11 -18 -25 -14
-31 4 -6 1 -18 -7 -27 -10 -13 -10 -17 0 -20 6 -3 12 -11 12 -18 0 -7 5 -15
11 -17 7 -2 7 -12 0 -31 -9 -24 -13 -26 -25 -15 -8 9 -11 26 -8 47 3 23 1 32
-6 27 -7 -4 -5 12 4 44 8 28 12 55 9 60 -9 15 4 30 26 30 10 0 19 -7 19 -15z
m563 -33 c23 -30 26 -38 13 -40 -9 -2 -16 -12 -16 -23 0 -32 -26 -21 -60 24
l-31 42 22 18 c30 24 40 21 72 -21z m280 -8 c17 -23 17 -24 0 -24 -24 0 -63
27 -63 44 0 21 43 7 63 -20z m-3756 -68 c22 -24 43 -50 45 -56 2 -7 18 -13 36
-14 29 -1 30 -2 15 -14 -22 -15 -62 -7 -80 16 -11 16 -13 14 -13 -15 0 -5 5
-8 12 -8 6 0 12 -7 14 -15 1 -8 9 -32 18 -53 18 -41 19 -110 1 -104 -5 2 -9
22 -7 45 4 49 -16 89 -62 120 -37 25 -47 27 -43 10 2 -15 -92 -12 -107 2 -5 5
1 6 14 3 17 -5 21 -3 15 7 -5 8 -4 11 2 7 14 -9 45 39 41 63 -3 19 26 49 48
50 5 0 29 -20 51 -44z m2923 15 c0 -17 -4 -33 -10 -36 -6 -4 -10 8 -10 29 0
20 5 36 10 36 6 0 10 -13 10 -29z m-260 12 c0 -16 -25 -73 -32 -73 -4 0 -7 18
-6 40 1 32 5 40 20 40 10 0 18 -3 18 -7z m910 -3 c0 -5 -2 -10 -4 -10 -3 0 -8
5 -11 10 -3 6 -1 10 4 10 6 0 11 -4 11 -10z m-804 -24 c1 -7 5 -22 8 -33 4
-11 2 -31 -3 -44 -5 -13 -10 -18 -10 -11 -1 6 -10 12 -22 12 -19 0 -19 -1 -5
-22 9 -12 16 -28 16 -36 0 -12 -36 -48 -82 -80 -17 -13 -17 -11 2 23 11 19 20
40 20 45 0 13 -40 -12 -40 -25 -1 -5 -7 -23 -16 -40 l-14 -30 5 30 c7 38 45
116 65 133 12 11 12 14 2 19 -9 3 -1 17 25 42 39 37 46 40 49 17z m1001 2 c23
-22 31 -48 14 -48 -5 0 -11 -8 -13 -17 -3 -14 -9 -10 -26 17 -39 62 -23 93 25
48z m-4453 -42 c-6 -16 -34 -30 -42 -21 -6 5 28 34 40 35 4 0 5 -6 2 -14z
m3273 -8 c-3 -8 -6 -5 -6 6 -1 11 2 17 5 13 3 -3 4 -12 1 -19z m1047 -13 c13
-19 13 -25 3 -25 -17 0 -37 20 -37 37 0 21 16 15 34 -12z m-1494 -55 c0 -4 -9
-6 -21 -3 -15 4 -17 8 -8 14 14 8 29 3 29 -11z m1760 4 c0 -8 4 -13 9 -10 5 3
15 -1 22 -10 11 -14 9 -15 -15 -12 -31 3 -59 48 -31 48 8 0 15 -7 15 -16z
m-3965 -17 c11 -9 14 -16 7 -21 -6 -3 -13 -2 -17 4 -4 6 -11 8 -16 4 -14 -8
-41 4 -34 16 9 14 38 12 60 -3z m2939 -2 c3 -8 1 -15 -4 -15 -6 0 -10 7 -10
15 0 8 2 15 4 15 2 0 6 -7 10 -15z m909 -10 c10 -14 15 -25 11 -25 -11 0 -44
32 -44 42 0 15 15 8 33 -17z m-4177 0 c-11 -8 -22 -12 -25 -9 -6 6 19 24 34
24 6 -1 1 -7 -9 -15z m54 -31 c0 -23 -33 -75 -45 -71 -18 6 -17 36 2 61 20 29
43 34 43 10z m110 0 c0 -2 -7 -4 -15 -4 -8 0 -15 4 -15 10 0 5 7 7 15 4 8 -4
15 -8 15 -10z m4140 -13 c0 -5 3 -16 6 -25 9 -23 -23 -20 -35 3 -6 10 -7 21
-4 25 10 9 33 7 33 -3z m73 -16 c4 -8 2 -17 -3 -20 -6 -4 -10 3 -10 14 0 25 6
27 13 6z m-4893 -24 c0 -5 -8 -17 -17 -27 -20 -20 -32 -1 -13 21 14 17 30 20
30 6z m3501 -44 c-14 -14 -26 17 -16 41 6 15 8 14 16 -7 6 -16 6 -28 0 -34z
m-2621 23 c0 -5 -2 -10 -4 -10 -3 0 -8 5 -11 10 -3 6 -1 10 4 10 6 0 11 -4 11
-10z m50 6 c0 -3 -4 -8 -10 -11 -5 -3 -10 -1 -10 4 0 6 5 11 10 11 6 0 10 -2
10 -4z m2806 -23 c-10 -10 -19 5 -10 18 6 11 8 11 12 0 2 -7 1 -15 -2 -18z
m-3076 -10 c0 -22 -2 -25 -10 -13 -13 20 -13 40 0 40 6 0 10 -12 10 -27z
m2410 7 c0 -5 -4 -10 -10 -10 -5 0 -10 5 -10 10 0 6 5 10 10 10 6 0 10 -4 10
-10z m-150 -14 c0 -2 -13 -9 -30 -14 -21 -8 -32 -8 -36 0 -4 6 -3 8 4 4 6 -3
13 -2 17 4 6 9 45 15 45 6z m-2568 -20 c32 -1 47 -38 26 -64 -24 -29 -91 -52
-148 -51 l-55 1 51 8 c108 16 178 54 106 58 -112 6 -153 14 -150 30 4 21 51
32 103 24 22 -3 52 -6 67 -6z m2218 -46 c0 -15 -30 -27 -56 -22 -13 2 -21 8
-18 13 3 5 0 9 -7 9 -8 0 -5 7 6 20 16 18 20 18 46 4 16 -8 29 -19 29 -24z
m390 30 c0 -5 -5 -10 -11 -10 -5 0 -7 5 -4 10 3 6 8 10 11 10 2 0 4 -4 4 -10z
m534 -41 c-28 -31 -37 -22 -13 13 13 18 25 26 27 19 2 -7 -4 -21 -14 -32z
m-3335 19 c0 -7 -4 -22 -8 -33 -7 -17 -8 -17 -13 8 -3 14 -3 29 0 32 10 9 22
5 21 -7z m2881 -65 c-1 -27 -1 -27 -15 -9 -19 25 -19 36 0 36 10 0 15 -10 15
-27z m-539 -45 c1 -7 1 -22 0 -33 -1 -13 8 -24 29 -33 16 -8 30 -20 30 -28 0
-16 -16 -19 -24 -5 -3 5 -17 11 -31 14 -19 3 -25 1 -21 -9 3 -8 -1 -14 -9 -14
-8 0 -15 5 -15 10 0 6 -7 10 -15 10 -19 0 -20 16 -1 23 8 3 18 22 22 41 6 34
33 51 35 24z m329 -84 c0 -14 -4 -22 -10 -19 -5 3 -9 17 -8 30 3 31 18 21 18
-11z m110 12 c0 -3 -4 -8 -10 -11 -5 -3 -10 -1 -10 4 0 6 5 11 10 11 6 0 10
-2 10 -4z m-331 -20 c7 -8 8 -17 3 -19 -4 -3 -13 3 -20 14 -14 22 0 26 17 5z
m306 -16 c-3 -5 -10 -10 -16 -10 -5 0 -9 5 -9 10 0 6 7 10 16 10 8 0 12 -4 9
-10z m-375 -22 c0 -10 -40 -47 -52 -48 -11 0 -10 34 2 46 13 13 50 15 50 2z
m-56 -73 c3 -9 0 -15 -9 -15 -16 0 -27 14 -18 24 10 10 21 7 27 -9z m212 -89
c3 -8 0 -24 -6 -36 -14 -25 -53 -24 -58 2 -2 13 1 16 12 12 14 -6 21 5 17 29
-2 13 30 7 35 -7z"/>
<path d="M2107 1983 c-11 -10 -8 -43 3 -43 6 0 10 11 10 25 0 26 -2 29 -13 18z"/>
<path d="M4895 1780 c-3 -5 -1 -10 4 -10 6 0 11 5 11 10 0 6 -2 10 -4 10 -3 0
-8 -4 -11 -10z"/>
<path d="M2186 1644 c-20 -19 -20 -25 -2 -18 8 3 17 12 20 20 7 18 1 18 -18
-2z"/>
<path d="M4946 1541 c-4 -7 -5 -15 -2 -18 9 -9 19 4 14 18 -4 11 -6 11 -12 0z"/>
<path d="M3756 4116 c-6 -46 -2 -69 28 -158 19 -56 40 -130 47 -163 6 -33 16
-69 22 -79 5 -11 58 -67 117 -125 59 -59 119 -127 134 -153 15 -26 35 -49 44
-52 30 -9 104 -16 252 -26 80 -6 201 -15 270 -21 69 -5 157 -12 195 -14 39 -2
88 -9 110 -14 61 -16 433 -71 482 -71 47 0 51 4 28 27 -19 18 -17 109 3 125 6
6 12 21 12 35 0 18 -9 28 -35 39 -19 7 -46 14 -60 14 -17 0 -46 19 -90 60 -70
65 -94 75 -163 67 -47 -5 -91 6 -103 25 -4 6 -2 25 3 42 26 82 39 149 48 241
5 55 14 120 20 145 5 25 13 60 16 78 l7 32 -691 0 -690 0 -6 -54z"/>
<path d="M48 3932 l-48 -3 0 -186 c0 -172 1 -185 18 -178 9 4 129 9 265 12
l248 6 32 54 c18 30 65 101 105 158 39 56 72 108 72 115 0 16 -324 6 -367 -11
-39 -16 -82 -13 -160 10 -86 25 -107 28 -165 23z m80 -70 c65 -33 77 -43 91
-80 13 -36 13 -43 -2 -66 -16 -24 -21 -25 -80 -20 -79 8 -107 31 -105 86 1 32
6 40 25 44 14 4 22 12 19 19 -9 24 18 33 52 17z"/>
<path d="M5797 3240 c-37 -4 -73 -12 -79 -18 -7 -7 -17 -7 -34 1 -18 7 -28 7
-36 -1 -12 -12 -17 -11 141 -43 80 -16 109 -18 128 -10 13 6 39 11 56 11 18 0
38 5 44 11 9 9 20 8 45 -3 51 -24 74 -29 138 -32 l60 -2 0 42 c0 23 -4 44 -10
46 -5 2 -52 0 -102 -3 -51 -3 -118 -2 -148 2 -61 10 -102 10 -203 -1z"/>
<path d="M1093 2898 c-6 -7 -13 -21 -17 -32 -6 -17 -3 -18 30 -13 20 3 42 12
50 18 13 10 10 14 -17 26 -38 16 -34 16 -46 1z"/>
<path d="M1900 2866 c0 -22 29 -41 42 -28 8 8 8 15 -2 27 -16 19 -40 20 -40 1z"/>
<path d="M1720 2768 c0 -18 18 -34 28 -24 3 4 -2 14 -11 23 -16 16 -17 16 -17
1z"/>
<path d="M1894 2748 c-17 -32 -24 -101 -13 -113 4 -3 47 1 97 9 70 11 97 20
118 39 33 30 23 38 -56 42 -58 2 -110 24 -110 45 0 21 -20 9 -36 -22z"/>
<path d="M1570 2626 c-6 -8 -25 -16 -42 -18 -30 -3 -32 -7 -51 -76 -11 -40
-17 -76 -13 -79 3 -4 19 3 34 14 19 15 26 29 25 47 -3 43 36 62 100 49 45 -10
54 -9 65 5 18 23 15 32 -12 32 -13 0 -35 9 -49 20 -30 24 -41 25 -57 6z"/>
<path d="M1436 2404 c-4 -15 -2 -32 5 -40 12 -15 49 -20 49 -6 0 9 -38 72 -44
72 -2 0 -7 -12 -10 -26z"/>
<path d="M2560 2265 c0 -9 5 -15 11 -13 6 2 11 8 11 13 0 5 -5 11 -11 13 -6 2
-11 -4 -11 -13z"/>
<path d="M3290 2249 c0 -5 9 -9 20 -9 11 0 20 2 20 4 0 2 -9 6 -20 9 -11 3
-20 1 -20 -4z"/>
<path d="M2720 2230 c-8 -5 -12 -11 -9 -14 2 -3 11 -1 19 4 8 5 12 11 9 14 -2
3 -11 1 -19 -4z"/>
<path d="M3065 2230 c3 -6 -2 -10 -12 -10 -13 0 -15 -2 -5 -9 7 -4 12 -12 11
-17 -4 -25 4 -34 30 -34 36 0 52 39 20 47 -10 3 -19 9 -19 13 0 4 -7 11 -16
14 -8 3 -12 2 -9 -4z"/>
<path d="M1727 2203 c-10 -9 -9 -23 2 -23 5 0 11 7 15 15 5 15 -5 20 -17 8z"/>
<path d="M2958 2146 c-32 -10 -55 -23 -52 -28 3 -5 -2 -16 -12 -23 -16 -12
-16 -14 -3 -15 9 0 24 9 34 20 12 13 25 18 41 14 26 -7 58 17 52 39 -2 9 -17
8 -60 -7z"/>
<path d="M2927 2072 c-22 -4 -19 -35 4 -40 18 -3 31 19 21 34 -4 6 -15 8 -25
6z"/>
<path d="M1531 2046 c-7 -9 -8 -17 -2 -20 13 -9 43 4 38 17 -5 17 -23 19 -36
3z"/>
<path d="M2971 2035 c0 -5 8 -26 19 -45 16 -28 19 -31 20 -14 0 12 -9 32 -20
45 -10 13 -19 20 -19 14z"/>
<path d="M1298 2019 c-28 -16 -21 -29 16 -29 38 0 57 17 35 31 -18 11 -30 11
-51 -2z"/>
<path d="M3080 2003 c1 -14 30 -48 30 -34 0 7 -7 19 -15 27 -8 9 -15 12 -15 7z"/>
<path d="M2946 1968 c-7 -36 11 -55 32 -35 10 10 10 18 0 40 -17 35 -24 34
-32 -5z"/>
<path d="M3050 1962 c0 -4 5 -13 12 -20 9 -9 6 -12 -15 -12 -15 0 -28 -4 -28
-10 -1 -5 -2 -14 -3 -19 0 -5 -4 -13 -8 -17 -5 -4 -8 -14 -8 -21 0 -12 4 -11
22 1 12 9 36 16 53 16 54 0 59 13 21 53 -35 37 -46 44 -46 29z"/>
<path d="M3270 1930 c0 -11 -5 -20 -12 -20 -7 0 -2 -10 10 -22 22 -22 22 -22
42 -3 26 27 17 65 -16 65 -17 0 -24 -6 -24 -20z"/>
<path d="M3444 1916 c-4 -15 -1 -32 6 -41 10 -12 9 -16 -4 -21 -10 -4 -15 -13
-12 -20 3 -8 0 -11 -8 -8 -7 3 -18 -7 -24 -21 -14 -31 -30 -32 -34 -2 -2 14
-11 23 -25 25 -37 5 -28 -25 12 -44 l36 -17 -21 -22 c-19 -21 -19 -22 -3 -37
10 -9 35 -19 56 -22 21 -4 41 -14 44 -22 5 -13 8 -13 23 1 9 8 19 12 22 9 4
-3 9 5 13 18 4 13 17 30 28 40 17 13 19 19 9 30 -6 8 -9 18 -5 21 3 4 -2 7
-11 7 -14 0 -17 6 -13 27 5 27 -10 73 -23 73 -15 0 -7 -49 9 -53 14 -4 14 -5
-1 -6 -10 0 -18 -7 -18 -15 0 -12 -20 -26 -36 -26 -9 0 -3 37 8 48 9 9 9 12
-1 12 -7 0 -10 4 -6 9 3 5 0 13 -7 17 -9 6 -6 10 9 14 21 5 21 5 3 28 l-19 23
-7 -25z m26 -156 c13 -8 13 -9 0 -14 -8 -2 -30 -9 -49 -15 -39 -13 -57 -6 -40
15 14 17 36 18 42 2 3 -8 6 -6 6 5 1 19 18 22 41 7z"/>
<path d="M3328 1883 c7 -3 16 -2 19 1 4 3 -2 6 -13 5 -11 0 -14 -3 -6 -6z"/>
<path d="M3215 1870 c-18 -8 -17 -9 7 -9 15 -1 30 4 33 9 7 12 -12 12 -40 0z"/>
<path d="M3400 1870 c0 -5 5 -10 10 -10 6 0 10 5 10 10 0 6 -4 10 -10 10 -5 0
-10 -4 -10 -10z"/>
<path d="M3292 1861 c-10 -6 -9 -10 7 -14 14 -3 21 0 21 9 0 16 -9 18 -28 5z"/>
<path d="M4000 1840 c6 -11 12 -20 14 -20 2 0 2 9 -1 20 -3 11 -9 20 -15 20
-5 0 -4 -9 2 -20z"/>
<path d="M3650 1836 c0 -22 11 -46 21 -46 4 0 6 7 3 15 -8 19 3 19 23 0 8 -9
22 -15 30 -13 29 6 17 23 -29 40 -39 14 -48 15 -48 4z"/>
<path d="M3275 1822 c-5 -4 -10 -21 -10 -39 1 -17 -3 -29 -7 -27 -4 3 -8 -2
-8 -10 0 -22 23 -20 44 3 11 12 14 21 7 26 -6 3 -8 17 -5 31 6 24 -2 30 -21
16z"/>
<path d="M2405 1788 c13 -66 28 -89 53 -83 12 3 22 1 22 -5 0 -5 -8 -10 -17
-10 -14 0 -13 -3 5 -20 12 -12 22 -24 22 -27 0 -3 -8 1 -18 10 -26 24 -34 21
-21 -5 7 -13 17 -32 22 -43 6 -11 19 -36 29 -55 l19 -35 -5 33 c-4 25 -3 31 7
25 6 -4 4 5 -5 19 -13 19 -14 28 -5 31 8 3 6 11 -8 27 -11 12 -19 24 -17 26 1
2 2 29 2 59 0 43 -3 53 -14 49 -9 -3 -17 3 -21 15 -4 14 -15 21 -31 21 -24 0
-25 -3 -19 -32z"/>
<path d="M3818 1738 c-4 -23 0 -37 11 -45 23 -17 58 -16 65 3 8 22 9 22 -19
16 -21 -4 -26 0 -31 27 -8 40 -20 40 -26 -1z"/>
<path d="M4075 1740 c-3 -5 -2 -10 4 -10 5 0 13 5 16 10 3 6 2 10 -4 10 -5 0
-13 -4 -16 -10z"/>
<path d="M3670 1703 c1 -19 18 -33 34 -27 13 5 14 9 5 20 -12 15 -39 19 -39 7z"/>
<path d="M3580 1660 c0 -10 -5 -22 -11 -25 -6 -4 -8 -14 -5 -22 8 -20 -4 -39
-14 -23 -6 9 -13 7 -28 -8 -11 -11 -28 -24 -38 -30 -30 -17 -6 -31 65 -38 l63
-7 -7 24 c-7 21 -6 22 8 11 13 -11 17 -10 27 8 13 25 67 50 106 50 26 0 26 1
11 18 -10 10 -17 24 -17 31 0 9 -12 10 -43 6 -29 -5 -55 -2 -80 9 -35 14 -37
14 -37 -4z"/>
<path d="M2546 1534 c2 -48 -2 -60 -27 -88 l-28 -33 64 -57 c36 -32 65 -65 65
-74 -1 -13 -3 -12 -13 5 -7 12 -38 45 -68 72 l-56 50 -84 -34 c-46 -19 -90
-35 -98 -35 -8 0 -42 -7 -75 -15 -210 -50 -282 -68 -291 -73 -10 -7 -16 -8
-48 -10 -15 -2 -16 -6 -7 -22 14 -27 69 -23 90 6 8 11 26 21 40 21 14 0 38 5
53 12 48 19 52 0 5 -27 -23 -14 -45 -29 -48 -32 -3 -4 -17 -10 -32 -13 -14 -4
-34 -10 -44 -14 -14 -5 -16 -3 -11 10 6 15 4 16 -16 6 -17 -10 -19 -13 -7 -17
8 -3 28 -18 44 -34 25 -26 27 -31 13 -46 -14 -16 -12 -42 4 -52 4 -3 10 -19
14 -35 l7 -30 -26 30 c-14 17 -43 63 -63 104 -21 40 -39 68 -41 62 -2 -6 0
-17 6 -24 23 -30 22 -48 -3 -57 -16 -6 -25 -17 -25 -31 0 -12 -3 -19 -7 -16
-3 4 0 25 7 48 12 35 12 45 -1 67 -19 34 -33 30 -40 -10 l-6 -33 -2 33 c-1 21
-6 32 -16 32 -22 0 -66 -95 -72 -156 -6 -52 -6 -53 -34 -47 -35 7 -183 -6
-174 -15 4 -4 50 -9 103 -12 80 -5 93 -8 73 -16 l-25 -11 25 -5 c13 -3 42 -6
63 -7 21 -1 47 -6 57 -11 23 -13 89 -13 89 0 0 6 14 10 30 10 34 0 38 14 14
48 -9 13 -14 26 -11 29 7 6 33 -34 42 -65 3 -12 3 -22 -2 -21 -15 4 -63 -13
-63 -22 0 -14 88 -11 93 4 3 7 19 -5 42 -31 20 -24 45 -42 54 -40 9 1 42 -8
73 -20 58 -22 177 -52 205 -52 10 0 13 6 9 18 -5 14 -4 14 9 -2 8 -11 15 -28
15 -38 0 -29 28 -33 55 -8 15 14 40 23 72 26 99 9 120 13 215 37 54 14 112 37
130 50 18 13 47 27 65 30 45 9 134 -33 201 -94 54 -49 85 -60 45 -16 -11 12
-23 30 -26 40 -4 9 -11 17 -16 17 -6 0 -16 18 -22 40 -7 22 -15 40 -19 40 -4
0 -8 10 -8 23 0 32 -29 94 -50 109 -17 12 -42 49 -42 62 0 4 9 1 20 -6 11 -7
20 -19 20 -26 0 -7 5 -10 10 -7 17 11 11 31 -20 64 -36 37 -40 38 -40 7 0 -14
-4 -28 -10 -31 -5 -3 -7 -18 -5 -33 3 -15 6 -45 8 -67 2 -22 6 -46 11 -53 8
-14 -3 -16 -22 -4 -8 5 -13 40 -16 98 l-3 89 -29 5 c-17 3 -33 15 -40 29 -7
13 -16 26 -21 30 -14 10 -33 60 -33 87 0 38 -98 130 -175 164 -72 32 -98 72
-88 133 3 20 2 37 -3 37 -6 0 -9 -25 -8 -56z m94 -174 c0 -5 -2 -10 -4 -10 -3
0 -8 5 -11 10 -3 6 -1 10 4 10 6 0 11 -4 11 -10z m-105 -20 c3 -6 -1 -7 -9 -4
-18 7 -21 14 -7 14 6 0 13 -4 16 -10z m-100 -30 c-3 -5 3 -10 15 -10 12 0 18
-4 15 -11 -4 -5 5 -21 20 -33 22 -19 34 -22 54 -16 26 7 27 6 29 -30 2 -21 -2
-41 -8 -45 -6 -4 -9 -2 -8 2 4 13 -57 73 -74 73 -7 0 -25 6 -40 14 -18 10 -29
11 -37 3 -7 -7 -12 -5 -17 8 -5 12 0 24 15 37 25 19 46 24 36 8z m-195 -156
c29 -65 41 -108 18 -70 -15 26 -57 136 -52 136 2 0 17 -30 34 -66z m-95 -54
c-4 -23 -9 -39 -11 -37 -3 2 -2 23 2 46 4 23 9 40 11 37 3 -3 2 -23 -2 -46z
m245 40 c0 -5 -7 -7 -15 -4 -8 4 -15 8 -15 10 0 2 7 4 15 4 8 0 15 -4 15 -10z
m-360 -81 c0 -4 -5 -11 -12 -15 -13 -8 -51 33 -42 47 6 10 54 -18 54 -32z
m-260 2 c0 -5 -7 -12 -16 -15 -14 -5 -15 -4 -4 9 14 17 20 19 20 6z m151 -13
c10 -18 9 -20 -5 -15 -13 5 -16 0 -16 -26 -1 -27 -2 -29 -11 -14 -6 9 -14 15
-19 12 -15 -9 2 40 18 53 20 16 19 16 33 -10z m265 -69 c-9 -21 -17 -49 -17
-62 -1 -19 -2 -19 -6 -3 -6 21 29 134 35 116 2 -6 -3 -29 -12 -51z m-125 14
c13 -15 12 -15 -8 -4 -24 12 -29 21 -14 21 5 0 15 -7 22 -17z m257 -198 c0 -5
-6 4 -13 20 -8 17 -14 37 -14 45 0 8 7 -1 14 -20 7 -19 13 -39 13 -45z"/>
<path d="M988 1500 c-32 -33 -58 -65 -58 -72 1 -36 59 -78 108 -78 16 0 41 -9
54 -20 25 -19 26 -19 43 0 23 25 12 39 -37 46 -23 4 -49 15 -59 25 -10 10 -25
16 -34 13 -9 -4 -15 0 -15 10 0 10 6 13 15 10 8 -4 15 -1 15 5 0 6 12 29 26
51 24 36 27 71 7 69 -4 0 -34 -27 -65 -59z"/>
<path d="M2445 1551 c-3 -5 -1 -12 5 -16 5 -3 10 1 10 9 0 18 -6 21 -15 7z"/>
<path d="M3840 1540 c0 -6 -5 -8 -10 -5 -6 4 -17 1 -25 -5 -12 -10 -12 -15 2
-36 9 -15 11 -24 4 -24 -6 0 -11 6 -11 14 0 15 -18 23 -66 32 -15 3 -35 9 -45
14 -23 13 -32 13 -24 0 3 -5 1 -10 -4 -10 -6 0 -11 -12 -11 -26 0 -23 3 -26
26 -21 18 3 24 1 20 -9 -3 -7 -1 -16 5 -19 5 -4 7 -11 4 -16 -4 -5 -1 -9 4 -9
10 0 15 13 13 31 -1 4 7 5 18 2 11 -3 17 -9 14 -14 -3 -5 2 -9 10 -9 22 0 20
-8 -8 -45 -16 -21 -22 -39 -19 -57 5 -29 9 -27 53 16 14 14 17 22 8 27 -7 5 0
14 21 27 23 14 44 18 75 15 29 -4 46 -1 51 7 6 10 2 12 -14 7 -18 -4 -23 0
-28 24 -7 36 -23 38 -23 4 0 -14 -4 -25 -10 -25 -5 0 -10 18 -10 40 0 23 -5
40 -11 40 -8 0 -8 4 0 14 8 10 9 16 1 21 -5 3 -10 1 -10 -5z m-17 -99 c4 -18
2 -18 -20 -8 -23 10 -23 12 -6 18 10 4 19 8 19 8 1 1 4 -8 7 -18z"/>
<path d="M4181 1504 c0 -11 3 -14 6 -6 3 7 2 16 -1 19 -3 4 -6 -2 -5 -13z"/>
<path d="M3691 1403 c-1 -7 -8 -13 -16 -13 -18 0 -19 -9 -1 -32 13 -18 32 -25
22 -9 -4 5 -2 11 2 13 5 1 5 14 1 28 -4 14 -7 19 -8 13z"/>
<path d="M5464 1390 c-21 -8 -12 -14 37 -28 38 -10 66 -2 55 16 -7 12 -68 20
-92 12z"/>
<path d="M3553 1218 c-13 -6 -23 -15 -23 -20 0 -12 33 -9 53 6 33 25 13 35
-30 14z"/>
<path d="M3591 1199 l-23 -9 32 -30 c18 -17 36 -30 41 -30 15 0 10 28 -7 34
-10 4 -13 13 -9 26 7 22 2 23 -34 9z"/>
<path d="M2915 1190 c3 -5 11 -10 16 -10 6 0 7 5 4 10 -3 6 -11 10 -16 10 -6
0 -7 -4 -4 -10z"/>
<path d="M3660 1160 c0 -5 5 -10 10 -10 6 0 10 5 10 10 0 6 -4 10 -10 10 -5 0
-10 -4 -10 -10z"/>
<path d="M1200 1140 c0 -23 10 -26 28 -8 18 18 15 28 -8 28 -13 0 -20 -7 -20
-20z"/>
<path d="M1678 1135 c-7 -15 -17 -24 -25 -21 -8 4 -13 -3 -13 -19 0 -26 21
-46 28 -27 2 7 10 12 17 12 13 0 27 28 30 63 2 26 -24 20 -37 -8z"/>
<path d="M1926 1121 c-3 -5 1 -14 9 -21 12 -10 15 -10 15 3 0 19 -16 31 -24
18z"/>
<path d="M1180 1080 c0 -5 7 -7 15 -4 8 4 15 8 15 10 0 2 -7 4 -15 4 -8 0 -15
-4 -15 -10z"/>
<path d="M1566 1053 c-6 -14 -5 -15 5 -6 7 7 10 15 7 18 -3 3 -9 -2 -12 -12z"/>
<path d="M3515 1050 c3 -5 8 -10 11 -10 2 0 4 5 4 10 0 6 -5 10 -11 10 -5 0
-7 -4 -4 -10z"/>
<path d="M1168 1038 c9 -9 15 -9 24 0 9 9 7 12 -12 12 -19 0 -21 -3 -12 -12z"/>
<path d="M3590 953 c0 -11 5 -24 12 -31 6 -6 13 -33 14 -58 1 -31 7 -50 18
-56 19 -11 21 -39 4 -56 -9 -9 -8 -12 4 -12 17 0 23 11 33 72 7 38 -2 59 -62
131 -19 24 -23 25 -23 10z"/>
<path d="M4530 962 c0 -12 19 -26 26 -19 2 2 -2 10 -11 17 -9 8 -15 8 -15 2z"/>
<path d="M1250 947 c0 -11 -7 -13 -22 -10 l-23 6 22 -22 c13 -12 37 -24 55
-28 18 -3 38 -10 44 -15 7 -5 35 -11 63 -15 40 -4 51 -3 51 8 0 10 -15 14 -55
14 -31 0 -59 5 -63 10 -4 6 -20 16 -35 23 -15 7 -26 16 -22 21 3 5 1 12 -5 16
-5 3 -10 0 -10 -8z"/>
<path d="M4520 900 c0 -5 5 -10 10 -10 6 0 10 5 10 10 0 6 -4 10 -10 10 -5 0
-10 -4 -10 -10z"/>
<path d="M4561 894 c0 -11 3 -14 6 -6 3 7 2 16 -1 19 -3 4 -6 -2 -5 -13z"/>
<path d="M1388 893 c7 -3 16 -2 19 1 4 3 -2 6 -13 5 -11 0 -14 -3 -6 -6z"/>
<path d="M4210 890 c0 -5 4 -10 9 -10 6 0 13 5 16 10 3 6 -1 10 -9 10 -9 0
-16 -4 -16 -10z"/>
<path d="M4437 832 l-18 -33 38 7 c48 8 53 11 53 31 0 15 -2 14 -18 0 -24 -22
-30 -21 -34 6 -3 20 -5 19 -21 -11z"/>
<path d="M6190 769 c-127 -58 -627 -214 -800 -249 -25 -5 -76 -16 -115 -25
-207 -45 -339 -68 -605 -106 -402 -56 -1036 -82 -1485 -60 -430 20 -753 55
-1100 117 -104 19 -207 34 -227 34 -20 0 -40 5 -44 11 -4 6 -19 9 -38 5 -22
-4 -27 -3 -16 4 11 7 3 10 -30 10 -26 0 -51 5 -58 12 -9 9 -12 9 -12 -3 0 -12
-2 -12 -10 1 -7 12 -12 11 -28 -8 -18 -21 -27 -22 -168 -23 -82 0 -158 -5
-169 -10 -20 -9 -20 -9 1 -6 11 3 88 0 170 -5 82 -5 173 -10 202 -11 39 -1 52
-5 53 -17 0 -10 2 -11 6 -2 3 7 25 12 59 12 34 0 53 -4 49 -10 -3 -6 -2 -10 4
-10 5 0 11 5 13 12 3 7 12 9 24 4 18 -7 18 -8 -3 -26 -19 -15 -20 -19 -7 -24
8 -3 12 -2 9 4 -3 6 -1 10 5 10 17 0 9 -73 -10 -87 -12 -10 -8 -10 18 0 26 9
29 13 15 18 -15 6 -14 8 9 14 18 4 25 12 23 24 -2 9 8 27 21 40 l24 23 0 -22
c0 -13 -8 -29 -17 -37 -17 -14 -17 -14 0 -9 23 7 47 -3 47 -21 0 -8 -3 -12 -7
-10 -5 3 -14 -1 -21 -9 -19 -20 2 -17 44 6 20 12 41 19 48 16 6 -2 3 -5 -6 -5
-33 -2 -18 -19 22 -26 38 -6 57 -25 24 -25 -8 0 -12 -5 -8 -11 3 -6 15 -9 25
-6 10 3 22 1 25 -4 3 -5 -2 -9 -10 -9 -9 0 -15 -5 -13 -11 1 -6 -9 -12 -23
-14 -23 -3 -25 0 -24 30 2 27 -2 34 -20 37 -12 3 -31 1 -42 -3 -16 -7 -15 -8
7 -8 32 -1 42 -10 28 -27 -6 -7 -7 -19 -3 -26 5 -7 9 -20 9 -30 1 -14 -4 -16
-22 -12 -29 8 -30 -4 0 -16 l22 -9 -24 0 c-17 -1 -21 -5 -17 -16 3 -9 -1 -18
-9 -21 -8 -4 -15 -11 -15 -16 0 -6 7 -5 16 3 13 10 17 10 25 -2 6 -10 9 -10 9
-1 0 6 7 12 15 12 8 0 15 5 15 10 0 6 8 10 17 10 9 0 13 3 9 8 -4 4 -12 7 -17
7 -15 0 -11 19 5 21 19 3 31 -46 14 -57 -10 -7 -9 -9 4 -9 11 0 15 -5 12 -14
-3 -8 -11 -13 -18 -10 -6 2 -20 -2 -31 -10 -19 -15 -19 -15 7 -16 20 0 26 -4
22 -15 -4 -8 -13 -15 -22 -15 -11 0 -13 -3 -6 -10 13 -13 46 -2 38 11 -3 6 2
22 12 37 28 41 44 73 34 67 -5 -3 -11 -1 -15 5 -3 5 -1 10 5 10 6 0 8 5 5 10
-3 6 -1 10 4 10 6 0 11 -4 11 -10 0 -5 9 -10 21 -10 11 0 17 -4 14 -10 -3 -5
-2 -10 4 -10 5 0 12 4 15 9 8 12 76 12 76 0 0 -5 -12 -9 -26 -9 -14 0 -23 -4
-19 -10 3 -5 13 -6 22 -3 11 4 14 3 9 -5 -4 -7 -14 -12 -22 -12 -8 0 -14 -4
-14 -9 0 -13 63 -20 76 -10 7 6 28 6 52 1 22 -5 46 -6 53 -1 24 15 35 10 13
-5 -12 -9 -35 -13 -54 -11 -19 3 -41 -2 -54 -11 -13 -10 -16 -15 -6 -13 31 3
65 -2 55 -9 -5 -4 -17 -16 -25 -27 -11 -16 -11 -17 0 -8 8 7 27 13 43 13 15 0
26 4 23 9 -3 4 3 16 13 25 16 14 19 15 24 2 3 -8 4 -25 1 -38 -2 -12 -2 -17 2
-10 3 6 12 12 20 12 8 0 13 3 13 8 -4 22 4 29 31 30 31 1 37 -7 20 -24 -6 -6
-3 -16 10 -27 19 -16 20 -16 20 3 0 13 7 20 20 20 17 0 19 -3 10 -20 -10 -19
1 -19 1159 -20 791 0 1172 3 1176 10 4 6 11 8 16 5 5 -4 9 -4 9 0 0 3 -10 10
-22 15 l-23 9 23 7 c24 7 23 7 -14 40 -37 34 -37 34 -11 34 14 0 29 -5 32 -10
4 -6 10 -8 14 -6 4 3 29 7 55 11 42 5 53 2 82 -20 18 -14 42 -25 53 -25 12 0
21 -4 21 -9 0 -13 -32 -6 -72 14 -22 11 -35 12 -44 4 -9 -8 -11 -5 -7 10 3 12
1 21 -6 21 -6 0 -11 -5 -11 -12 0 -6 -10 -22 -22 -35 l-21 -23 65 0 c72 0 86
-6 60 -26 -14 -11 2 -13 103 -13 108 0 118 1 101 14 -11 8 -33 15 -49 15 -15
0 -35 6 -42 14 -12 12 -10 15 16 20 17 3 35 3 40 0 5 -3 9 0 9 6 0 13 59 -27
78 -53 12 -16 28 -18 120 -16 94 2 175 20 142 31 -7 2 14 5 45 6 58 2 105 24
105 48 0 18 15 18 34 -1 11 -11 21 -13 40 -5 34 12 33 20 -1 19 -47 -3 -55 0
-49 19 5 15 -1 17 -46 17 -37 0 -53 4 -56 15 -4 12 -3 13 10 2 9 -7 23 -10 32
-6 21 8 21 44 0 44 -8 0 -12 -5 -9 -10 3 -6 -3 -10 -14 -10 -29 0 -26 14 6 29
21 10 24 14 13 21 -8 5 -11 13 -6 17 5 4 11 2 13 -5 3 -6 11 -12 19 -12 8 0
14 -5 14 -11 0 -5 -5 -7 -12 -3 -7 4 -8 3 -4 -4 8 -13 46 1 46 16 0 11 66 42
88 42 16 -1 16 -1 0 -11 -10 -5 -18 -14 -18 -19 0 -15 40 -12 56 4 18 19 18
26 -2 26 -8 0 -12 4 -9 10 9 15 19 12 45 -10 13 -11 26 -18 29 -15 3 4 -1 10
-9 16 -22 14 5 29 54 29 41 0 43 11 3 16 -12 1 -26 3 -32 4 -16 3 38 18 69 19
23 1 27 -2 23 -18 -3 -11 1 -22 9 -25 15 -6 28 9 19 24 -9 14 40 23 85 16 39
-6 40 -6 40 24 0 28 -3 30 -37 30 -90 2 -269 11 -282 16 -7 2 -20 -1 -29 -8
-12 -10 -16 -10 -19 0 -3 7 -23 12 -52 12 -36 0 -48 4 -48 15 0 9 6 14 13 11
9 -3 11 1 7 11 -5 13 -2 15 11 10 9 -4 15 -3 12 2 -3 4 5 13 18 19 21 9 23 8
19 -9 -6 -21 22 -28 29 -7 3 7 32 14 76 16 46 3 76 9 84 19 10 13 7 14 -24 8
-30 -6 -36 -4 -41 14 -6 25 -1 30 24 24 12 -4 18 -11 15 -20 -7 -19 14 -6 33
20 7 10 19 16 27 13 8 -3 14 -1 14 3 0 5 17 7 38 5 38 -3 64 6 63 22 0 5 11 8
25 7 34 -3 31 25 -3 30 l-28 4 28 2 27 1 0 85 c0 96 0 96 -70 64z m-80 -189
c0 -5 -8 -10 -17 -10 -15 0 -16 2 -3 10 19 12 20 12 20 0z m65 0 c3 -5 2 -10
-4 -10 -5 0 -13 5 -16 10 -3 6 -2 10 4 10 5 0 13 -4 16 -10z m-4480 -90 c-28
-12 -63 -12 -70 0 -4 6 12 10 42 9 36 0 43 -3 28 -9z m4018 -87 c-7 -2 -21 -2
-30 0 -10 3 -4 5 12 5 17 0 24 -2 18 -5z m-8 -62 c3 -5 2 -12 -3 -15 -5 -3 -9
1 -9 9 0 17 3 19 12 6z m203 -8 c-10 -2 -26 -2 -35 0 -10 3 -2 5 17 5 19 0 27
-2 18 -5z m-103 -23 c3 -6 -4 -10 -17 -10 -18 0 -20 2 -8 10 19 12 18 12 25 0z
m155 -1 c0 -7 -25 -19 -40 -19 -4 0 -10 7 -13 15 -5 11 1 14 23 12 17 -1 30
-5 30 -8z m30 1 c0 -5 -5 -10 -11 -10 -5 0 -7 5 -4 10 3 6 8 10 11 10 2 0 4
-4 4 -10z m-485 -20 c-3 -5 -14 -10 -23 -10 -15 0 -15 2 -2 10 20 13 33 13 25
0z m-3290 -10 c-3 -5 -14 -10 -23 -9 -14 0 -13 2 3 9 27 11 27 11 20 0z m3386
-22 c-6 -31 -31 -52 -31 -26 0 9 -2 10 -8 1 -8 -12 -24 -16 -60 -14 -31 1 -18
21 14 21 33 0 64 17 64 35 0 8 6 15 14 15 10 0 12 -8 7 -32z m134 22 c-3 -5
-12 -10 -18 -10 -7 0 -6 4 3 10 19 12 23 12 15 0z m141 -5 c-25 -19 -46 -19
-46 0 0 10 10 15 33 15 30 -1 31 -1 13 -15z m-156 -25 c-8 -5 -19 -10 -25 -10
-5 0 -3 5 5 10 8 5 20 10 25 10 6 0 3 -5 -5 -10z m-265 -20 c3 -5 -1 -10 -9
-10 -8 0 -18 5 -21 10 -3 6 1 10 9 10 8 0 18 -4 21 -10z m-3315 -10 c0 -6 9
-6 23 -1 28 11 44 3 44 -21 0 -14 -3 -15 -14 -7 -7 6 -27 9 -43 7 -24 -4 -30
-1 -25 10 4 11 -2 13 -25 10 -16 -3 -30 -1 -30 4 0 4 16 8 35 8 19 0 35 -4 35
-10z m3200 -4 c0 -2 -9 -6 -20 -9 -11 -3 -20 -1 -20 4 0 5 9 9 20 9 11 0 20
-2 20 -4z m115 -22 c-11 -8 -32 -18 -47 -21 -16 -3 -29 -9 -29 -14 -1 -5 -2
-15 -3 -21 -1 -7 3 -16 9 -20 20 -15 -11 -26 -55 -19 l-44 6 28 13 c35 16 25
32 -20 32 -19 0 -33 4 -29 9 3 5 -3 12 -12 14 -17 5 29 8 108 7 20 0 51 6 70
14 43 19 49 19 24 0z m-3205 -4 c0 -5 -2 -10 -4 -10 -3 0 -8 5 -11 10 -3 6 -1
10 4 10 6 0 11 -4 11 -10z m2815 -24 c-18 -27 -27 -31 -39 -19 -3 4 6 17 21
29 34 27 40 24 18 -10z m495 24 c0 -5 -2 -10 -4 -10 -3 0 -8 5 -11 10 -3 6 -1
10 4 10 6 0 11 -4 11 -10z m-3245 -60 c3 -5 -1 -10 -10 -10 -9 0 -13 5 -10 10
3 6 8 10 10 10 2 0 7 -4 10 -10z m3008 3 c-7 -2 -21 -2 -30 0 -10 3 -4 5 12 5
17 0 24 -2 18 -5z m-353 -7 c0 -11 -19 -15 -25 -6 -3 5 1 10 9 10 9 0 16 -2
16 -4z m-2423 -12 c-3 -3 -12 -4 -19 -1 -8 3 -5 6 6 6 11 1 17 -2 13 -5z
m3167 -3 c3 -5 -1 -14 -9 -21 -11 -9 -14 -8 -12 9 1 22 12 28 21 12z m-174
-31 c-20 -13 -33 -13 -25 0 3 6 14 10 23 10 15 0 15 -2 2 -10z m-60 -10 c0 -5
-7 -10 -16 -10 -8 0 -12 5 -9 10 3 6 10 10 16 10 5 0 9 -4 9 -10z m-90 -8 c0
-5 -7 -9 -15 -9 -8 0 -15 4 -15 9 0 4 7 8 15 8 8 0 15 -4 15 -8z m-2690 -21
c0 -5 -10 -11 -22 -14 -22 -6 -22 -6 -4 8 23 17 26 18 26 6z"/>
<path d="M3798 683 c7 -3 16 -2 19 1 4 3 -2 6 -13 5 -11 0 -14 -3 -6 -6z"/>
<path d="M1140 660 c0 -5 5 -10 10 -10 6 0 10 5 10 10 0 6 -4 10 -10 10 -5 0
-10 -4 -10 -10z"/>
<path d="M1334 574 c-8 -29 7 -44 36 -37 19 5 17 33 -2 33 -6 0 -5 6 2 15 10
13 9 15 -9 15 -14 0 -23 -8 -27 -26z"/>
<path d="M1420 572 c-8 -4 -16 -15 -18 -24 -2 -16 5 -18 55 -17 40 0 52 3 38
9 -11 4 -33 5 -49 2 -22 -4 -28 -2 -24 9 4 10 18 13 54 11 27 -2 47 -2 44 1
-10 8 -85 15 -100 9z"/>
<path d="M1128 563 c-33 -8 -19 -23 22 -23 31 0 38 3 34 15 -6 15 -22 17 -56
8z"/>
<path d="M1000 550 c0 -5 7 -10 15 -10 8 0 15 5 15 10 0 6 -7 10 -15 10 -8 0
-15 -4 -15 -10z"/>
<path d="M1055 550 c-3 -5 1 -10 9 -10 9 0 16 5 16 10 0 6 -4 10 -9 10 -6 0
-13 -4 -16 -10z"/>
<path d="M1278 543 c6 -2 18 -2 25 0 6 3 1 5 -13 5 -14 0 -19 -2 -12 -5z"/>
<path d="M1590 530 c19 -13 30 -13 30 0 0 6 -10 10 -22 10 -19 0 -20 -2 -8
-10z"/>
<path d="M878 493 c18 -2 45 -2 60 0 15 2 0 4 -33 4 -33 0 -45 -2 -27 -4z"/>
<path d="M1083 483 c15 -2 37 -2 50 0 12 2 0 4 -28 4 -27 0 -38 -2 -22 -4z"/>
<path d="M1198 481 c12 -7 62 -4 62 5 0 2 -17 4 -37 4 -24 0 -33 -3 -25 -9z"/>
<path d="M6105 480 c3 -5 10 -10 16 -10 5 0 9 5 9 10 0 6 -7 10 -16 10 -8 0
-12 -4 -9 -10z"/>
<path d="M6155 300 c3 -5 10 -10 16 -10 5 0 9 5 9 10 0 6 -7 10 -16 10 -8 0
-12 -4 -9 -10z"/>
<path d="M6208 293 c10 -4 10 -8 1 -19 -9 -11 -7 -14 14 -14 24 0 42 21 30 34
-4 3 -18 6 -32 5 -14 0 -20 -3 -13 -6z"/>
<path d="M1951 259 c15 -29 -4 -42 -56 -41 -11 1 -6 -4 13 -10 30 -10 44 -28
22 -28 -5 0 -10 -6 -10 -13 0 -15 -34 -50 -41 -42 -3 2 -5 -4 -5 -15 0 -10 4
-16 8 -14 11 7 10 -4 -2 -26 -7 -13 -7 -21 0 -25 5 -3 10 1 10 10 0 8 7 18 15
21 8 4 13 10 10 14 -3 4 4 18 14 31 10 13 22 43 26 67 5 31 13 46 28 52 18 7
18 9 5 9 -10 1 -18 8 -18 16 0 8 -7 15 -15 15 -13 0 -14 -4 -4 -21z"/>
<path d="M6025 272 c-21 -15 -3 -55 21 -45 11 4 12 9 3 19 -6 7 -8 18 -4 24 7
12 -5 13 -20 2z"/>
<path d="M6065 260 c-3 -5 1 -10 9 -10 8 0 18 5 21 10 3 6 -1 10 -9 10 -8 0
-18 -4 -21 -10z"/>
<path d="M6132 255 c-10 -12 -8 -16 9 -25 13 -7 18 -17 15 -27 -5 -12 -1 -14
16 -10 24 7 48 -8 48 -28 0 -8 -16 -19 -35 -25 -19 -6 -35 -15 -35 -19 0 -12
55 -7 63 7 4 6 18 12 30 12 20 1 20 2 5 11 -22 13 -23 23 -1 44 23 23 6 49
-36 53 -17 2 -29 8 -26 13 10 15 -39 10 -53 -6z"/>
<path d="M1185 250 c-3 -5 1 -10 10 -10 9 0 13 5 10 10 -3 6 -8 10 -10 10 -2
0 -7 -4 -10 -10z"/>
<path d="M1098 243 c7 -3 16 -2 19 1 4 3 -2 6 -13 5 -11 0 -14 -3 -6 -6z"/>
<path d="M1570 240 c0 -5 7 -7 15 -4 8 4 15 8 15 10 0 2 -7 4 -15 4 -8 0 -15
-4 -15 -10z"/>
<path d="M1660 240 c0 -5 -11 -10 -25 -10 -14 0 -25 -5 -25 -11 0 -5 5 -7 10
-4 6 3 10 1 10 -4 0 -6 -4 -11 -10 -11 -5 0 -7 -6 -4 -14 6 -15 -21 -30 -51
-27 -11 1 -26 -8 -34 -21 -13 -21 -13 -22 2 -10 22 19 77 22 77 5 0 -7 4 -13
9 -13 12 0 22 27 15 44 -4 10 5 13 38 11 24 -2 37 -1 31 2 -19 7 -16 23 5 23
23 0 48 17 39 27 -5 4 -11 2 -15 -4 -4 -6 -19 -13 -32 -15 -14 -2 -31 -7 -37
-11 -8 -5 -13 -3 -13 6 0 13 33 31 53 28 4 -1 7 4 7 9 0 6 -11 10 -25 10 -14
0 -25 -4 -25 -10z"/>
<path d="M1875 240 c-8 -13 5 -13 25 0 13 8 13 10 -2 10 -9 0 -20 -4 -23 -10z"/>
<path d="M1355 229 c-4 -6 -5 -12 -2 -15 2 -3 7 2 10 11 7 17 1 20 -8 4z"/>
<path d="M5938 223 c-16 -15 -15 -18 9 -47 l26 -31 -44 -6 c-24 -3 -35 -7 -23
-7 11 -1 25 -7 30 -12 19 -19 43 0 41 31 -1 16 -7 29 -13 29 -7 0 -14 7 -18
15 -4 10 1 15 14 15 11 0 20 7 20 15 0 20 -22 19 -42 -2z"/>
<path d="M6084 231 c4 -5 0 -12 -6 -15 -7 -3 -4 -5 6 -3 24 3 34 27 11 27 -9
0 -14 -4 -11 -9z"/>
<path d="M1820 219 c0 -5 5 -7 10 -4 6 3 10 8 10 11 0 2 -4 4 -10 4 -5 0 -10
-5 -10 -11z"/>
<path d="M1100 209 c-35 -6 -35 -6 -5 -8 17 -2 24 -5 18 -8 -14 -5 -18 -23 -5
-23 4 0 23 11 40 24 30 21 31 23 10 23 -13 -1 -39 -4 -58 -8z"/>
<path d="M1550 210 c0 -5 -9 -10 -21 -10 -11 0 -19 -5 -17 -12 8 -22 25 -19
42 7 9 14 12 25 6 25 -5 0 -10 -4 -10 -10z"/>
<path d="M5844 209 c-10 -17 12 -32 36 -24 17 5 19 10 9 21 -14 17 -35 18 -45
3z"/>
<path d="M1837 193 c-12 -11 -8 -23 8 -23 8 0 15 7 15 15 0 16 -12 20 -23 8z"/>
<path d="M6060 178 c0 -9 58 -21 70 -13 20 12 9 20 -30 20 -22 0 -40 -3 -40
-7z"/>
<path d="M1835 150 c4 -6 11 -8 16 -5 14 9 11 15 -7 15 -8 0 -12 -5 -9 -10z"/>
<path d="M645 141 c-3 -5 -1 -12 4 -15 5 -3 11 1 15 9 6 16 -9 21 -19 6z"/>
<path d="M6006 143 c5 -5 12 -12 15 -16 3 -5 9 -2 12 7 5 12 0 16 -15 16 -12
0 -17 -3 -12 -7z"/>
<path d="M979 124 c-12 -14 -11 -16 5 -13 11 2 21 10 24 17 5 17 -13 15 -29
-4z"/>
<path d="M1785 130 c-19 -8 -19 -9 2 -9 12 -1 25 4 28 9 7 12 -2 12 -30 0z"/>
<path d="M1071 116 c-8 -9 -8 -16 -2 -20 6 -4 8 -13 4 -22 -5 -13 -2 -13 22
-2 15 7 22 14 16 16 -16 5 -13 22 4 22 8 0 15 5 15 10 0 15 -46 12 -59 -4z"/>
<path d="M2180 120 c0 -5 12 -10 28 -10 21 0 24 2 12 10 -20 13 -40 13 -40 0z"/>
<path d="M6038 109 c-10 -10 -30 -19 -45 -19 -44 0 -20 -10 38 -15 30 -2 48
-2 42 1 -7 3 -13 14 -13 24 0 10 6 21 13 23 8 4 7 5 -3 5 -8 0 -23 -8 -32 -19z"/>
<path d="M1205 110 c-3 -5 -1 -10 4 -10 6 0 11 5 11 10 0 6 -2 10 -4 10 -3 0
-8 -4 -11 -10z"/>
<path d="M6238 113 c7 -3 16 -2 19 1 4 3 -2 6 -13 5 -11 0 -14 -3 -6 -6z"/>
<path d="M1573 95 c-7 -20 2 -29 21 -22 9 4 13 13 10 22 -8 19 -23 19 -31 0z"/>
<path d="M1995 100 c-3 -5 -1 -10 4 -10 6 0 11 5 11 10 0 6 -2 10 -4 10 -3 0
-8 -4 -11 -10z"/>
<path d="M1490 88 c0 -4 4 -8 9 -8 6 0 12 4 15 8 3 5 -1 9 -9 9 -8 0 -15 -4
-15 -9z"/>
<path d="M2145 90 c3 -5 14 -10 23 -10 15 0 15 2 2 10 -20 13 -33 13 -25 0z"/>
<path d="M6103 84 c0 -13 45 -29 54 -20 8 8 -20 31 -38 32 -9 1 -16 -5 -16
-12z"/>
<path d="M655 80 c-3 -5 -2 -10 4 -10 5 0 13 5 16 10 3 6 2 10 -4 10 -5 0 -13
-4 -16 -10z"/>
<path d="M5885 81 c-6 -11 60 -9 71 2 4 4 -9 7 -29 7 -20 0 -38 -4 -42 -9z"/>
<path d="M2266 66 c21 -15 30 -14 19 3 -3 6 -14 11 -23 11 -13 0 -13 -2 4 -14z"/>
<path d="M2175 60 c-3 -5 -1 -10 4 -10 6 0 11 5 11 10 0 6 -2 10 -4 10 -3 0
-8 -4 -11 -10z"/>
<path d="M95 50 c-3 -6 1 -7 9 -4 18 7 21 14 7 14 -6 0 -13 -4 -16 -10z"/>
<path d="M438 52 c-17 -7 -17 -8 0 -18 15 -10 18 -8 18 7 0 11 0 19 -1 18 0 0
-8 -4 -17 -7z"/>
<path d="M2006 45 c4 -8 10 -12 15 -9 11 6 2 24 -11 24 -5 0 -7 -7 -4 -15z"/>
<path d="M6055 40 c3 -5 8 -10 11 -10 2 0 4 5 4 10 0 6 -5 10 -11 10 -5 0 -7
-4 -4 -10z"/>
<path d="M418 23 c6 -2 9 -10 6 -15 -4 -7 -2 -8 5 -4 13 9 5 26 -12 25 -9 0
-8 -2 1 -6z"/>
<path d="M4970 20 c0 -5 5 -10 11 -10 5 0 7 5 4 10 -3 6 -8 10 -11 10 -2 0 -4
-4 -4 -10z"/>
<path d="M6115 21 c3 -5 -7 -12 -22 -14 -23 -3 -22 -4 9 -6 39 -1 59 13 32 23
-22 8 -26 8 -19 -3z"/>
<path d="M5900 10 c19 -13 30 -13 30 0 0 6 -10 10 -22 10 -19 0 -20 -2 -8 -10z"/>
<path d="M698 3 c6 -2 18 -2 25 0 6 3 1 5 -13 5 -14 0 -19 -2 -12 -5z"/>
<path d="M1028 3 c7 -3 16 -2 19 1 4 3 -2 6 -13 5 -11 0 -14 -3 -6 -6z"/>
</g>
</svg>
