<svg width="20" height="21" viewBox="0 0 20 21" fill="none" xmlns="http://www.w3.org/2000/svg">
<g id="close-circle">
<path id="Vector" d="M10 19.4421C5.05833 19.4421 1.04167 15.4254 1.04167 10.4837C1.04167 5.54206 5.05833 1.52539 10 1.52539C14.9417 1.52539 18.9583 5.54206 18.9583 10.4837C18.9583 15.4254 14.9417 19.4421 10 19.4421ZM10 2.77539C5.75 2.77539 2.29167 6.23372 2.29167 10.4837C2.29167 14.7337 5.75 18.1921 10 18.1921C14.25 18.1921 17.7083 14.7337 17.7083 10.4837C17.7083 6.23372 14.25 2.77539 10 2.77539Z" fill="#E10000"/>
<path id="Vector_2" d="M7.64114 13.4665C7.48281 13.4665 7.32448 13.4082 7.19948 13.2832C6.95782 13.0415 6.95782 12.6415 7.19948 12.3999L11.9162 7.6832C12.1578 7.44154 12.5578 7.44154 12.7995 7.6832C13.0412 7.92487 13.0412 8.32487 12.7995 8.56654L8.08281 13.2832C7.96614 13.4082 7.79948 13.4665 7.64114 13.4665Z" fill="#E10000"/>
<path id="Vector_3" d="M12.3578 13.4665C12.1995 13.4665 12.0412 13.4082 11.9162 13.2832L7.19948 8.56654C6.95782 8.32487 6.95782 7.92487 7.19948 7.6832C7.44114 7.44154 7.84114 7.44154 8.08281 7.6832L12.7995 12.3999C13.0412 12.6415 13.0412 13.0415 12.7995 13.2832C12.6745 13.4082 12.5162 13.4665 12.3578 13.4665Z" fill="#E10000"/>
</g>
</svg>
