<svg width="20" height="21" viewBox="0 0 20 21" fill="none" xmlns="http://www.w3.org/2000/svg">
<g id="info-circle">
<path id="Vector" d="M9.99998 1.52474C14.9416 1.52474 18.9583 5.54141 18.9583 10.4831C18.9583 15.4247 14.9416 19.4414 9.99998 19.4414C5.05831 19.4414 1.04165 15.4247 1.04165 10.4831C1.04165 5.5414 5.05831 1.52474 9.99998 1.52474ZM9.99998 18.1914C14.25 18.1914 17.7083 14.7331 17.7083 10.4831C17.7083 6.23307 14.25 2.77474 9.99998 2.77474C5.74998 2.77474 2.29165 6.23307 2.29165 10.4831C2.29165 14.7331 5.74998 18.1914 9.99998 18.1914Z" fill="#0085DE"/>
<path id="Vector_2" d="M10 9.02474C10.3417 9.02474 10.625 9.30807 10.625 9.64974L10.625 13.8164C10.625 14.1581 10.3417 14.4414 10 14.4414C9.65833 14.4414 9.375 14.1581 9.375 13.8164L9.375 9.64974C9.375 9.30807 9.65833 9.02474 10 9.02474Z" fill="#0085DE"/>
<path id="Vector_3" d="M9.99998 6.31699C10.1083 6.31699 10.2166 6.34199 10.3166 6.38366C10.4166 6.42532 10.5083 6.48366 10.5916 6.55866C10.6666 6.64199 10.725 6.72533 10.7666 6.83366C10.8083 6.93366 10.8333 7.04199 10.8333 7.15033C10.8333 7.25866 10.8083 7.36699 10.7666 7.46699C10.725 7.56699 10.6666 7.65866 10.5916 7.74199C10.5083 7.81699 10.4166 7.87533 10.3166 7.91699C10.1166 8.00033 9.88331 8.00033 9.68331 7.91699C9.58331 7.87533 9.49165 7.81699 9.40831 7.74199C9.33331 7.65866 9.27498 7.56699 9.23331 7.46699C9.19165 7.36699 9.16665 7.25866 9.16665 7.15033C9.16665 7.04199 9.19165 6.93366 9.23331 6.83366C9.27498 6.72533 9.33331 6.64199 9.40831 6.55866C9.49165 6.48366 9.58331 6.42532 9.68331 6.38366C9.78331 6.34199 9.89165 6.31699 9.99998 6.31699Z" fill="#0085DE"/>
</g>
</svg>
