<svg width="20" height="21" viewBox="0 0 20 21" fill="none" xmlns="http://www.w3.org/2000/svg">
<g id="tick-circle">
<path id="Vector" d="M10 19.4421C5.05835 19.4421 1.04169 15.4254 1.04169 10.4837C1.04169 5.54206 5.05835 1.52539 10 1.52539C14.9417 1.52539 18.9584 5.54206 18.9584 10.4837C18.9584 15.4254 14.9417 19.4421 10 19.4421ZM10 2.77539C5.75002 2.77539 2.29169 6.23372 2.29169 10.4837C2.29169 14.7337 5.75002 18.1921 10 18.1921C14.25 18.1921 17.7084 14.7337 17.7084 10.4837C17.7084 6.23372 14.25 2.77539 10 2.77539Z" fill="#22D3B7"/>
<path id="Vector_2" d="M8.81625 13.4671C8.64959 13.4671 8.49125 13.4004 8.37459 13.2837L6.01621 10.9254C5.77454 10.6837 5.77454 10.2837 6.01621 10.0421C6.25788 9.80039 6.65788 9.80039 6.89954 10.0421L8.81625 11.9587L13.0996 7.67539C13.3413 7.43372 13.7413 7.43372 13.9829 7.67539C14.2246 7.91706 14.2246 8.31706 13.9829 8.55872L9.25792 13.2837C9.14125 13.4004 8.98292 13.4671 8.81625 13.4671Z" fill="#22D3B7"/>
</g>
</svg>
