<svg width="20" height="21" viewBox="0 0 20 21" fill="none" xmlns="http://www.w3.org/2000/svg">
<g id="danger">
<path id="Vector" d="M10 12.7751C9.65833 12.7751 9.375 12.4917 9.375 12.1501V7.9834C9.375 7.64173 9.65833 7.3584 10 7.3584C10.3417 7.3584 10.625 7.64173 10.625 7.9834V12.1501C10.625 12.4917 10.3417 12.7751 10 12.7751Z" fill="#FAAD14"/>
<path id="Vector_2" d="M9.99999 15.4832C9.94999 15.4832 9.89166 15.4749 9.83332 15.4665C9.78332 15.4582 9.73332 15.4415 9.68332 15.4165C9.63332 15.3999 9.58332 15.3749 9.53332 15.3415C9.49166 15.3082 9.44999 15.2749 9.40832 15.2415C9.25832 15.0832 9.16666 14.8665 9.16666 14.6499C9.16666 14.4332 9.25832 14.2165 9.40832 14.0582C9.44999 14.0249 9.49166 13.9915 9.53332 13.9582C9.58332 13.9249 9.63332 13.8999 9.68332 13.8832C9.73332 13.8582 9.78332 13.8415 9.83332 13.8332C9.94166 13.8082 10.0583 13.8082 10.1583 13.8332C10.2167 13.8415 10.2667 13.8582 10.3167 13.8832C10.3667 13.8999 10.4167 13.9249 10.4667 13.9582C10.5083 13.9915 10.55 14.0249 10.5917 14.0582C10.7417 14.2165 10.8333 14.4332 10.8333 14.6499C10.8333 14.8665 10.7417 15.0832 10.5917 15.2415C10.55 15.2749 10.5083 15.3082 10.4667 15.3415C10.4167 15.3749 10.3667 15.3999 10.3167 15.4165C10.2667 15.4415 10.2167 15.4582 10.1583 15.4665C10.1083 15.4749 10.05 15.4832 9.99999 15.4832Z" fill="#FAAD14"/>
<path id="Vector_3" d="M15.0504 18.9499H4.95038C3.32538 18.9499 2.08371 18.3583 1.45038 17.2916C0.825379 16.2249 0.908709 14.8499 1.70038 13.4249L6.75038 4.3416C7.58371 2.8416 8.73374 2.0166 10.0004 2.0166C11.2671 2.0166 12.4171 2.8416 13.2504 4.3416L18.3004 13.4333C19.0921 14.8583 19.1837 16.2249 18.5504 17.2999C17.9171 18.3583 16.6754 18.9499 15.0504 18.9499ZM10.0004 3.2666C9.21708 3.2666 8.45041 3.8666 7.84204 4.94993L2.80038 14.0416C2.23371 15.0583 2.14204 15.9916 2.53371 16.6666C2.92538 17.3416 3.79204 17.7083 4.95871 17.7083H15.0587C16.2254 17.7083 17.0837 17.3416 17.4837 16.6666C17.8837 15.9916 17.7837 15.0666 17.2171 14.0416L12.1587 4.94993C11.5504 3.8666 10.7837 3.2666 10.0004 3.2666Z" fill="#FAAD14"/>
</g>
</svg>
